<svg width="164" height="44" viewBox="0 0 164 44" fill="none" xmlns="http://www.w3.org/2000/svg">
<path d="M1.80688 20.5213C3.51448 15.9709 9.20678 12.558 11.4837 13.1268C13.7605 13.6956 13.1912 21.3341 11.4837 24.503C7.49912 31.8975 11.4837 35.3104 11.4837 38.1544C11.4837 44.4113 8.06834 44.4113 9.20674 39.2921C9.57717 37.6263 6.9299 35.8792 4.65299 34.1728C3.0111 32.9423 -0.60805 26.9568 1.80688 20.5213Z" fill="white"/>
<path d="M17.7451 1.18181C11.3698 2.0919 8.06831 9.14514 9.20676 10.8516C10.3452 12.558 14.3297 10.8516 14.899 10.2828C17.3473 7.83622 16.7593 5.79175 21.1604 5.16348C25.145 4.59467 25.7142 0.0441894 17.7451 1.18181Z" fill="white"/>
<path d="M14.8991 20.5213C14.3299 14.2644 21.1607 5.73229 22.8683 7.43872C24.5759 9.14515 20.0222 11.4204 21.1606 18.8149C22.299 26.2094 14.3299 35.8792 12.6223 34.1728C10.9146 32.4663 15.4683 26.7782 14.8991 20.5213Z" fill="white"/>
<path d="M47.3281 10.75C47.4219 10.75 47.4688 10.7031 47.4688 10.6094V9.66016C47.4688 9.56641 47.4219 9.51953 47.3281 9.51953H46.2559C46.1738 9.51953 46.1328 9.56641 46.1328 9.66016V10.6094C46.1328 10.7031 46.1738 10.75 46.2559 10.75H47.3281ZM47.3281 12.877C47.4219 12.877 47.4688 12.8301 47.4688 12.7363V11.7695C47.4688 11.6758 47.4219 11.6289 47.3281 11.6289H46.2559C46.1738 11.6289 46.1328 11.6758 46.1328 11.7695V12.7363C46.1328 12.8301 46.1738 12.877 46.2559 12.877H47.3281ZM42.0547 11.6289C41.9609 11.6289 41.9141 11.6758 41.9141 11.7695V12.7363C41.9141 12.8301 41.9609 12.877 42.0547 12.877H43.0391C43.1328 12.877 43.1797 12.8301 43.1797 12.7363V11.7695C43.1797 11.6758 43.1328 11.6289 43.0391 11.6289H42.0547ZM42.0547 9.51953C41.9609 9.51953 41.9141 9.56641 41.9141 9.66016V10.6094C41.9141 10.7031 41.9609 10.75 42.0547 10.75H43.0391C43.1328 10.75 43.1797 10.7031 43.1797 10.6094V9.66016C43.1797 9.56641 43.1328 9.51953 43.0391 9.51953H42.0547ZM45.3066 11.7695C45.3066 11.6758 45.2598 11.6289 45.166 11.6289H44.1641C44.0703 11.6289 44.0234 11.6758 44.0234 11.7695V12.7363C44.0234 12.8301 44.0703 12.877 44.1641 12.877H45.166C45.2598 12.877 45.3066 12.8301 45.3066 12.7363V11.7695ZM44.0234 10.6094C44.0234 10.7031 44.0703 10.75 44.1641 10.75H45.166C45.2598 10.75 45.3066 10.7031 45.3066 10.6094V9.66016C45.3066 9.56641 45.2598 9.51953 45.166 9.51953H44.1641C44.0703 9.51953 44.0234 9.56641 44.0234 9.66016V10.6094ZM47.4688 8.58789C47.75 8.58789 47.9902 8.69336 48.1895 8.9043C48.4004 9.10352 48.5059 9.34375 48.5059 9.625V12.7715C48.5059 13.0645 48.4004 13.3105 48.1895 13.5098C47.9902 13.709 47.75 13.8086 47.4688 13.8086H41.9316C41.6387 13.8086 41.3926 13.709 41.1934 13.5098C40.9941 13.3105 40.8945 13.0645 40.8945 12.7715V9.625C40.8945 9.34375 40.9941 9.10352 41.1934 8.9043C41.3926 8.69336 41.6387 8.58789 41.9316 8.58789H42.8809C42.9746 8.58789 43.0215 8.54688 43.0215 8.46484V7.46289C43.0215 7.32227 43.0684 7.20508 43.1621 7.11133C43.2559 7.00586 43.373 6.95312 43.5137 6.95312C43.6543 6.95312 43.7715 7.00586 43.8652 7.11133C43.9707 7.20508 44.0234 7.32227 44.0234 7.46289V8.46484C44.0234 8.54688 44.0703 8.58789 44.1641 8.58789H45.166C45.2598 8.58789 45.3066 8.54688 45.3066 8.46484V7.46289C45.3066 7.32227 45.3535 7.20508 45.4473 7.11133C45.5527 7.00586 45.6699 6.95312 45.7988 6.95312C45.9395 6.95312 46.0566 7.00586 46.1504 7.11133C46.2559 7.20508 46.3086 7.32227 46.3086 7.46289V8.46484C46.3086 8.54688 46.3555 8.58789 46.4492 8.58789H47.4688ZM48.6465 14.6875C48.7754 14.6875 48.8867 14.7402 48.9805 14.8457C49.0859 14.9395 49.1387 15.0566 49.1387 15.1973C49.1387 15.3262 49.0859 15.4434 48.9805 15.5488C48.8867 15.6426 48.7754 15.6895 48.6465 15.6895H40.8418C40.7129 15.6895 40.5957 15.6426 40.4902 15.5488C40.3965 15.4434 40.3496 15.3262 40.3496 15.1973C40.3496 15.0566 40.3965 14.9395 40.4902 14.8457C40.5957 14.7402 40.7129 14.6875 40.8418 14.6875H48.6465ZM42.459 17.4297C42.377 17.4297 42.3359 17.4707 42.3359 17.5527V18.8359C42.3359 18.9297 42.377 18.9766 42.459 18.9766H46.9062C46.9883 18.9766 47.0293 18.9297 47.0293 18.8359V17.5527C47.0293 17.4707 46.9883 17.4297 46.9062 17.4297H42.459ZM48.1895 18.8184C48.1895 19.1113 48.084 19.3574 47.873 19.5566C47.6738 19.7559 47.4336 19.8555 47.1523 19.8555H42.2656C41.9844 19.8555 41.7383 19.7559 41.5273 19.5566C41.3281 19.3574 41.2285 19.1113 41.2285 18.8184V17.5879C41.2285 17.2949 41.3281 17.0488 41.5273 16.8496C41.7383 16.6504 41.9844 16.5508 42.2656 16.5508H47.1523C47.4336 16.5508 47.6738 16.6504 47.873 16.8496C48.084 17.0488 48.1895 17.2949 48.1895 17.5879V18.8184ZM35.3574 8.58789C35.2637 8.58789 35.2168 8.63477 35.2168 8.72852V12.4199C35.2168 12.502 35.2637 12.543 35.3574 12.543H36.0254C36.1191 12.543 36.166 12.502 36.166 12.4199V10.8027C36.166 10.5098 36.2656 10.2637 36.4648 10.0645C36.6641 9.86523 36.9102 9.76562 37.2031 9.76562H38.0293C38.1113 9.76562 38.1523 9.71875 38.1523 9.625V8.72852C38.1523 8.63477 38.1113 8.58789 38.0293 8.58789H35.3574ZM38.0293 12.543C38.1113 12.543 38.1523 12.502 38.1523 12.4199V10.7324C38.1523 10.6504 38.1113 10.6094 38.0293 10.6094H37.1328C37.0508 10.6094 37.0098 10.6504 37.0098 10.7324V12.4199C37.0098 12.502 37.0508 12.543 37.1328 12.543H38.0293ZM38.0293 15.8125C38.0293 15.7305 37.9883 15.6895 37.9062 15.6895H35.4629C35.3691 15.6895 35.3223 15.7305 35.3223 15.8125V16.832C35.3223 16.9141 35.3691 16.9551 35.4629 16.9551H37.9062C37.9883 16.9551 38.0293 16.9141 38.0293 16.832V15.8125ZM35.3223 19.1172C35.3223 19.1992 35.3691 19.2402 35.4629 19.2402H37.9062C37.9883 19.2402 38.0293 19.1992 38.0293 19.1172V18.0273C38.0293 17.9453 37.9883 17.9043 37.9062 17.9043H35.4629C35.3691 17.9043 35.3223 17.9453 35.3223 18.0273V19.1172ZM40.2793 14.5996C40.2793 14.7402 40.2266 14.8633 40.1211 14.9688C40.0156 15.0742 39.8867 15.127 39.7344 15.127C39.5938 15.127 39.4707 15.0742 39.3652 14.9688C39.2715 14.8633 39.2246 14.7402 39.2246 14.5996V13.6328C39.2246 13.5508 39.1777 13.5098 39.084 13.5098H34.3203C34.2383 13.5098 34.1973 13.5508 34.1973 13.6328V14.582C34.1973 14.6641 34.2383 14.7051 34.3203 14.7051H38.1699C38.4512 14.7051 38.6914 14.8105 38.8906 15.0215C39.1016 15.2207 39.207 15.4609 39.207 15.7422V22.123C39.207 22.416 39.1719 22.6387 39.1016 22.791C39.0312 22.9551 38.9023 23.084 38.7148 23.1777C38.457 23.2949 38 23.3594 37.3438 23.3711C37.1914 23.3711 37.0508 23.3184 36.9219 23.2129C36.793 23.1191 36.7051 22.9902 36.6582 22.8262C36.6113 22.709 36.623 22.5977 36.6934 22.4922C36.7637 22.3867 36.8574 22.334 36.9746 22.334C37.1035 22.334 37.2207 22.334 37.3262 22.334C37.5605 22.334 37.7246 22.3281 37.8184 22.3164C37.9004 22.3164 37.9531 22.3047 37.9766 22.2812C38.0117 22.2578 38.0293 22.1992 38.0293 22.1055V20.3477C38.0293 20.2656 37.9883 20.2246 37.9062 20.2246H35.4629C35.3691 20.2246 35.3223 20.2656 35.3223 20.3477V22.8086C35.3223 22.9609 35.2695 23.0898 35.1641 23.1953C35.0586 23.3125 34.9238 23.3711 34.7598 23.3711C34.6074 23.3711 34.4727 23.3125 34.3555 23.1953C34.25 23.0898 34.1973 22.9609 34.1973 22.8086V15.2324C34.1973 15.1621 34.1562 15.127 34.0742 15.127C33.8281 15.127 33.6172 15.0391 33.4414 14.8633C33.2656 14.6758 33.1777 14.459 33.1777 14.2129V13.457C33.1777 13.2109 33.2656 13 33.4414 12.8242C33.6172 12.6367 33.8281 12.543 34.0742 12.543C34.1562 12.543 34.1973 12.5078 34.1973 12.4375V8.60547C34.1973 8.3125 34.2969 8.06641 34.4961 7.86719C34.6953 7.66797 34.9414 7.56836 35.2344 7.56836H38.1875C38.4688 7.56836 38.709 7.66797 38.9082 7.86719C39.1191 8.06641 39.2246 8.3125 39.2246 8.60547V12.4375C39.2246 12.5078 39.2598 12.543 39.3301 12.543C39.5996 12.543 39.8223 12.6367 39.998 12.8242C40.1855 13.0117 40.2793 13.2344 40.2793 13.4922V14.5996ZM46.4844 21.9121C46.4727 21.9473 46.4727 21.9766 46.4844 22C46.4961 22.0234 46.5195 22.0352 46.5547 22.0352H48.752C48.8926 22.0352 49.0098 22.082 49.1035 22.1758C49.209 22.2812 49.2617 22.4043 49.2617 22.5449C49.2617 22.6855 49.209 22.8027 49.1035 22.8965C49.0098 22.9902 48.8926 23.0371 48.752 23.0371H40.5254C40.3965 23.0371 40.2793 22.9902 40.1738 22.8965C40.0801 22.8027 40.0332 22.6855 40.0332 22.5449C40.0332 22.4043 40.0801 22.2812 40.1738 22.1758C40.2793 22.082 40.3965 22.0352 40.5254 22.0352H42.6348C42.6699 22.0352 42.6934 22.0234 42.7051 22C42.7285 21.9648 42.7402 21.9355 42.7402 21.9121C42.623 21.4902 42.4766 21.0801 42.3008 20.6816C42.2539 20.5527 42.2539 20.4297 42.3008 20.3125C42.3477 20.1836 42.4355 20.0957 42.5645 20.0488C42.6348 20.0371 42.6992 20.0312 42.7578 20.0312C42.8398 20.0312 42.916 20.043 42.9863 20.0664C43.127 20.125 43.2266 20.2188 43.2852 20.3477C43.5078 20.8281 43.6777 21.2852 43.7949 21.7188C43.8301 21.8711 43.7715 21.9707 43.6191 22.0176C43.6191 22.0293 43.6191 22.0352 43.6191 22.0352H45.5352C45.4414 22 45.418 21.9355 45.4648 21.8418C45.6641 21.4316 45.8633 20.9629 46.0625 20.4355C46.1094 20.2832 46.2031 20.166 46.3438 20.084C46.4375 20.0371 46.5312 20.0137 46.625 20.0137C46.6836 20.0137 46.7422 20.0195 46.8008 20.0312C46.9414 20.0781 47.041 20.1719 47.0996 20.3125C47.1582 20.4531 47.1582 20.5879 47.0996 20.7168C46.7832 21.3379 46.5781 21.7363 46.4844 21.9121ZM62.0403 7.55078C62.2512 7.1875 62.5559 7.00586 62.9544 7.00586C63.3528 7.00586 63.6692 7.18164 63.9036 7.5332C64.3958 8.24805 64.9641 8.92773 65.6087 9.57227C66.2649 10.2051 66.9329 10.7383 67.6126 11.1719C67.7649 11.2656 67.8587 11.4004 67.8938 11.5762C67.9055 11.623 67.9114 11.6699 67.9114 11.7168C67.9114 11.834 67.8762 11.9512 67.8059 12.0684C67.7122 12.2207 67.5774 12.3203 67.4016 12.3672C67.2376 12.4141 67.0794 12.3848 66.927 12.2793C66.177 11.7637 65.4563 11.1543 64.7649 10.4512C64.0852 9.73633 63.5169 9.02148 63.0598 8.30664C63.0481 8.2832 63.0247 8.27148 62.9895 8.27148C62.9661 8.27148 62.9485 8.2832 62.9368 8.30664C62.5266 9.0332 61.9817 9.75977 61.302 10.4863C60.6223 11.2129 59.9016 11.8457 59.1399 12.3848C58.9993 12.4785 58.847 12.502 58.6829 12.4551C58.5305 12.4082 58.4075 12.3145 58.3137 12.1738C58.2317 12.0215 58.2024 11.8633 58.2259 11.6992C58.261 11.5352 58.3489 11.4062 58.4895 11.3125C59.1927 10.8438 59.8548 10.2754 60.4759 9.60742C61.1087 8.93945 61.6302 8.25391 62.0403 7.55078ZM65.0286 11.2422C65.1692 11.2422 65.2923 11.2949 65.3977 11.4004C65.5032 11.4941 65.5559 11.6172 65.5559 11.7695C65.5559 11.9102 65.5032 12.0332 65.3977 12.1387C65.2923 12.2324 65.1692 12.2793 65.0286 12.2793H61.1614C61.0208 12.2793 60.8977 12.2324 60.7923 12.1387C60.6868 12.0332 60.6341 11.9102 60.6341 11.7695C60.6341 11.6172 60.6868 11.4941 60.7923 11.4004C60.8977 11.2949 61.0208 11.2422 61.1614 11.2422H65.0286ZM60.177 14.3359C60.0833 14.3359 60.0364 14.377 60.0364 14.459V16.4629C60.0364 16.5566 60.0833 16.6035 60.177 16.6035H61.5657C61.6595 16.6035 61.7063 16.5566 61.7063 16.4629V14.459C61.7063 14.377 61.6595 14.3359 61.5657 14.3359H60.177ZM60.1243 17.5352C59.843 17.5352 59.597 17.4355 59.386 17.2363C59.1868 17.0254 59.0872 16.7793 59.0872 16.498V14.459C59.0872 14.166 59.1868 13.9199 59.386 13.7207C59.597 13.5215 59.843 13.4219 60.1243 13.4219H61.6536C61.9348 13.4219 62.1751 13.5215 62.3743 13.7207C62.5852 13.9199 62.6907 14.166 62.6907 14.459V16.498C62.6907 16.7793 62.5852 17.0254 62.3743 17.2363C62.1751 17.4355 61.9348 17.5352 61.6536 17.5352H60.1243ZM66.1536 16.6035C66.2473 16.6035 66.2942 16.5566 66.2942 16.4629V14.459C66.2942 14.377 66.2473 14.3359 66.1536 14.3359H64.677C64.5833 14.3359 64.5364 14.377 64.5364 14.459V16.4629C64.5364 16.5566 64.5833 16.6035 64.677 16.6035H66.1536ZM66.2415 13.4219C66.5345 13.4219 66.7805 13.5215 66.9798 13.7207C67.179 13.9199 67.2786 14.166 67.2786 14.459V16.498C67.2786 16.7793 67.179 17.0254 66.9798 17.2363C66.7805 17.4355 66.5345 17.5352 66.2415 17.5352H64.6067C64.3255 17.5352 64.0794 17.4355 63.8684 17.2363C63.6692 17.0254 63.5696 16.7793 63.5696 16.498V14.459C63.5696 14.166 63.6692 13.9199 63.8684 13.7207C64.0794 13.5215 64.3255 13.4219 64.6067 13.4219H66.2415ZM52.2845 22.0176C52.2259 22.123 52.138 22.1875 52.0208 22.2109C51.9153 22.2461 51.8098 22.2344 51.7044 22.1758C51.5989 22.1172 51.5345 22.0293 51.511 21.9121C51.4993 21.877 51.4934 21.8359 51.4934 21.7891C51.4934 21.7188 51.5052 21.6543 51.5286 21.5957C51.8567 20.9043 52.0677 19.832 52.1614 18.3789C52.1614 18.2734 52.2024 18.1855 52.2845 18.1152C52.3782 18.0449 52.4778 18.0215 52.5833 18.0449C52.7005 18.0566 52.7942 18.1094 52.8645 18.2031C52.9348 18.2969 52.97 18.4023 52.97 18.5195C52.8528 20.1367 52.6243 21.3027 52.2845 22.0176ZM53.3743 18.6426C53.3626 18.5371 53.386 18.4492 53.4446 18.3789C53.5032 18.3086 53.5794 18.2676 53.6731 18.2559C53.7669 18.2324 53.8489 18.25 53.9192 18.3086C54.0012 18.3672 54.0481 18.4434 54.0598 18.5371C54.2005 19.4277 54.2766 20.2715 54.2884 21.0684C54.2884 21.1738 54.2532 21.2676 54.1829 21.3496C54.1126 21.4316 54.0247 21.4785 53.9192 21.4902C53.8255 21.5137 53.7376 21.4961 53.6555 21.4375C53.5852 21.3672 53.5501 21.2617 53.5501 21.1211C53.5501 20.3359 53.4915 19.5098 53.3743 18.6426ZM53.5149 14.1426C53.4329 14.1426 53.3919 14.1836 53.3919 14.2656V15.6719C53.3919 15.7656 53.4329 15.8125 53.5149 15.8125H54.8333C54.927 15.8125 54.9739 15.7656 54.9739 15.6719V14.2656C54.9739 14.1836 54.927 14.1426 54.8333 14.1426H53.5149ZM54.9739 8.88672C54.9739 8.79297 54.927 8.74609 54.8333 8.74609H53.5149C53.4329 8.74609 53.3919 8.79297 53.3919 8.88672V10.2754C53.3919 10.3691 53.4329 10.416 53.5149 10.416H54.8333C54.927 10.416 54.9739 10.3691 54.9739 10.2754V8.88672ZM54.8333 13.0879C54.927 13.0879 54.9739 13.0469 54.9739 12.9648V11.5762C54.9739 11.4941 54.927 11.4531 54.8333 11.4531H53.5149C53.4329 11.4531 53.3919 11.4941 53.3919 11.5762V12.9648C53.3919 13.0469 53.4329 13.0879 53.5149 13.0879H54.8333ZM56.0462 15.6719C56.0462 15.7656 56.093 15.8125 56.1868 15.8125H57.3645C57.6458 15.8125 57.886 15.9121 58.0852 16.1113C58.2727 16.3105 58.3665 16.5391 58.3665 16.7969C58.3665 18.2266 58.2786 19.7031 58.1028 21.2266C57.9973 22.082 57.8391 22.6328 57.6282 22.8789C57.429 23.1602 57.1184 23.3184 56.6966 23.3535C56.5208 23.3652 56.2571 23.3711 55.9055 23.3711C55.847 23.3711 55.7825 23.3711 55.7122 23.3711C55.5598 23.3711 55.4251 23.3184 55.3079 23.2129C55.1907 23.1074 55.1145 22.9785 55.0794 22.8262C55.0442 22.6973 55.0618 22.5859 55.1321 22.4922C55.2141 22.3984 55.3137 22.3516 55.4309 22.3516C55.6653 22.375 55.929 22.3867 56.222 22.3867C56.4446 22.3867 56.6028 22.3164 56.6966 22.1758C56.8723 21.9648 57.0071 21.25 57.1009 20.0312C57.1009 20.0195 57.095 20.0078 57.0833 19.9961C57.0716 19.9844 57.0598 19.9844 57.0481 19.9961C56.9192 20.043 56.7903 20.0371 56.6614 19.9785C56.5325 19.9199 56.4387 19.8262 56.3802 19.6973C56.2044 19.2051 55.97 18.6836 55.677 18.1328C55.6419 18.0625 55.636 17.9922 55.6595 17.9219C55.6946 17.8398 55.7473 17.7812 55.8177 17.7461C56.0169 17.6758 56.1692 17.7344 56.2747 17.9219C56.6262 18.5195 56.8958 19.082 57.0833 19.6094C57.095 19.6211 57.1067 19.627 57.1184 19.627C57.1302 19.627 57.136 19.6211 57.136 19.6094C57.1829 18.8711 57.2298 18.0039 57.2766 17.0078C57.2884 16.9141 57.2473 16.8672 57.1536 16.8672H53.3216C53.0403 16.8672 52.7942 16.7676 52.5833 16.5684C52.3841 16.3691 52.2845 16.123 52.2845 15.8301V8.69336C52.2845 8.40039 52.3841 8.1543 52.5833 7.95508C52.7942 7.75586 53.0403 7.65625 53.3216 7.65625H57.7337C57.886 7.65625 58.0149 7.70898 58.1204 7.81445C58.2259 7.91992 58.2786 8.04883 58.2786 8.20117C58.2786 8.35352 58.2259 8.48242 58.1204 8.58789C58.0149 8.69336 57.886 8.74609 57.7337 8.74609H56.1868C56.093 8.74609 56.0462 8.79297 56.0462 8.88672V10.2754C56.0462 10.3691 56.093 10.416 56.1868 10.416H57.4173C57.5579 10.416 57.6809 10.4688 57.7864 10.5742C57.8919 10.668 57.9446 10.791 57.9446 10.9434C57.9446 11.084 57.8919 11.207 57.7864 11.3125C57.6809 11.4062 57.5579 11.4531 57.4173 11.4531H56.1868C56.093 11.4531 56.0462 11.4941 56.0462 11.5762V12.9648C56.0462 13.0469 56.093 13.0879 56.1868 13.0879H57.4348C57.5755 13.0879 57.6985 13.1406 57.804 13.2461C57.9095 13.3516 57.9622 13.4746 57.9622 13.6152C57.9622 13.7559 57.9095 13.8789 57.804 13.9844C57.6985 14.0898 57.5755 14.1426 57.4348 14.1426H56.1868C56.093 14.1426 56.0462 14.1836 56.0462 14.2656V15.6719ZM55.7649 20.5059C55.7884 20.5996 55.7708 20.6875 55.7122 20.7695C55.6536 20.8516 55.5716 20.9043 55.4661 20.9277C55.3841 20.9395 55.302 20.9219 55.22 20.875C55.138 20.8164 55.0911 20.7402 55.0794 20.6465C54.9622 19.873 54.7805 19.123 54.5345 18.3965C54.5227 18.3613 54.5169 18.332 54.5169 18.3086C54.5169 18.2617 54.5286 18.2148 54.552 18.168C54.5989 18.0977 54.6634 18.0508 54.7454 18.0273C54.7805 18.0273 54.8157 18.0273 54.8509 18.0273C55.0032 18.0273 55.1145 18.1094 55.1848 18.2734C55.4661 19.0234 55.6595 19.7676 55.7649 20.5059ZM60.3528 18.5898C60.3762 18.4258 60.4524 18.2969 60.5813 18.2031C60.7102 18.0977 60.8509 18.0508 61.0032 18.0625C61.1555 18.0742 61.2786 18.1387 61.3723 18.2559C61.4778 18.373 61.513 18.5078 61.4778 18.6602C61.4075 19.0234 61.3255 19.3809 61.2317 19.7324C61.2083 19.8145 61.2259 19.8848 61.2845 19.9434C61.847 20.4473 62.3157 20.916 62.6907 21.3496C62.7962 21.4668 62.843 21.6016 62.8313 21.7539C62.8196 21.9062 62.761 22.041 62.6555 22.1582C62.5501 22.252 62.427 22.293 62.2864 22.2812C62.1458 22.2812 62.0286 22.2285 61.9348 22.123C61.6184 21.7246 61.2786 21.3438 60.9153 20.9805C60.8567 20.9219 60.804 20.9277 60.7571 20.998C60.3821 21.8066 59.8958 22.4922 59.2981 23.0547C59.1927 23.1484 59.0696 23.1953 58.929 23.1953C58.9173 23.1953 58.8997 23.1953 58.8762 23.1953C58.7239 23.1836 58.5833 23.1191 58.4544 23.002C58.3489 22.8965 58.2962 22.7734 58.2962 22.6328C58.2962 22.4922 58.3548 22.3691 58.472 22.2637C59.4095 21.4316 60.0364 20.207 60.3528 18.5898ZM64.7825 18.5898C64.8177 18.4258 64.8997 18.291 65.0286 18.1855C65.1458 18.0918 65.2805 18.0449 65.4329 18.0449C65.4446 18.0449 65.4563 18.0449 65.468 18.0449C65.6321 18.0566 65.761 18.127 65.8548 18.2559C65.9602 18.373 65.9954 18.5078 65.9602 18.6602C65.8899 19.0703 65.7903 19.4629 65.6614 19.8379C65.638 19.9199 65.6555 19.9961 65.7141 20.0664C66.5227 20.8633 67.1907 21.5898 67.718 22.2461C67.8001 22.3398 67.8411 22.4512 67.8411 22.5801C67.8411 22.7676 67.7708 22.9141 67.6302 23.0195C67.5012 23.1133 67.3606 23.1484 67.2083 23.125C67.0677 23.1133 66.9505 23.0488 66.8567 22.9316C66.4583 22.4043 65.9368 21.7949 65.2923 21.1035C65.2337 21.0449 65.1868 21.0508 65.1516 21.1211C64.7884 21.8477 64.3196 22.4746 63.7454 23.002C63.6399 23.0957 63.511 23.1426 63.3587 23.1426C63.347 23.1426 63.3352 23.1426 63.3235 23.1426C63.1595 23.1309 63.013 23.0664 62.8841 22.9492C62.7786 22.8555 62.7259 22.7324 62.7259 22.5801C62.7259 22.4395 62.7845 22.3164 62.9016 22.2109C63.8509 21.3672 64.4778 20.1602 64.7825 18.5898ZM82.7291 17.1484C82.7291 17.0547 82.6822 17.0078 82.5884 17.0078H74.2388C74.1451 17.0078 74.0982 17.0547 74.0982 17.1484V21.1738C74.0982 21.2559 74.1451 21.2969 74.2388 21.2969H82.5884C82.6822 21.2969 82.7291 21.2559 82.7291 21.1738V17.1484ZM73.9048 23.1602C73.7759 23.3008 73.6177 23.3711 73.4302 23.3711C73.2427 23.3711 73.0787 23.3008 72.938 23.1602C72.8091 23.0312 72.7447 22.873 72.7447 22.6855V16.7969C72.7447 16.5039 72.8443 16.2578 73.0435 16.0586C73.2545 15.8594 73.5005 15.7598 73.7818 15.7598H83.1158C83.397 15.7598 83.6373 15.8594 83.8365 16.0586C84.0474 16.2578 84.1529 16.5039 84.1529 16.7969V22.6152C84.1529 22.8145 84.0826 22.9844 83.942 23.125C83.8013 23.2656 83.6314 23.3359 83.4322 23.3359H83.397C83.2095 23.3359 83.0513 23.2656 82.9224 23.125C82.7935 22.9961 82.7291 22.8438 82.7291 22.668C82.7291 22.6094 82.6998 22.5801 82.6412 22.5801H74.1861C74.1275 22.5801 74.0982 22.6094 74.0982 22.668V22.6855C74.0982 22.873 74.0337 23.0312 73.9048 23.1602ZM81.1295 10.1875C81.0005 10.0703 80.9361 9.92969 80.9361 9.76562C80.9478 9.60156 81.024 9.47266 81.1646 9.37891C81.317 9.27344 81.4869 9.2207 81.6744 9.2207C81.8619 9.2207 82.0318 9.28516 82.1841 9.41406C83.8599 10.8086 85.1724 12.1445 86.1216 13.4219C86.2154 13.5508 86.2623 13.6914 86.2623 13.8438C86.2623 13.8906 86.2623 13.9375 86.2623 13.9844C86.2271 14.1836 86.1275 14.3418 85.9634 14.459C85.8462 14.5527 85.7115 14.5996 85.5591 14.5996C85.524 14.5996 85.483 14.5996 85.4361 14.5996C85.2486 14.5645 85.0962 14.4648 84.9791 14.3008C84.7681 13.9961 84.5045 13.6562 84.188 13.2812C84.1412 13.2109 84.0709 13.1816 83.9771 13.1934C82.5123 13.2754 78.3228 13.457 71.4087 13.7383C71.2212 13.75 71.0572 13.6973 70.9166 13.5801C70.7642 13.4395 70.688 13.2637 70.688 13.0527C70.688 12.9004 70.7466 12.7598 70.8638 12.6309C70.981 12.502 71.1334 12.4316 71.3209 12.4199C71.6021 12.4082 72.2349 12.3848 73.2193 12.3496C73.3013 12.3496 73.3658 12.3145 73.4127 12.2441C74.4087 10.7324 75.2759 9.17969 76.0142 7.58594C76.108 7.38672 76.2545 7.24609 76.4537 7.16406C76.5709 7.10547 76.688 7.07617 76.8052 7.07617C76.8873 7.07617 76.9752 7.09375 77.0689 7.12891C77.2681 7.19922 77.4029 7.32813 77.4732 7.51562C77.5084 7.59766 77.5259 7.67969 77.5259 7.76172C77.5259 7.86719 77.4966 7.97266 77.438 8.07812C76.6295 9.57812 75.8091 10.9434 74.9771 12.1738C74.9537 12.1973 74.9478 12.2207 74.9595 12.2441C74.9712 12.2676 74.9947 12.2793 75.0298 12.2793C76.7642 12.209 79.3716 12.0977 82.8521 11.9453C82.8755 11.9453 82.8873 11.9336 82.8873 11.9102C82.899 11.8867 82.899 11.8633 82.8873 11.8398C82.3013 11.2539 81.7154 10.7031 81.1295 10.1875ZM99.9373 7.32227C100.043 7.32227 100.131 7.36328 100.201 7.44531C100.283 7.51562 100.324 7.60938 100.324 7.72656C100.324 7.83203 100.283 7.91992 100.201 7.99023C100.131 8.06055 100.043 8.0957 99.9373 8.0957H97.617C97.5116 8.0957 97.4178 8.06055 97.3358 7.99023C97.2655 7.91992 97.2303 7.83203 97.2303 7.72656C97.2303 7.60938 97.2655 7.51562 97.3358 7.44531C97.4178 7.36328 97.5116 7.32227 97.617 7.32227H99.9373ZM100.957 9.23828C100.933 9.22656 100.922 9.23242 100.922 9.25586C100.922 9.33789 100.892 9.4082 100.834 9.4668C100.775 9.52539 100.705 9.55469 100.623 9.55469H97.0194C96.9022 9.55469 96.8026 9.51953 96.7205 9.44922C96.6385 9.36719 96.5975 9.26758 96.5975 9.15039C96.5975 9.0332 96.6385 8.93359 96.7205 8.85156C96.8026 8.76953 96.9022 8.72852 97.0194 8.72852H100.623C100.705 8.72852 100.775 8.75781 100.834 8.81641C100.892 8.875 100.922 8.95117 100.922 9.04492C100.922 9.04492 100.928 9.04492 100.939 9.04492L101.185 8.74609C101.232 8.67578 101.297 8.63477 101.379 8.62305C101.472 8.61133 101.549 8.63477 101.607 8.69336C101.631 8.70508 101.648 8.69922 101.66 8.67578C101.906 8.26562 102.14 7.82617 102.363 7.35742C102.422 7.24023 102.51 7.1582 102.627 7.11133C102.685 7.08789 102.738 7.07617 102.785 7.07617C102.855 7.07617 102.926 7.09375 102.996 7.12891C103.113 7.17578 103.189 7.26367 103.224 7.39258C103.26 7.50977 103.248 7.62695 103.189 7.74414C102.838 8.33008 102.551 8.78711 102.328 9.11523C102.281 9.18555 102.287 9.25 102.346 9.30859C102.592 9.55469 102.732 9.68945 102.767 9.71289C102.826 9.7832 102.879 9.77734 102.926 9.69531C103.172 9.33203 103.383 8.99805 103.558 8.69336C103.629 8.58789 103.728 8.51758 103.857 8.48242C103.986 8.44727 104.109 8.45898 104.226 8.51758C104.344 8.57617 104.414 8.66992 104.437 8.79883C104.461 8.92773 104.437 9.04492 104.367 9.15039C103.781 9.95898 103.236 10.668 102.732 11.2773C102.721 11.3008 102.721 11.3242 102.732 11.3477C102.744 11.3711 102.762 11.3828 102.785 11.3828L104.033 11.3301C104.092 11.3301 104.109 11.3008 104.086 11.2422C104.027 11.1367 103.98 11.0488 103.945 10.9785C103.887 10.8965 103.869 10.8086 103.892 10.7148C103.928 10.6094 103.992 10.5391 104.086 10.5039C104.18 10.457 104.279 10.4512 104.385 10.4863C104.502 10.5098 104.59 10.5684 104.648 10.6621C104.883 11.0371 105.088 11.4355 105.264 11.8574C105.31 11.9746 105.31 12.0918 105.264 12.209C105.217 12.3145 105.14 12.3906 105.035 12.4375C104.93 12.4844 104.824 12.4844 104.719 12.4375C104.625 12.3906 104.56 12.3145 104.525 12.209C104.514 12.1738 104.49 12.1562 104.455 12.1562L103.664 12.209C103.57 12.2207 103.523 12.2676 103.523 12.3496V15.4082C103.523 15.5371 103.476 15.6484 103.383 15.7422C103.301 15.8359 103.195 15.8828 103.066 15.8828C102.937 15.8828 102.826 15.8359 102.732 15.7422C102.639 15.6484 102.592 15.5371 102.592 15.4082V12.4199C102.592 12.3262 102.551 12.2852 102.469 12.2969L101.326 12.3672C101.185 12.3672 101.062 12.3262 100.957 12.2441C100.863 12.1621 100.81 12.0566 100.799 11.9277C100.787 11.7988 100.822 11.6875 100.904 11.5938C100.998 11.4883 101.109 11.4355 101.238 11.4355L101.537 11.418C101.607 11.418 101.666 11.3945 101.713 11.3477C101.853 11.1836 102.017 10.9668 102.205 10.6973C102.264 10.627 102.264 10.5566 102.205 10.4863C101.853 10.0645 101.437 9.64844 100.957 9.23828ZM101.273 13.2812C101.308 13.1641 101.373 13.0703 101.467 13C101.572 12.9297 101.683 12.9121 101.801 12.9473C101.93 12.9707 102.029 13.0352 102.099 13.1406C102.17 13.2461 102.187 13.3574 102.152 13.4746C101.988 14.1543 101.812 14.7109 101.625 15.1445C101.578 15.2617 101.496 15.3379 101.379 15.373C101.262 15.4082 101.144 15.3965 101.027 15.3379C100.922 15.2793 100.846 15.1973 100.799 15.0918C100.764 14.9746 100.769 14.8633 100.816 14.7578C100.992 14.3711 101.144 13.8789 101.273 13.2812ZM97.5116 12.2617C97.4061 12.2617 97.3182 12.2266 97.2479 12.1562C97.1776 12.0859 97.1424 11.998 97.1424 11.8926C97.1424 11.7871 97.1776 11.6992 97.2479 11.6289C97.3182 11.5586 97.4061 11.5234 97.5116 11.5234H100.078C100.183 11.5234 100.271 11.5586 100.342 11.6289C100.412 11.6992 100.447 11.7871 100.447 11.8926C100.447 11.998 100.412 12.0859 100.342 12.1562C100.271 12.2266 100.183 12.2617 100.078 12.2617H97.5116ZM100.078 10.1699C100.183 10.1699 100.271 10.2109 100.342 10.293C100.412 10.3633 100.447 10.4512 100.447 10.5566C100.447 10.6621 100.412 10.75 100.342 10.8203C100.271 10.8906 100.183 10.9258 100.078 10.9258H97.5116C97.4178 10.9258 97.3299 10.8906 97.2479 10.8203C97.1776 10.75 97.1424 10.6621 97.1424 10.5566C97.1424 10.4512 97.1776 10.3633 97.2479 10.293C97.3299 10.2109 97.4178 10.1699 97.5116 10.1699H100.078ZM98.1092 13.6328C98.0155 13.6328 97.9686 13.6738 97.9686 13.7559V14.7051C97.9686 14.7871 98.0155 14.8281 98.1092 14.8281H99.4276C99.5096 14.8281 99.5506 14.7871 99.5506 14.7051V13.7559C99.5506 13.6738 99.5096 13.6328 99.4276 13.6328H98.1092ZM98.1268 15.5664C97.8338 15.5664 97.5877 15.4668 97.3885 15.2676C97.1893 15.0684 97.0897 14.8223 97.0897 14.5293V13.9492C97.0897 13.6562 97.1893 13.4102 97.3885 13.2109C97.5877 13.0117 97.8338 12.9121 98.1268 12.9121H99.4276C99.7205 12.9121 99.9666 13.0117 100.166 13.2109C100.365 13.4102 100.465 13.6562 100.465 13.9492V14.5293C100.465 14.8223 100.365 15.0684 100.166 15.2676C99.9666 15.4668 99.7205 15.5664 99.4276 15.5664H98.1268ZM92.6073 11.9277C92.5955 11.7988 92.6307 11.6875 92.7127 11.5938C92.7948 11.4883 92.9002 11.4355 93.0291 11.4355L93.3983 11.418C93.4686 11.418 93.5272 11.3887 93.5741 11.3301C93.6561 11.2246 93.8202 11.002 94.0662 10.6621C94.1131 10.5918 94.1073 10.5215 94.0487 10.4512C93.7791 10.1465 93.4452 9.82422 93.0467 9.48438C92.953 9.41406 92.8944 9.32031 92.8709 9.20312C92.8592 9.07422 92.8885 8.96289 92.9588 8.86914L93.0291 8.78125C93.076 8.71094 93.1405 8.66992 93.2225 8.6582C93.3045 8.63477 93.3807 8.64648 93.451 8.69336C93.4745 8.70508 93.492 8.69922 93.5037 8.67578C93.7498 8.23047 93.9725 7.78516 94.1717 7.33984C94.2303 7.22266 94.3182 7.14062 94.4354 7.09375C94.494 7.07031 94.5526 7.05859 94.6112 7.05859C94.6698 7.05859 94.7342 7.07617 94.8045 7.11133C94.9217 7.1582 94.9979 7.24609 95.033 7.375C95.0799 7.49219 95.0682 7.60938 94.9979 7.72656C94.658 8.33594 94.3885 8.79883 94.1893 9.11523C94.1424 9.18555 94.1483 9.25 94.2069 9.30859C94.3709 9.44922 94.494 9.56055 94.576 9.64258C94.6463 9.71289 94.7049 9.70703 94.7518 9.625C94.9159 9.35547 95.0799 9.07422 95.244 8.78125C95.3026 8.66406 95.3963 8.58789 95.5252 8.55273C95.6541 8.51758 95.7772 8.53516 95.8944 8.60547C96.0116 8.66406 96.0819 8.75781 96.1053 8.88672C96.1405 9.00391 96.1229 9.11523 96.0526 9.2207C95.5135 10.0293 95.033 10.7148 94.6112 11.2773C94.5995 11.3008 94.5995 11.3242 94.6112 11.3477C94.6229 11.3711 94.6405 11.377 94.6639 11.3652L95.6659 11.3125C95.7127 11.3125 95.7245 11.2891 95.701 11.2422C95.6659 11.1602 95.6366 11.084 95.6131 11.0137C95.5662 10.9199 95.5604 10.832 95.5955 10.75C95.6307 10.6562 95.6893 10.5918 95.7713 10.5566C95.8651 10.5215 95.9588 10.5215 96.0526 10.5566C96.1463 10.5918 96.2166 10.6504 96.2635 10.7324C96.451 11.0957 96.6092 11.4941 96.7381 11.9277C96.7733 12.0332 96.7674 12.1387 96.7205 12.2441C96.6737 12.3379 96.5975 12.4082 96.492 12.4551C96.3983 12.4902 96.3045 12.4844 96.2108 12.4375C96.1287 12.3906 96.076 12.3203 96.0526 12.2266C96.0526 12.2148 96.0467 12.209 96.035 12.209C96.035 12.1738 96.0174 12.1562 95.9823 12.1562L95.3495 12.1914C95.2557 12.2031 95.2088 12.25 95.2088 12.332V15.4082C95.2088 15.5371 95.162 15.6484 95.0682 15.7422C94.9862 15.8359 94.8807 15.8828 94.7518 15.8828C94.6229 15.8828 94.5116 15.8359 94.4178 15.7422C94.3241 15.6484 94.2772 15.5371 94.2772 15.4082V12.4023C94.2772 12.3086 94.2362 12.2676 94.1541 12.2793C93.9784 12.2793 93.6385 12.3027 93.1346 12.3496C92.994 12.3613 92.8709 12.3262 92.7655 12.2441C92.6717 12.1621 92.619 12.0566 92.6073 11.9277ZM96.6854 14.4238C96.7088 14.5293 96.6854 14.6348 96.6151 14.7402C96.5565 14.834 96.4686 14.8926 96.3514 14.916C96.2577 14.9395 96.1639 14.9219 96.0702 14.8633C95.9764 14.8047 95.9237 14.7227 95.912 14.6172C95.8416 14.207 95.7596 13.8145 95.6659 13.4395C95.6307 13.334 95.6366 13.2402 95.6834 13.1582C95.742 13.0645 95.8241 13.0059 95.9295 12.9824C96.035 12.959 96.1346 12.9766 96.2284 13.0352C96.3221 13.082 96.3807 13.1582 96.4041 13.2637C96.5213 13.6738 96.6151 14.0605 96.6854 14.4238ZM92.1151 8.62305C92.2557 8.74023 92.326 8.89258 92.326 9.08008C92.3377 9.26758 92.285 9.42578 92.1678 9.55469C92.0623 9.68359 91.9217 9.75391 91.7459 9.76562C91.5819 9.76562 91.4412 9.70703 91.3241 9.58984C90.9022 9.19141 90.3807 8.78711 89.7596 8.37695C89.6424 8.2832 89.5721 8.16016 89.5487 8.00781C89.5252 7.85547 89.5662 7.7207 89.6717 7.60352C89.7772 7.47461 89.912 7.39844 90.076 7.375C90.1229 7.36328 90.1639 7.35742 90.1991 7.35742C90.328 7.35742 90.4452 7.39258 90.5506 7.46289C91.16 7.84961 91.6815 8.23633 92.1151 8.62305ZM91.7811 13.2812C91.9217 13.3867 91.9979 13.5332 92.0096 13.7207C92.0213 13.9082 91.9686 14.0723 91.8514 14.2129C91.7459 14.3418 91.6053 14.4121 91.4295 14.4238C91.2655 14.4355 91.1131 14.3828 90.9725 14.2656C90.5272 13.8906 89.9998 13.5098 89.3905 13.123C89.2616 13.041 89.1795 12.9238 89.1444 12.7715C89.1444 12.7363 89.1444 12.707 89.1444 12.6836C89.1444 12.5664 89.1795 12.4609 89.2498 12.3672C89.367 12.2383 89.5077 12.1562 89.6717 12.1211C89.7186 12.1094 89.7655 12.1035 89.8123 12.1035C89.9295 12.1035 90.0409 12.1328 90.1463 12.1914C90.7674 12.5547 91.3123 12.918 91.7811 13.2812ZM90.6912 22.5098C90.6209 22.6738 90.4979 22.7852 90.3221 22.8438C90.1463 22.9141 89.9823 22.9023 89.8299 22.8086C89.6541 22.7031 89.537 22.5566 89.4784 22.3691C89.4549 22.2871 89.4432 22.2051 89.4432 22.123C89.4432 22.0176 89.4666 21.9121 89.5135 21.8066C90.158 20.3652 90.744 18.877 91.2713 17.3418C91.3182 17.1895 91.4178 17.0898 91.5702 17.043C91.7225 16.9844 91.8631 16.9961 91.992 17.0781C92.1444 17.1836 92.2498 17.3242 92.3084 17.5C92.3787 17.6758 92.3846 17.8516 92.326 18.0273C91.7987 19.6328 91.2537 21.127 90.6912 22.5098ZM93.0116 13.2812C93.0467 13.1641 93.117 13.0703 93.2225 13C93.2928 12.9414 93.369 12.9121 93.451 12.9121C93.4862 12.9121 93.5213 12.918 93.5565 12.9297C93.6737 12.9531 93.7674 13.0176 93.8377 13.123C93.908 13.2285 93.9256 13.3398 93.8905 13.457C93.7381 14.1133 93.5565 14.6934 93.3455 15.1973C93.2987 15.3145 93.2108 15.3906 93.0819 15.4258C92.9647 15.4609 92.8534 15.4492 92.7479 15.3906C92.6307 15.3438 92.5545 15.2676 92.5194 15.1621C92.4959 15.1035 92.4842 15.0508 92.4842 15.0039C92.4842 14.9453 92.4959 14.8867 92.5194 14.8281C92.7186 14.4062 92.8827 13.8906 93.0116 13.2812ZM95.2088 19.6445C95.2088 19.6797 95.2147 19.709 95.2264 19.7324C95.2498 19.7559 95.2791 19.7676 95.3143 19.7676H103.488C103.769 19.7676 103.998 19.873 104.174 20.084C104.303 20.2363 104.367 20.4004 104.367 20.5762C104.367 20.6465 104.355 20.7168 104.332 20.7871C104.027 21.959 103.67 22.7031 103.26 23.0195C102.931 23.2422 102.48 23.3535 101.906 23.3535C101.754 23.3535 101.584 23.3535 101.396 23.3535C100.928 23.3535 100.359 23.3359 99.6912 23.3008C99.3748 23.2891 99.1522 23.1074 99.0233 22.7559C98.9881 22.6387 98.9998 22.5332 99.0584 22.4395C99.117 22.3457 99.2049 22.2988 99.3221 22.2988C100.107 22.3574 100.851 22.3867 101.555 22.3867C101.918 22.3867 102.17 22.3398 102.31 22.2461C102.592 22.0703 102.832 21.5957 103.031 20.8223C103.043 20.7871 103.037 20.7578 103.014 20.7344C102.99 20.6992 102.961 20.6816 102.926 20.6816H94.9803C94.9334 20.6816 94.9041 20.7051 94.8924 20.752C94.8455 20.8926 94.7577 21.0039 94.6287 21.0859C94.5116 21.1562 94.3827 21.1797 94.242 21.1562L94.1366 21.1387C93.9725 21.1152 93.8553 21.0332 93.785 20.8926C93.7264 20.8105 93.6971 20.7227 93.6971 20.6289C93.6971 20.582 93.7088 20.5293 93.7323 20.4707C93.8612 20.0605 94.0018 19.5742 94.1541 19.0117C94.2362 18.7188 94.3944 18.4785 94.6287 18.291C94.8748 18.1035 95.1502 18.0098 95.4549 18.0098H102.381C102.463 18.0098 102.504 17.9629 102.504 17.8691V17.2012C102.504 17.1074 102.463 17.0605 102.381 17.0605H94.1717C94.0545 17.0605 93.9491 17.0195 93.8553 16.9375C93.7733 16.8555 93.7323 16.7559 93.7323 16.6387C93.7323 16.5215 93.7733 16.4219 93.8553 16.3398C93.9491 16.2461 94.0545 16.1992 94.1717 16.1992H102.715C102.996 16.1992 103.236 16.3047 103.435 16.5156C103.646 16.7148 103.752 16.9551 103.752 17.2363V17.834C103.752 18.1152 103.646 18.3613 103.435 18.5723C103.236 18.7715 102.996 18.8711 102.715 18.8711H95.5604C95.4784 18.8711 95.4256 18.9121 95.4022 18.9941L95.2088 19.6445ZM104.103 13.4219C104.08 13.375 104.068 13.334 104.068 13.2988C104.068 13.2402 104.08 13.1816 104.103 13.123C104.15 13.0293 104.226 12.9648 104.332 12.9297C104.379 12.918 104.426 12.9121 104.472 12.9121C104.531 12.9121 104.59 12.9297 104.648 12.9648C104.754 13.0117 104.83 13.0879 104.877 13.1934C105.088 13.7324 105.258 14.2422 105.387 14.7227C105.398 14.7695 105.404 14.8105 105.404 14.8457C105.404 14.916 105.387 14.9863 105.351 15.0566C105.281 15.1621 105.193 15.2324 105.088 15.2676C105.041 15.2676 105 15.2676 104.965 15.2676C104.894 15.2676 104.83 15.25 104.771 15.2148C104.678 15.1562 104.613 15.0684 104.578 14.9512C104.472 14.4941 104.314 13.9844 104.103 13.4219ZM113.067 11.998C113.067 11.9043 113.026 11.8574 112.944 11.8574H110.835C110.741 11.8574 110.683 11.9043 110.659 11.998C110.296 13.6035 109.95 15.0566 109.622 16.3574C109.61 16.4512 109.64 16.5156 109.71 16.5508C110.39 16.9492 111.011 17.3477 111.573 17.7461C111.644 17.793 111.696 17.7812 111.732 17.7109C112.388 16.1172 112.833 14.2129 113.067 11.998ZM113.419 10.6445C113.56 10.6094 113.7 10.6035 113.841 10.627L114.034 10.6797C114.14 10.7031 114.228 10.7617 114.298 10.8555C114.368 10.9492 114.398 11.0547 114.386 11.1719C114.151 14.1367 113.624 16.5801 112.804 18.502C112.769 18.5723 112.786 18.6367 112.857 18.6953C113.431 19.1523 113.929 19.5977 114.351 20.0312C114.491 20.1719 114.562 20.3477 114.562 20.5586C114.562 20.7461 114.509 20.9102 114.403 21.0508C114.298 21.1914 114.157 21.2676 113.982 21.2793C113.806 21.2793 113.665 21.2148 113.56 21.0859C113.196 20.6992 112.763 20.2949 112.259 19.873C112.189 19.8145 112.13 19.8262 112.083 19.9082C111.345 21.1855 110.407 22.2285 109.271 23.0371C109.118 23.1426 108.948 23.1719 108.761 23.125C108.585 23.0898 108.439 22.9961 108.321 22.8438C108.216 22.7031 108.175 22.5449 108.198 22.3691C108.234 22.2051 108.321 22.0762 108.462 21.9824C109.493 21.3027 110.36 20.3359 111.064 19.082C111.11 19.0117 111.099 18.9473 111.028 18.8887C110.501 18.502 109.939 18.1211 109.341 17.7461C109.294 17.7109 109.265 17.7227 109.253 17.7812L109.235 17.8516C109.189 18.0039 109.089 18.1152 108.937 18.1855C108.796 18.2441 108.655 18.2383 108.515 18.168C108.351 18.0859 108.234 17.9629 108.163 17.7988C108.093 17.623 108.081 17.4473 108.128 17.2715C108.526 15.7949 108.954 14.0371 109.411 11.998C109.423 11.9043 109.388 11.8574 109.306 11.8574H108.339C108.175 11.8574 108.028 11.7988 107.9 11.6816C107.782 11.5645 107.724 11.4238 107.724 11.2598C107.724 11.084 107.782 10.9375 107.9 10.8203C108.028 10.7031 108.175 10.6445 108.339 10.6445H109.552C109.646 10.6445 109.698 10.6035 109.71 10.5215C109.933 9.53711 110.132 8.55859 110.308 7.58594C110.343 7.41016 110.431 7.26953 110.571 7.16406C110.7 7.07031 110.835 7.02344 110.976 7.02344C111.011 7.02344 111.04 7.02344 111.064 7.02344C111.239 7.04688 111.374 7.12891 111.468 7.26953C111.573 7.41016 111.609 7.5625 111.573 7.72656C111.409 8.58203 111.216 9.50781 110.993 10.5039C110.97 10.5977 111.005 10.6445 111.099 10.6445H113.366C113.39 10.6445 113.407 10.6445 113.419 10.6445ZM123.544 14.1602C123.708 14.1602 123.849 14.2188 123.966 14.3359C124.095 14.4531 124.159 14.5996 124.159 14.7754C124.159 14.9395 124.095 15.0859 123.966 15.2148C123.849 15.332 123.708 15.3906 123.544 15.3906H120.011C119.917 15.3906 119.87 15.4375 119.87 15.5312V21.6836C119.87 22.0938 119.812 22.4043 119.694 22.6152C119.589 22.8262 119.396 22.9844 119.114 23.0898C118.728 23.2305 117.989 23.3125 116.9 23.3359C116.9 23.3359 116.894 23.3359 116.882 23.3359C116.694 23.3359 116.519 23.2715 116.355 23.1426C116.191 23.0254 116.073 22.8672 116.003 22.668C115.944 22.5156 115.956 22.375 116.038 22.2461C116.12 22.1172 116.237 22.0527 116.39 22.0527C116.823 22.0645 117.187 22.0703 117.48 22.0703C117.773 22.0703 117.995 22.0645 118.148 22.0527C118.3 22.041 118.405 22.0117 118.464 21.9648C118.523 21.9062 118.552 21.8125 118.552 21.6836V15.5312C118.552 15.4375 118.505 15.3906 118.411 15.3906H114.948C114.784 15.3906 114.638 15.332 114.509 15.2148C114.392 15.0859 114.333 14.9395 114.333 14.7754C114.333 14.5996 114.392 14.4531 114.509 14.3359C114.638 14.2188 114.784 14.1602 114.948 14.1602H118.411C118.505 14.1602 118.552 14.1133 118.552 14.0195V12.2441C118.552 12.1035 118.599 11.9863 118.692 11.8926C118.786 11.7988 118.898 11.752 119.026 11.752C119.062 11.752 119.097 11.7402 119.132 11.7168C119.952 11.0605 120.767 10.2227 121.575 9.20312C121.587 9.17969 121.587 9.15625 121.575 9.13281C121.564 9.10938 121.546 9.09766 121.523 9.09766H115.546C115.37 9.09766 115.224 9.03906 115.107 8.92188C114.989 8.79297 114.931 8.64648 114.931 8.48242C114.931 8.31836 114.989 8.17773 115.107 8.06055C115.224 7.93164 115.37 7.86719 115.546 7.86719H122.595C122.618 7.86719 122.642 7.86719 122.665 7.86719C122.712 7.84375 122.765 7.83203 122.823 7.83203C122.917 7.83203 123.011 7.86719 123.105 7.9375L123.333 8.0957C123.462 8.18945 123.538 8.3125 123.562 8.46484C123.585 8.61719 123.55 8.75195 123.456 8.86914C122.413 10.2637 121.253 11.4648 119.976 12.4727C119.905 12.5195 119.87 12.5898 119.87 12.6836V14.0195C119.87 14.1133 119.917 14.1602 120.011 14.1602H123.544ZM138.344 11.0137C138.356 10.9902 138.35 10.9668 138.327 10.9434C138.315 10.9082 138.291 10.8906 138.256 10.8906H130.838C130.803 10.8906 130.774 10.9023 130.75 10.9258C130.739 10.9492 130.739 10.9785 130.75 11.0137C131.629 13.3926 132.871 15.4141 134.477 17.0781C134.536 17.1367 134.594 17.1367 134.653 17.0781C136.223 15.4492 137.454 13.4277 138.344 11.0137ZM142.528 9.76562C142.657 9.89453 142.721 10.0527 142.721 10.2402C142.721 10.416 142.657 10.5684 142.528 10.6973C142.399 10.8262 142.241 10.8906 142.053 10.8906H140.084C139.991 10.8906 139.926 10.9316 139.891 11.0137C138.883 13.8027 137.477 16.1348 135.672 18.0098C135.614 18.0684 135.62 18.127 135.69 18.1855C137.518 19.6855 139.657 20.7812 142.106 21.4727C142.282 21.5195 142.393 21.6309 142.44 21.8066C142.498 21.9707 142.475 22.1289 142.37 22.2812C142.217 22.4805 142.036 22.6211 141.825 22.7031C141.696 22.7617 141.567 22.791 141.438 22.791C141.344 22.791 141.256 22.7793 141.174 22.7559C138.62 21.9941 136.434 20.8105 134.618 19.2051C134.547 19.1465 134.477 19.1465 134.407 19.2051C132.672 20.6582 130.516 21.8359 127.938 22.7383C127.844 22.7734 127.75 22.791 127.657 22.791C127.551 22.791 127.44 22.7676 127.323 22.7207C127.123 22.627 126.959 22.4863 126.83 22.2988C126.737 22.1582 126.713 22 126.76 21.8242C126.807 21.6484 126.918 21.5312 127.094 21.4727C129.59 20.6758 131.694 19.5918 133.405 18.2207C133.475 18.1621 133.481 18.1035 133.422 18.0449C131.653 16.123 130.27 13.7793 129.274 11.0137C129.239 10.9316 129.174 10.8906 129.08 10.8906H127.217C127.041 10.8906 126.889 10.8262 126.76 10.6973C126.631 10.5684 126.567 10.416 126.567 10.2402C126.567 10.0527 126.631 9.89453 126.76 9.76562C126.889 9.63672 127.041 9.57227 127.217 9.57227H133.756C133.85 9.57227 133.897 9.53125 133.897 9.44922V7.19922C133.897 7.02344 133.961 6.87109 134.09 6.74219C134.231 6.60156 134.389 6.53125 134.565 6.53125C134.752 6.53125 134.911 6.60156 135.039 6.74219C135.18 6.87109 135.25 7.02344 135.25 7.19922V9.44922C135.25 9.53125 135.291 9.57227 135.373 9.57227H142.053C142.241 9.57227 142.399 9.63672 142.528 9.76562ZM149.716 7.83203C149.799 7.66797 149.927 7.54492 150.103 7.46289C150.279 7.38086 150.455 7.375 150.631 7.44531C150.806 7.50391 150.929 7.61523 151 7.7793C151.07 7.94336 151.07 8.10742 151 8.27148C150.519 9.30273 149.968 10.3105 149.347 11.2949C149.3 11.3652 149.277 11.4414 149.277 11.5234V22.6504C149.277 22.8379 149.207 22.9961 149.066 23.125C148.937 23.2656 148.779 23.3359 148.591 23.3359C148.404 23.3359 148.246 23.2656 148.117 23.125C147.988 22.9961 147.924 22.8379 147.924 22.6504V13.4219C147.924 13.3984 147.912 13.3867 147.888 13.3867C147.865 13.375 147.847 13.375 147.836 13.3867C147.285 14.0898 146.722 14.7227 146.148 15.2852C146.007 15.4258 145.838 15.4785 145.638 15.4434C145.451 15.4082 145.304 15.3027 145.199 15.127C145.105 14.9746 145.058 14.8164 145.058 14.6523C145.058 14.6055 145.064 14.5586 145.076 14.5117C145.099 14.2891 145.193 14.1016 145.357 13.9492C146.213 13.1641 147.015 12.2383 147.765 11.1719C148.527 10.1055 149.177 8.99219 149.716 7.83203ZM155.605 21.8594H159.121C159.554 21.8594 159.853 21.6895 160.017 21.3496C160.181 21.0098 160.293 20.3242 160.351 19.293C160.363 19.1406 160.439 19.0293 160.58 18.959C160.72 18.877 160.861 18.8711 161.002 18.9414C161.201 19.0234 161.359 19.1523 161.476 19.3281C161.57 19.4688 161.617 19.6211 161.617 19.7852C161.617 20.8984 161.388 21.7773 160.931 22.4219C160.603 22.8789 160.029 23.1074 159.209 23.1074H155.517C154.568 23.1074 153.924 22.9316 153.584 22.5801C153.244 22.2402 153.074 21.584 153.074 20.6113V8.04297C153.074 7.85547 153.138 7.69727 153.267 7.56836C153.396 7.42773 153.554 7.35742 153.742 7.35742C153.929 7.35742 154.088 7.42773 154.216 7.56836C154.345 7.69727 154.41 7.85547 154.41 8.04297V13.9316C154.41 13.9551 154.422 13.9785 154.445 14.002C154.48 14.0137 154.509 14.0137 154.533 14.002C156.349 12.9707 157.914 11.9102 159.226 10.8203C159.367 10.7031 159.525 10.6445 159.701 10.6445C159.724 10.6445 159.748 10.6445 159.771 10.6445C159.982 10.668 160.152 10.7559 160.281 10.9082C160.386 11.0488 160.439 11.2012 160.439 11.3652C160.439 11.6113 160.345 11.8047 160.158 11.9453C158.881 12.8945 157.006 14.0312 154.533 15.3555C154.451 15.3906 154.41 15.4551 154.41 15.5488V20.6289C154.41 21.1328 154.486 21.4668 154.638 21.6309C154.791 21.7832 155.113 21.8594 155.605 21.8594Z" fill="white"/>
<path d="M36.3926 37.1143C35.5547 37.1143 34.8662 36.8096 34.3271 36.2002C33.7881 35.585 33.5186 34.7529 33.5186 33.7041C33.5186 32.6611 33.791 31.8291 34.3359 31.208C34.8867 30.5869 35.5898 30.2764 36.4453 30.2764C37.0254 30.2764 37.5439 30.4668 38.001 30.8477C38.083 30.918 38.124 31.0088 38.124 31.1201C38.124 31.2139 38.0918 31.2959 38.0273 31.3662C37.9688 31.4365 37.8926 31.4746 37.7988 31.4805C37.7051 31.4863 37.623 31.457 37.5527 31.3926C37.2246 31.1348 36.8584 31.0059 36.4541 31.0059C35.8271 31.0059 35.3232 31.2461 34.9424 31.7266C34.5674 32.207 34.3799 32.8574 34.3799 33.6777C34.3799 34.5098 34.5645 35.1689 34.9336 35.6553C35.3027 36.1416 35.8008 36.3848 36.4277 36.3848C36.9023 36.3848 37.3301 36.2207 37.7109 35.8926C37.7812 35.8281 37.8633 35.7988 37.957 35.8047C38.0508 35.8047 38.127 35.8398 38.1855 35.9102C38.25 35.9805 38.2822 36.0654 38.2822 36.165C38.2822 36.2705 38.2471 36.3555 38.1768 36.4199C37.6787 36.8828 37.084 37.1143 36.3926 37.1143ZM44.5594 37.1143C44.2078 37.1143 43.8943 37.0645 43.6189 36.9648C43.3436 36.8652 43.0945 36.71 42.8719 36.499C42.6551 36.2822 42.4852 35.9863 42.3621 35.6113C42.2449 35.2363 42.1863 34.791 42.1863 34.2754V30.8213C42.1863 30.7041 42.2273 30.6045 42.3094 30.5225C42.3914 30.4404 42.491 30.3994 42.6082 30.3994C42.7254 30.3994 42.825 30.4404 42.907 30.5225C42.9891 30.6045 43.0301 30.7041 43.0301 30.8213V34.3018C43.0301 35.6904 43.5398 36.3848 44.5594 36.3848C45.6082 36.3848 46.1326 35.6904 46.1326 34.3018V30.8037C46.1326 30.6924 46.1707 30.5986 46.2469 30.5225C46.3289 30.4404 46.4227 30.3994 46.5281 30.3994C46.6395 30.3994 46.7332 30.4404 46.8094 30.5225C46.8914 30.5986 46.9324 30.6924 46.9324 30.8037V34.2754C46.9324 34.791 46.8709 35.2363 46.7479 35.6113C46.6307 35.9863 46.4637 36.2822 46.2469 36.499C46.0301 36.71 45.7811 36.8652 45.4998 36.9648C45.2244 37.0645 44.9109 37.1143 44.5594 37.1143ZM51.9176 37C51.777 37 51.6539 36.9502 51.5484 36.8506C51.4488 36.7451 51.399 36.6221 51.399 36.4814V30.8213C51.399 30.7041 51.44 30.6045 51.5221 30.5225C51.6041 30.4404 51.7037 30.3994 51.8209 30.3994C51.9381 30.3994 52.0377 30.4404 52.1197 30.5225C52.2018 30.6045 52.2428 30.7041 52.2428 30.8213V36.2266C52.2428 36.2676 52.2633 36.2881 52.3043 36.2881H54.7652C54.8648 36.2881 54.9469 36.3232 55.0113 36.3936C55.0816 36.4639 55.1168 36.5488 55.1168 36.6484C55.1168 36.7422 55.0816 36.8242 55.0113 36.8945C54.9469 36.9648 54.8648 37 54.7652 37H51.9176ZM59.9877 36.877C59.9057 36.959 59.8061 37 59.6889 37C59.5775 37 59.4809 36.959 59.3988 36.877C59.3168 36.7949 59.2758 36.6953 59.2758 36.5781V31.1729C59.2758 31.126 59.2553 31.1025 59.2143 31.1025H57.6322C57.5326 31.1025 57.4477 31.0703 57.3773 31.0059C57.3129 30.9355 57.2807 30.8535 57.2807 30.7598C57.2807 30.6602 57.3129 30.5752 57.3773 30.5049C57.4477 30.4346 57.5326 30.3994 57.6322 30.3994H61.7631C61.8568 30.3994 61.9389 30.4346 62.0092 30.5049C62.0795 30.5752 62.1146 30.6602 62.1146 30.7598C62.1146 30.8535 62.0795 30.9355 62.0092 31.0059C61.9389 31.0703 61.8568 31.1025 61.7631 31.1025H60.1811C60.1342 31.1025 60.1107 31.126 60.1107 31.1729V36.5781C60.1107 36.6953 60.0697 36.7949 59.9877 36.877ZM68.3303 37.1143C67.9787 37.1143 67.6652 37.0645 67.3898 36.9648C67.1145 36.8652 66.8654 36.71 66.6428 36.499C66.426 36.2822 66.2561 35.9863 66.133 35.6113C66.0158 35.2363 65.9572 34.791 65.9572 34.2754V30.8213C65.9572 30.7041 65.9982 30.6045 66.0803 30.5225C66.1623 30.4404 66.2619 30.3994 66.3791 30.3994C66.4963 30.3994 66.5959 30.4404 66.6779 30.5225C66.76 30.6045 66.801 30.7041 66.801 30.8213V34.3018C66.801 35.6904 67.3107 36.3848 68.3303 36.3848C69.3791 36.3848 69.9035 35.6904 69.9035 34.3018V30.8037C69.9035 30.6924 69.9416 30.5986 70.0178 30.5225C70.0998 30.4404 70.1936 30.3994 70.299 30.3994C70.4104 30.3994 70.5041 30.4404 70.5803 30.5225C70.6623 30.5986 70.7033 30.6924 70.7033 30.8037V34.2754C70.7033 34.791 70.6418 35.2363 70.5187 35.6113C70.4016 35.9863 70.2346 36.2822 70.0178 36.499C69.801 36.71 69.552 36.8652 69.2707 36.9648C68.9953 37.0645 68.6818 37.1143 68.3303 37.1143ZM76.0752 31.0762C76.0342 31.0762 76.0137 31.0996 76.0137 31.1465V33.458C76.0137 33.5049 76.0342 33.5283 76.0752 33.5283H77.1211C78.1875 33.5283 78.7207 33.1035 78.7207 32.2539C78.7207 31.832 78.5859 31.5303 78.3164 31.3486C78.0527 31.167 77.6543 31.0762 77.1211 31.0762H76.0752ZM79.5029 36.5957C79.5322 36.6367 79.5469 36.6807 79.5469 36.7275C79.5469 36.7744 79.5352 36.8213 79.5117 36.8682C79.459 36.9561 79.3799 37 79.2744 37C79.1279 37 78.9902 36.9648 78.8613 36.8945C78.7383 36.8184 78.6387 36.7158 78.5625 36.5869L77.2354 34.2578C77.2119 34.2227 77.1768 34.2051 77.1299 34.2051H76.0752C76.0342 34.2051 76.0137 34.2256 76.0137 34.2666V36.5781C76.0137 36.6953 75.9727 36.7949 75.8906 36.877C75.8086 36.959 75.709 37 75.5918 37C75.4746 37 75.375 36.959 75.293 36.877C75.2109 36.7949 75.1699 36.6953 75.1699 36.5781V30.918C75.1699 30.7773 75.2197 30.6572 75.3193 30.5576C75.4248 30.4521 75.5479 30.3994 75.6885 30.3994H77.2441C78.7793 30.3994 79.5469 31.0176 79.5469 32.2539C79.5469 32.7402 79.4209 33.1387 79.1689 33.4492C78.917 33.7598 78.5654 33.9736 78.1143 34.0908C78.0732 34.1025 78.0645 34.1289 78.0879 34.1699L79.5029 36.5957ZM84.1014 37C83.9607 37 83.8377 36.9502 83.7322 36.8506C83.6326 36.7451 83.5828 36.6221 83.5828 36.4814V30.918C83.5828 30.7773 83.6326 30.6572 83.7322 30.5576C83.8377 30.4521 83.9607 30.3994 84.1014 30.3994H87.0457C87.1395 30.3994 87.2215 30.4346 87.2918 30.5049C87.3621 30.5752 87.3973 30.6602 87.3973 30.7598C87.3973 30.8535 87.3621 30.9355 87.2918 31.0059C87.2215 31.0703 87.1395 31.1025 87.0457 31.1025H84.4881C84.4471 31.1025 84.4266 31.126 84.4266 31.1729V33.1064C84.4266 33.1533 84.4471 33.1768 84.4881 33.1768H86.5711C86.6707 33.1768 86.7527 33.2119 86.8172 33.2822C86.8875 33.3467 86.9227 33.4287 86.9227 33.5283C86.9227 33.6279 86.8875 33.7129 86.8172 33.7832C86.7527 33.8535 86.6707 33.8887 86.5711 33.8887H84.4881C84.4471 33.8887 84.4266 33.9092 84.4266 33.9502V36.2266C84.4266 36.2676 84.4471 36.2881 84.4881 36.2881H87.1336C87.2332 36.2881 87.3182 36.3232 87.3885 36.3936C87.4588 36.4639 87.4939 36.5488 87.4939 36.6484C87.4939 36.7422 87.4588 36.8242 87.3885 36.8945C87.3182 36.9648 87.2332 37 87.1336 37H84.1014ZM97.0072 36.877C96.9252 36.959 96.8256 37 96.7084 37C96.5912 37 96.4916 36.959 96.4096 36.877C96.3275 36.7949 96.2865 36.6953 96.2865 36.5781V30.8213C96.2865 30.7041 96.3275 30.6045 96.4096 30.5225C96.4916 30.4404 96.5912 30.3994 96.7084 30.3994C96.8256 30.3994 96.9252 30.4404 97.0072 30.5225C97.0893 30.6045 97.1303 30.7041 97.1303 30.8213V36.5781C97.1303 36.6953 97.0893 36.7949 97.0072 36.877ZM102.3 36.8857C102.224 36.9619 102.13 37 102.019 37C101.913 37 101.82 36.9619 101.738 36.8857C101.661 36.8096 101.623 36.7158 101.623 36.6045V30.8389C101.623 30.7158 101.664 30.6133 101.746 30.5312C101.834 30.4434 101.94 30.3994 102.063 30.3994C102.192 30.3994 102.315 30.4346 102.432 30.5049C102.549 30.5693 102.64 30.6602 102.704 30.7773L104.893 34.5566L105.587 35.9014C105.593 35.9131 105.602 35.9189 105.613 35.9189C105.631 35.9189 105.64 35.9131 105.64 35.9014C105.57 34.8525 105.534 34.1641 105.534 33.8359V30.7949C105.534 30.6895 105.572 30.5986 105.649 30.5225C105.725 30.4404 105.819 30.3994 105.93 30.3994C106.041 30.3994 106.135 30.4404 106.211 30.5225C106.287 30.5986 106.325 30.6895 106.325 30.7949V36.5693C106.325 36.6924 106.281 36.7949 106.194 36.877C106.112 36.959 106.012 37 105.895 37C105.766 37 105.643 36.9678 105.526 36.9033C105.414 36.833 105.323 36.7422 105.253 36.6309L103.065 32.834L102.362 31.4893C102.356 31.4775 102.347 31.4717 102.335 31.4717C102.323 31.4717 102.318 31.4775 102.318 31.4893C102.323 31.6006 102.335 31.8086 102.353 32.1133C102.376 32.418 102.394 32.6816 102.405 32.9043C102.417 33.1211 102.423 33.332 102.423 33.5371V36.6045C102.423 36.7158 102.382 36.8096 102.3 36.8857ZM117.623 36.877C117.541 36.959 117.441 37 117.324 37C117.213 37 117.116 36.959 117.034 36.877C116.952 36.7949 116.911 36.6953 116.911 36.5781V31.1729C116.911 31.126 116.89 31.1025 116.849 31.1025H115.267C115.168 31.1025 115.083 31.0703 115.012 31.0059C114.948 30.9355 114.916 30.8535 114.916 30.7598C114.916 30.6602 114.948 30.5752 115.012 30.5049C115.083 30.4346 115.168 30.3994 115.267 30.3994H119.398C119.492 30.3994 119.574 30.4346 119.644 30.5049C119.715 30.5752 119.75 30.6602 119.75 30.7598C119.75 30.8535 119.715 30.9355 119.644 31.0059C119.574 31.0703 119.492 31.1025 119.398 31.1025H117.816C117.769 31.1025 117.746 31.126 117.746 31.1729V36.5781C117.746 36.6953 117.705 36.7949 117.623 36.877ZM124.102 34.2578C124.096 34.2695 124.096 34.2842 124.102 34.3018C124.114 34.3135 124.129 34.3193 124.146 34.3193H126.009C126.027 34.3193 126.042 34.3135 126.053 34.3018C126.065 34.2842 126.068 34.2695 126.062 34.2578L125.763 33.3086C125.582 32.7578 125.362 32.0195 125.104 31.0938C125.098 31.082 125.089 31.0762 125.078 31.0762C125.066 31.0762 125.06 31.082 125.06 31.0938C124.896 31.7031 124.676 32.4414 124.401 33.3086L124.102 34.2578ZM127.354 37C127.225 37 127.108 36.9619 127.003 36.8857C126.897 36.8037 126.824 36.7012 126.783 36.5781L126.308 35.0488C126.291 35.0078 126.261 34.9873 126.22 34.9873H123.944C123.897 34.9873 123.868 35.0078 123.856 35.0488L123.364 36.5957C123.323 36.7188 123.253 36.8184 123.153 36.8945C123.053 36.9648 122.939 37 122.81 37C122.705 37 122.623 36.959 122.564 36.877C122.529 36.8184 122.511 36.7598 122.511 36.7012C122.511 36.666 122.517 36.6309 122.529 36.5957L124.48 30.8389C124.527 30.71 124.606 30.6045 124.717 30.5225C124.829 30.4404 124.952 30.3994 125.087 30.3994C125.227 30.3994 125.353 30.4404 125.464 30.5225C125.582 30.6045 125.661 30.71 125.702 30.8389L127.653 36.5781C127.665 36.6191 127.671 36.6572 127.671 36.6924C127.671 36.751 127.653 36.8096 127.618 36.8682C127.553 36.9561 127.465 37 127.354 37ZM132.137 36.877C132.055 36.959 131.955 37 131.838 37C131.721 37 131.621 36.959 131.539 36.877C131.457 36.7949 131.416 36.6953 131.416 36.5781V30.8213C131.416 30.7041 131.457 30.6045 131.539 30.5225C131.621 30.4404 131.721 30.3994 131.838 30.3994C131.955 30.3994 132.055 30.4404 132.137 30.5225C132.219 30.6045 132.26 30.7041 132.26 30.8213V36.5781C132.26 36.6953 132.219 36.7949 132.137 36.877ZM138.37 36.8682C138.253 36.9561 138.121 37 137.975 37C137.834 37 137.708 36.9561 137.597 36.8682C137.486 36.7744 137.415 36.6572 137.386 36.5166L136.173 30.8213C136.167 30.7979 136.164 30.7715 136.164 30.7422C136.164 30.666 136.191 30.5957 136.243 30.5312C136.314 30.4434 136.404 30.3994 136.516 30.3994C136.639 30.3994 136.747 30.4404 136.841 30.5225C136.941 30.6045 137.002 30.707 137.026 30.8301L137.641 33.9941C137.682 34.2285 137.743 34.583 137.825 35.0576C137.913 35.5264 137.978 35.8779 138.019 36.1123C138.025 36.124 138.033 36.1299 138.045 36.1299C138.057 36.1299 138.063 36.124 138.063 36.1123C138.168 35.6377 138.326 34.9316 138.537 33.9941L139.355 30.7686C139.384 30.6631 139.443 30.5752 139.53 30.5049C139.618 30.4346 139.718 30.3994 139.829 30.3994C139.941 30.3994 140.04 30.4346 140.128 30.5049C140.216 30.5752 140.272 30.6631 140.295 30.7686L141.13 33.9941C141.253 34.5273 141.408 35.2305 141.596 36.1035C141.596 36.1211 141.602 36.1299 141.613 36.1299C141.631 36.1299 141.643 36.1211 141.649 36.1035C141.772 35.3945 141.895 34.6914 142.018 33.9941L142.642 30.7949C142.659 30.6836 142.712 30.5898 142.8 30.5137C142.894 30.4375 142.999 30.3994 143.116 30.3994C143.222 30.3994 143.307 30.4404 143.371 30.5225C143.418 30.5811 143.442 30.6484 143.442 30.7246C143.442 30.748 143.439 30.7715 143.433 30.7949L142.246 36.5078C142.217 36.6543 142.147 36.7744 142.035 36.8682C141.924 36.9561 141.795 37 141.649 37C141.502 37 141.37 36.9561 141.253 36.8682C141.136 36.7744 141.06 36.6572 141.025 36.5166L140.146 33.0186C140.116 32.8779 140.011 32.3828 139.829 31.5332C139.829 31.5215 139.821 31.5156 139.803 31.5156C139.791 31.5156 139.785 31.5215 139.785 31.5332C139.756 31.6738 139.703 31.9111 139.627 32.2451C139.551 32.5732 139.495 32.8311 139.46 33.0186L138.59 36.5166C138.561 36.6572 138.488 36.7744 138.37 36.8682ZM148.198 34.2578C148.192 34.2695 148.192 34.2842 148.198 34.3018C148.21 34.3135 148.225 34.3193 148.242 34.3193H150.105C150.123 34.3193 150.138 34.3135 150.149 34.3018C150.161 34.2842 150.164 34.2695 150.158 34.2578L149.859 33.3086C149.678 32.7578 149.458 32.0195 149.2 31.0938C149.194 31.082 149.186 31.0762 149.174 31.0762C149.162 31.0762 149.156 31.082 149.156 31.0938C148.992 31.7031 148.772 32.4414 148.497 33.3086L148.198 34.2578ZM151.45 37C151.321 37 151.204 36.9619 151.099 36.8857C150.993 36.8037 150.92 36.7012 150.879 36.5781L150.404 35.0488C150.387 35.0078 150.357 34.9873 150.316 34.9873H148.04C147.993 34.9873 147.964 35.0078 147.952 35.0488L147.46 36.5957C147.419 36.7188 147.349 36.8184 147.249 36.8945C147.149 36.9648 147.035 37 146.906 37C146.801 37 146.719 36.959 146.66 36.877C146.625 36.8184 146.607 36.7598 146.607 36.7012C146.607 36.666 146.613 36.6309 146.625 36.5957L148.576 30.8389C148.623 30.71 148.702 30.6045 148.813 30.5225C148.925 30.4404 149.048 30.3994 149.183 30.3994C149.323 30.3994 149.449 30.4404 149.561 30.5225C149.678 30.6045 149.757 30.71 149.798 30.8389L151.749 36.5781C151.761 36.6191 151.767 36.6572 151.767 36.6924C151.767 36.751 151.749 36.8096 151.714 36.8682C151.649 36.9561 151.562 37 151.45 37ZM156.189 36.8857C156.113 36.9619 156.019 37 155.908 37C155.803 37 155.709 36.9619 155.627 36.8857C155.551 36.8096 155.512 36.7158 155.512 36.6045V30.8389C155.512 30.7158 155.554 30.6133 155.636 30.5312C155.723 30.4434 155.829 30.3994 155.952 30.3994C156.081 30.3994 156.204 30.4346 156.321 30.5049C156.438 30.5693 156.529 30.6602 156.594 30.7773L158.782 34.5566L159.476 35.9014C159.482 35.9131 159.491 35.9189 159.503 35.9189C159.52 35.9189 159.529 35.9131 159.529 35.9014C159.459 34.8525 159.424 34.1641 159.424 33.8359V30.7949C159.424 30.6895 159.462 30.5986 159.538 30.5225C159.614 30.4404 159.708 30.3994 159.819 30.3994C159.93 30.3994 160.024 30.4404 160.1 30.5225C160.177 30.5986 160.215 30.6895 160.215 30.7949V36.5693C160.215 36.6924 160.171 36.7949 160.083 36.877C160.001 36.959 159.901 37 159.784 37C159.655 37 159.532 36.9678 159.415 36.9033C159.304 36.833 159.213 36.7422 159.142 36.6309L156.954 32.834L156.251 31.4893C156.245 31.4775 156.236 31.4717 156.224 31.4717C156.213 31.4717 156.207 31.4775 156.207 31.4893C156.213 31.6006 156.224 31.8086 156.242 32.1133C156.265 32.418 156.283 32.6816 156.295 32.9043C156.306 33.1211 156.312 33.332 156.312 33.5371V36.6045C156.312 36.7158 156.271 36.8096 156.189 36.8857Z" fill="white"/>
</svg>
