<svg width="192" height="200" viewBox="0 0 192 200" fill="none" xmlns="http://www.w3.org/2000/svg">
<path d="M88.6682 24.0994C94.8959 24.0994 99.9444 19.0508 99.9444 12.8231C99.9444 6.59542 94.8959 1.54688 88.6682 1.54688C82.4405 1.54688 77.392 6.59542 77.392 12.8231C77.392 19.0508 82.4405 24.0994 88.6682 24.0994Z" fill="#FFA931"/>
<path d="M99.5668 9.92517C99.2458 8.71398 98.7242 7.5651 98.0236 6.52622C96.359 10.2631 93.7316 13.5734 90.4398 16.0052C87.4436 18.2187 83.9133 19.6932 80.2408 20.3121C81.9581 22.2431 84.3278 23.5804 87.005 23.9762C87.3334 23.824 87.6586 23.6652 87.9804 23.4997C93.4343 20.6795 97.5215 15.6806 99.5666 9.92496L99.5668 9.92517ZM93.2366 2.514C92.3748 2.13152 91.4681 1.8594 90.5381 1.7041C88.8878 4.70979 86.5966 7.36559 83.8381 9.40349C81.8817 10.8488 79.6964 11.9761 77.3937 12.7593C77.3937 12.7806 77.392 12.8018 77.392 12.8233C77.3896 14.6662 77.8413 16.4814 78.7069 18.1084C79.6147 17.7429 80.5092 17.3479 81.3787 16.8982C87.0865 13.9464 91.2969 8.60833 93.2366 2.514ZM189.884 129.105C188.918 115.692 178.372 101.736 162.027 94.2557C145.682 86.7759 128.226 87.918 117.445 95.9544L189.884 129.105Z" fill="#F5A96E"/>
<path d="M178.76 124.014C179.598 111.427 173.352 99.4381 162.027 94.2555C150.702 89.073 137.547 92.1831 128.569 101.045L178.76 124.014Z" fill="white"/>
<path d="M166.525 118.415C169.347 106.736 167.831 96.9113 162.027 94.2555C156.223 91.5995 147.797 96.874 140.804 106.644L166.525 118.415H166.525Z" fill="#F5A96E"/>
<path d="M189.884 129.104C190.651 127.428 175.056 118.648 155.053 109.494C135.049 100.34 118.211 94.2778 117.444 95.9541C116.677 97.6304 132.271 106.41 152.275 115.564C172.278 124.718 189.116 130.78 189.884 129.104Z" fill="#EC6800"/>
<path d="M153.99 109.007L156.117 109.981L115.235 199.317C115.106 199.599 114.87 199.818 114.579 199.927C114.288 200.035 113.966 200.023 113.684 199.894C113.402 199.765 113.183 199.529 113.075 199.238C112.967 198.947 112.978 198.625 113.107 198.343L153.99 109.007ZM80.8073 40.0807C80.368 39.7184 79.8633 39.4426 79.3117 39.2936C77.848 38.898 76.7292 39.8081 75.336 39.9658C73.9667 40.1207 72.6705 39.7854 71.4227 40.5801C70.0755 41.438 69.2237 42.9212 68.8039 44.4622C68.5065 45.5544 68.6972 46.8746 68.3521 47.9081C68.0492 48.8159 67.7248 48.7123 66.837 49.0098C65.1315 49.5812 63.6721 50.7515 63.0005 52.4589C62.5565 53.5879 62.4675 54.8519 61.8776 55.9121C60.7688 57.9054 58.1658 58.7189 57.1043 60.7376C56.1767 62.5018 56.7557 64.8056 58.1483 66.2318C59.541 67.6579 61.5833 68.2995 63.5747 68.3848C65.566 68.4701 67.5412 68.0549 69.4911 67.6419C72.3429 67.0379 75.4412 66.2842 77.2151 63.9709C78.7469 61.9732 78.9149 59.2894 79.1764 56.7856C79.3564 55.0618 79.6616 53.3281 80.477 51.7803C80.9259 50.9286 81.4663 50.2938 81.7762 49.397C82.1663 48.2679 82.4806 47.0746 82.6315 45.889C82.8014 44.5553 82.7229 43.1618 82.1859 41.9292C81.877 41.2203 81.4021 40.5708 80.8073 40.0803V40.0807Z" fill="#573957"/>
<path d="M88.7682 53.8793C88.7682 53.8793 95.3754 50.9888 97.8531 47.2721C100.331 43.5557 113.27 13.1354 113.545 12.0343C113.82 10.9331 113.235 7.5436 113.855 7.13055C114.474 6.71749 114.835 7.59518 114.835 7.59518C114.835 7.59518 116.487 0.781687 117.313 0.368634C118.139 -0.0442093 116.487 6.76928 116.487 6.76928C116.487 6.76928 118.397 0.265476 118.965 0.00736984C119.533 -0.250736 118.139 6.35644 118.139 6.35644C118.139 6.35644 119.739 1.76253 120.101 1.50443C120.462 1.24632 119.378 6.71791 119.378 6.71791C119.378 6.71791 120.41 4.80801 120.617 4.75643C120.823 4.70485 120.771 5.99517 120.255 7.2857C119.739 8.57623 118.552 10.4343 118.191 12.1895C117.829 13.9447 113.069 38.5319 103.428 60.349C99.8177 68.5181 99.2295 72.5998 99.3672 74.5267C99.5049 76.4539 100.681 85.9516 100.681 85.9516L67.9467 89.8057L67.5018 79.1379C67.5018 79.1379 57.6599 84.2996 52.4294 84.2996C47.1988 84.2996 18.8432 67.2313 13.475 64.0654C8.10674 60.8995 6.93663 61.1404 6.07642 61.0715C5.21621 61.0027 3.52989 60.8995 3.59873 60.5898C3.66757 60.2801 3.46104 59.9359 4.7 60.0393C5.93895 60.1427 6.17979 59.9361 6.17979 59.9361C6.17979 59.9361 0.708196 58.2844 0.605038 57.8715C0.50188 57.4587 0.845881 57.321 1.12125 57.3553C1.39662 57.3896 6.0421 58.6974 6.0421 58.6974C6.0421 58.6974 0.123141 56.4262 0.0199831 56.082C-0.083175 55.7378 0.22651 55.325 0.639353 55.4281C1.0522 55.5313 6.00758 57.1831 6.00758 57.1831C6.00758 57.1831 2.0503 55.4281 1.94694 55.0839C1.84357 54.7397 1.94694 54.5334 2.11894 54.5334C2.29094 54.5334 7.41832 56.426 7.41832 56.426C7.41832 56.426 6.86779 54.7742 7.21179 54.6022C7.55579 54.4302 8.27853 55.1528 8.65706 55.8755C9.03559 56.5982 46.1317 70.8791 50.158 70.5694C54.1841 70.2598 63.3669 62.1111 65.6433 60.762C73.0764 56.3574 88.7682 53.8797 88.7682 53.8797V53.8793ZM113 118.711C113 118.711 145.141 185.333 146.93 187.535C148.72 189.738 155.052 192.353 155.74 193.73C156.428 195.106 153.4 194.831 153.4 194.831C153.4 194.831 143.765 192.904 143.352 191.665C142.939 190.426 143.627 188.224 143.214 187.948C142.801 187.673 88.2238 118.712 88.2238 118.712L113 118.711ZM64.3361 114.104C64.3361 114.104 60.5566 119.744 57.4593 118.711C54.362 117.679 26.2819 88.9796 24.6304 87.9472C22.9786 86.9147 15.752 86.2954 14.5133 86.7084C13.2745 87.1215 14.1004 87.7408 14.5133 88.1537C14.9261 88.5665 21.3268 91.595 21.3268 91.595C21.3268 91.595 54.6064 140.361 65.7183 140.598C76.2484 140.822 84.9252 127.177 84.9252 127.177C84.9252 127.177 76.9943 116.724 64.3361 114.104Z" fill="#FFCBB3"/>
<path d="M102.333 89.8057C102.333 89.8057 105.154 101.368 113.001 118.712C113.001 118.712 102.333 127.383 88.2238 121.602L84.9253 127.177C84.9253 127.177 69.9109 125.874 64.3362 114.105C64.3362 114.105 68.8154 106.53 68.2659 99.8539C67.8122 94.3421 102.333 89.8057 102.333 89.8057Z" fill="#4DAAB0"/>
<path d="M96.7819 105.497L88.2238 121.602C89.3001 122.042 90.4034 122.413 91.5269 122.712L96.7819 105.497Z" fill="#4DAAB0"/>
<path d="M70.6343 59.0019C70.6343 59.0019 75.2088 56.0762 75.5728 55.3265C75.9368 54.5768 74.9166 52.2002 74.7669 51.8337C74.6173 51.4671 72.2017 49.1339 72.6722 48.5602C73.1427 47.9865 74.2705 49.2825 74.928 49.5339C75.5855 49.7852 74.6128 46.6692 74.936 46.3292C75.2592 45.9892 75.2678 46.3208 76.7766 45.9124C78.2855 45.504 78.8002 43.6524 79.2303 43.4884C79.6604 43.3244 82.215 50.4783 82.252 50.937C82.2891 51.3958 80.3672 52.6318 80.4392 52.949C80.5112 53.2663 80.9415 54.5777 81.3019 54.6962C81.6623 54.8147 87.3743 54.2581 87.3743 54.2581C87.3743 54.2581 83.9611 62.9017 80.5432 62.5415C77.1253 62.1813 70.6341 59.0019 70.6341 59.0019H70.6343Z" fill="#FFCBB3"/>
<path d="M76.8504 48.202C77.0163 48.1486 77.0764 47.8742 76.9847 47.5891C76.893 47.304 76.6841 47.1161 76.5182 47.1695C76.3523 47.2228 76.2921 47.4973 76.3839 47.7824C76.4756 48.0675 76.6844 48.2554 76.8504 48.202Z" fill="#3D2A36"/>
<path d="M77.1485 46.9087C77.1269 46.9177 77.1032 46.9204 77.0801 46.9167C76.8373 46.8769 76.3354 46.8904 75.6988 47.4232C75.6862 47.4338 75.6716 47.4418 75.6559 47.4467C75.6401 47.4516 75.6236 47.4534 75.6072 47.4519C75.5908 47.4505 75.5749 47.4458 75.5603 47.4381C75.5457 47.4305 75.5327 47.4201 75.5222 47.4075C75.5116 47.3948 75.5036 47.3802 75.4987 47.3645C75.4938 47.3488 75.492 47.3323 75.4935 47.3159C75.4949 47.2995 75.4996 47.2835 75.5073 47.2689C75.5149 47.2543 75.5253 47.2414 75.538 47.2308C76.2506 46.6338 76.8359 46.6226 77.1207 46.6691C77.1475 46.6737 77.1722 46.6868 77.1909 46.7065C77.2097 46.7263 77.2215 46.7516 77.2246 46.7786C77.2278 46.8056 77.222 46.833 77.2083 46.8565C77.1946 46.88 77.1736 46.8982 77.1485 46.9087Z" fill="#3D2A36"/>
<path d="M79.5722 47.2186C79.7381 47.1652 79.7982 46.8908 79.7065 46.6057C79.6148 46.3206 79.4059 46.1327 79.24 46.1861C79.0741 46.2394 79.0139 46.5139 79.1057 46.799C79.1974 47.0841 79.4062 47.272 79.5722 47.2186Z" fill="#3D2A36"/>
<path d="M79.8703 45.9253C79.8487 45.9343 79.825 45.937 79.8019 45.9333C79.5591 45.8935 79.0572 45.907 78.4206 46.4398C78.408 46.4504 78.3934 46.4584 78.3777 46.4633C78.3619 46.4682 78.3454 46.47 78.329 46.4685C78.3126 46.4671 78.2967 46.4624 78.2821 46.4548C78.2675 46.4471 78.2545 46.4367 78.244 46.4241C78.2334 46.4114 78.2254 46.3968 78.2205 46.3811C78.2156 46.3654 78.2138 46.3489 78.2153 46.3325C78.2167 46.3161 78.2214 46.3001 78.2291 46.2855C78.2367 46.2709 78.2471 46.258 78.2598 46.2474C78.9724 45.6504 79.5577 45.6392 79.8425 45.6857C79.8693 45.6903 79.894 45.7034 79.9127 45.7231C79.9315 45.7429 79.9433 45.7682 79.9464 45.7952C79.9496 45.8222 79.9438 45.8496 79.9301 45.8731C79.9164 45.8966 79.8954 45.9148 79.8703 45.9253Z" fill="#3D2A36"/>
<path d="M80.6688 53.6605C80.554 53.358 80.4677 53.0748 80.4391 52.9487C79.7597 53.3367 77.9635 54.686 77.9635 54.686L80.6688 53.6605Z" fill="#CF7A63"/>
<path d="M74.4445 50.6778L74.4311 50.6801C74.3978 50.684 74.3645 50.6745 74.3382 50.6538C74.312 50.633 74.295 50.6028 74.2911 50.5696C74.173 49.5689 73.441 49.3864 73.3348 49.3934C73.2698 49.423 73.209 49.3896 73.1805 49.326C73.1523 49.2624 73.1932 49.1843 73.257 49.1559C73.349 49.1136 73.5839 49.1713 73.7866 49.2864C74.0298 49.4245 74.4508 49.7708 74.5416 50.5401C74.5452 50.571 74.5373 50.6021 74.5194 50.6275C74.5015 50.6529 74.4748 50.6708 74.4445 50.6778ZM78.1205 47.5022C78.1205 47.5022 78.002 47.8626 78.2841 48.6662C78.5662 49.4698 78.6323 49.6883 78.7664 49.6913C78.9005 49.6942 79.3902 49.4997 79.3881 49.4169C79.386 49.3342 78.6014 47.3432 78.1203 47.5022H78.1205Z" fill="#F08430"/>
<path d="M79.6486 50.2206C79.0365 50.4976 78.39 50.6911 77.7264 50.7958C78.2624 50.949 78.8187 51.1105 79.3618 50.9846C79.905 50.8587 80.4142 50.4512 80.5109 49.9021C80.2587 49.9901 79.8917 50.1105 79.6486 50.2206Z" fill="white"/>
<path d="M89.7128 53.4324C90.5577 68.3324 99.4767 76.3333 99.4767 76.3333L102.333 89.8055C93.2478 97.5138 68.2658 99.8538 68.2658 99.8538L67.8027 85.2741C78.096 71.7048 69.2172 59.0164 69.2172 59.0164L71.6357 58.0907C71.6357 58.0907 73.5753 64.6511 79.5804 64.8913C87.3231 65.201 87.1185 54.165 87.1185 54.165L89.713 53.4326L89.7128 53.4324Z" fill="#F5A96E"/>
<path d="M64.1432 80.7568C66.1317 79.8561 67.5018 79.1378 67.5018 79.1378L67.0201 68.8142L64.1432 80.7568Z" fill="#CF7A63"/>
</svg>
