<svg width="143" height="200" viewBox="0 0 143 200" fill="none" xmlns="http://www.w3.org/2000/svg">
<path d="M52.338 0H29.7925C26.8582 0 24.4795 2.37873 24.4795 5.31305V46.4396C24.4795 49.3739 26.8582 51.7526 29.7925 51.7526H52.338C55.2723 51.7526 57.6511 49.3739 57.6511 46.4396V5.31305C57.6511 2.37873 55.2723 0 52.338 0Z" fill="#FFA931"/>
<path d="M51.4331 2.91309H30.6975C28.6686 2.91309 27.0238 4.55785 27.0238 6.58677V45.1661C27.0238 47.195 28.6686 48.8398 30.6975 48.8398H51.4331C53.462 48.8398 55.1067 47.195 55.1067 45.1661V6.58677C55.1067 4.55785 53.462 2.91309 51.4331 2.91309Z" fill="white"/>
<path d="M51.6688 4.51758H30.4617C29.2042 4.51758 28.1848 5.53695 28.1848 6.79442V44.9582C28.1848 46.2157 29.2042 47.235 30.4617 47.235H51.6688C52.9263 47.235 53.9456 46.2157 53.9456 44.9582V6.79442C53.9456 5.53695 52.9263 4.51758 51.6688 4.51758Z" fill="#E2E4EE"/>
<path d="M49.7222 15.0903H38.9248C38.4421 15.0903 37.9793 15.2821 37.638 15.6233C37.2967 15.9646 37.105 16.4275 37.105 16.9101V22.0996C37.105 22.5822 37.2967 23.0451 37.638 23.3864C37.9793 23.7277 38.4421 23.9194 38.9248 23.9194H47.1102L49.4119 25.407C49.665 25.5705 49.9987 25.3889 49.9987 25.0876V23.8916C50.8715 23.7575 51.542 23.0101 51.542 22.0998V16.9103C51.542 16.4277 51.3503 15.9648 51.009 15.6235C50.6677 15.2823 50.2049 15.0903 49.7222 15.0903Z" fill="#F5A96E"/>
<path d="M32.4083 10.2026H43.2058C43.4447 10.2026 43.6814 10.2497 43.9022 10.3412C44.123 10.4326 44.3236 10.5667 44.4925 10.7356C44.6615 10.9046 44.7956 11.1052 44.887 11.326C44.9785 11.5468 45.0255 11.7834 45.0255 12.0224V17.2119C45.0255 17.6945 44.8338 18.1574 44.4925 18.4987C44.1513 18.84 43.6884 19.0317 43.2058 19.0317H35.0203L32.7186 20.5193C32.4656 20.6828 32.1319 20.5012 32.1319 20.1999V19.0039C31.259 18.8698 30.5885 18.1224 30.5885 17.2121V12.0226C30.5885 11.54 30.7802 11.0771 31.1215 10.7359C31.4628 10.3946 31.9257 10.2026 32.4083 10.2026Z" fill="#FFA931"/>
<path d="M50.3626 29.9458H37.2459C36.8105 29.9458 36.4575 30.2988 36.4575 30.7342V30.7344C36.4575 31.1699 36.8105 31.5229 37.2459 31.5229H50.3626C50.798 31.5229 51.151 31.1699 51.151 30.7344V30.7342C51.151 30.2988 50.798 29.9458 50.3626 29.9458Z" fill="#573957"/>
<path d="M50.3626 34.283H31.768C31.3326 34.283 30.9796 34.6359 30.9796 35.0714V35.0716C30.9796 35.507 31.3326 35.86 31.768 35.86H50.3626C50.798 35.86 51.151 35.507 51.151 35.0716V35.0714C51.151 34.6359 50.798 34.283 50.3626 34.283Z" fill="#573957"/>
<path d="M47.8727 38.6204H31.768C31.3326 38.6204 30.9796 38.9733 30.9796 39.4088V39.409C30.9796 39.8444 31.3326 40.1974 31.768 40.1974H47.8727C48.3081 40.1974 48.6611 39.8444 48.6611 39.409V39.4088C48.6611 38.9733 48.3081 38.6204 47.8727 38.6204Z" fill="#573957"/>
<path d="M104.365 191.133L103.722 195.116L109.634 200L98.1962 198.201L100.509 191.133H104.365ZM10.0025 89.8037L6.368 88.0504L0 92.3216L4.98989 81.8738L11.1034 86.1087L10.0025 89.8037Z" fill="#573957"/>
<path d="M98.5175 76.8867L60.5428 84.5975C60.5428 84.5975 63.4344 106.573 56.1093 109.464C48.7841 112.356 11.1948 85.3684 11.1948 85.3684L7.14661 89.6092C7.14661 89.6092 43.7721 132.596 64.591 135.198C72.8165 136.227 83.2893 118.717 83.2893 118.717C97.3611 143.391 98.5175 192.354 98.5175 192.354L105.843 193.51C119.529 124.115 98.5175 76.8869 98.5175 76.8869V76.8867Z" fill="#F5A96E"/>
<path d="M98.5175 76.8867L60.5427 84.5975C60.5427 84.5975 60.9516 87.7052 61.0724 91.737L98.8322 77.6335C98.6313 77.144 98.5175 76.8869 98.5175 76.8869V76.8867ZM85.7408 123.529L94.6621 98.9518L83.289 118.717C84.1545 120.234 84.9705 121.845 85.7408 123.529Z" fill="#EC6800"/>
<path d="M98.5174 76.8868L60.8012 87.0978L58.8098 68.7906L48.6029 62.4197C48.6029 62.4197 48.784 43.1527 53.4103 37.7553C58.0366 32.3578 79.0484 28.8881 83.289 30.2374C87.5296 31.5866 97.1679 38.7191 100.831 51.0561L93.8911 58.5216L98.5174 76.8866V76.8868Z" fill="#4DAAB0"/>
<path d="M61.308 33.4283C62.2149 34.3885 64.5181 36.3026 68.8798 35.6835C73.972 34.9605 77.4993 30.7991 78.0187 30.0452C73.2884 30.385 66.6379 31.6064 61.308 33.4283Z" fill="white"/>
<path d="M59.8379 60.0047V48.936C59.8379 48.936 61.7063 64.2497 62.8594 65.6529C64.0124 67.056 72.8945 64.576 72.8945 64.576C72.8945 64.576 63.2413 71.8752 61.1209 70.9114C59.0004 69.9476 59.8379 60.0049 59.8379 60.0049V60.0047Z" fill="#4DAAB0"/>
<path d="M97.3095 76.219L93.5133 57.5794L98.8068 52.8875C98.8068 52.8875 101.891 73.7062 101.506 75.1519C101.12 76.5975 97.3095 76.219 97.3095 76.219Z" fill="#CF7A63"/>
<path d="M96.519 41.0747L91.1539 41.7024C90.362 41.795 89.7952 42.512 89.8878 43.3039L91.4167 56.3712C91.5093 57.1631 92.2263 57.7299 93.0182 57.6373L98.3833 57.0096C99.1752 56.9169 99.742 56.1999 99.6493 55.408L98.1205 42.3407C98.0279 41.5489 97.3108 40.982 96.519 41.0747Z" fill="#573957"/>
<path d="M91.642 44.213C92.0679 44.213 92.4132 43.8677 92.4132 43.4418C92.4132 43.0159 92.0679 42.6707 91.642 42.6707C91.2161 42.6707 90.8708 43.0159 90.8708 43.4418C90.8708 43.8677 91.2161 44.213 91.642 44.213Z" fill="white"/>
<path d="M91.8671 46.3656C92.293 46.3656 92.6383 46.0203 92.6383 45.5944C92.6383 45.1685 92.293 44.8232 91.8671 44.8232C91.4412 44.8232 91.0959 45.1685 91.0959 45.5944C91.0959 46.0203 91.4412 46.3656 91.8671 46.3656Z" fill="white"/>
<path d="M95.7209 51.3318C95.7411 51.2112 95.7487 51.0825 95.6979 50.9712C95.6472 50.8598 95.511 50.7535 95.3923 50.7834C95.6339 50.6478 95.6699 50.2562 95.4569 50.0788C95.2438 49.9015 94.8249 49.9943 94.7352 50.2566C94.7897 50.0983 94.6683 49.9173 94.5087 49.8674C94.3487 49.8177 94.1714 49.8748 94.0362 49.9737C93.9011 50.0726 93.7992 50.2091 93.6948 50.34C93.283 50.8561 92.805 51.3156 92.2731 51.7068C92.0956 51.8371 91.6461 52.251 91.42 52.2415C91.1992 52.2322 90.871 51.7836 90.7099 51.6348C89.3609 52.1644 89.2476 53.5247 88.7344 54.044C82.9676 59.88 63.3078 70.6667 60.9281 68.9834C59.879 68.2415 59.8377 60.0044 59.8377 60.0044C59.8377 60.0044 53.2828 63.2169 48.7203 60.4135C48.7203 60.4135 47.4746 76.0842 52.5426 78.9107C62.5664 84.5009 90.5173 57.4173 91.2887 56.839C92.0596 56.2606 93.6981 55.9716 93.7946 55.3931C93.9346 55.307 94.012 55.199 94.0424 55.0821C94.5647 54.5402 94.9815 53.8964 95.2501 53.1933C95.3023 53.0571 95.3495 52.9089 95.3139 52.7672C95.2781 52.6257 95.1101 52.5021 94.9735 52.5535C95.3695 52.2566 95.6369 51.8194 95.7207 51.3316L95.7209 51.3318Z" fill="#FFCBB3"/>
<path d="M96.8443 49C96.8443 49 97.9565 49.9997 98.2282 51.9877C98.5002 53.976 94.4664 80.6669 99.8026 80.6776C109.005 80.6962 101.279 47.6583 100.831 46.3208C100.539 45.4517 99.0769 45.1877 98.3202 45.0244C97.8586 44.9246 96.2885 44.4852 95.5611 44.7499C95.388 44.8128 95.2628 44.9155 95.2114 45.0722C95.0914 45.4383 95.4219 45.5513 95.5283 45.8229C95.3718 45.8019 95.1504 45.7875 94.9946 45.8132C94.8388 45.8387 94.6843 45.9181 94.6057 46.0549C94.48 46.2739 94.5937 46.5673 94.7912 46.7246C94.9887 46.8819 95.2464 46.9364 95.4937 46.9865C95.296 47.0873 95.2078 47.348 95.2615 47.5631C95.3152 47.7783 95.4828 47.9509 95.6754 48.0608C95.868 48.1709 96.0859 48.2269 96.3007 48.2819C96.1537 48.309 96.1072 48.513 96.18 48.6433C96.2529 48.7736 96.4013 48.8406 96.5434 48.8867C96.6855 48.9328 96.7316 48.9021 96.8443 49Z" fill="#FFCBB3"/>
<path d="M74.819 15.8024C74.3339 16.0174 73.7558 15.7902 73.3579 15.4395C72.96 15.0887 72.6775 14.6262 72.3065 14.247C71.4935 13.4159 70.244 13.0378 69.1063 13.279C67.9687 13.5203 66.9802 14.3725 66.5741 15.4622C65.7859 15.1542 64.9095 15.022 64.0865 15.219C63.2636 15.4161 62.5061 15.9736 62.1872 16.7574C61.9122 17.4327 61.98 18.2089 62.2213 18.8971C62.4626 19.5854 62.8653 20.2035 63.264 20.814C62.692 21.3051 62.4889 22.135 62.6202 22.8774C62.7516 23.6197 63.1743 24.2822 63.6786 24.8428C64.2082 25.4319 64.86 25.9432 65.6257 26.1462C66.7127 26.4344 67.8899 26.0567 68.8059 25.4041C69.7219 24.7515 70.4238 23.8487 71.111 22.9584C71.8209 22.0386 72.5173 21.1776 73.4828 20.5232C74.3124 19.9611 74.6327 18.7639 74.791 17.8251C74.8204 17.6498 74.8419 15.7923 74.819 15.8024Z" fill="#302D43"/>
<path d="M62.8594 32.9243C62.8594 32.9243 66.2676 31.3668 66.535 30.7676C66.8025 30.1685 67.1903 25.3455 66.9653 25.0611C66.7402 24.7767 65.3383 21.6533 66.0895 21.3994C66.8406 21.1455 67.3099 22.9213 67.896 22.8455C68.4821 22.7697 68.7945 19.8064 69.0162 19.3386C69.2379 18.8708 72.0248 19.3215 73.0846 19.0276C74.1444 18.7337 74.604 26.2929 73.9594 26.9609C73.4516 27.4872 71.1634 26.8417 71.1634 26.8417C71.1634 26.8417 71.9501 29.3219 72.1175 29.6453C72.2848 29.9687 76.6531 30.1601 76.6531 30.1601C76.6531 30.1601 67.727 37.6219 62.8594 32.9243Z" fill="#FFCBB3"/>
<path d="M72.8945 25.07C72.1767 25.0606 71.4654 24.9324 70.7894 24.6907C70.8147 25.125 71.2774 25.4336 71.7115 25.4654C72.1456 25.4972 72.505 25.2637 72.8945 25.07Z" fill="white"/>
<path d="M73.1149 22.0008C73.161 22.1025 74.1227 24.0705 73.6212 24.297C73.1198 24.5235 72.6267 24.413 72.5732 24.0579C72.5198 23.7027 72.5322 21.9848 72.593 21.8564C72.6539 21.728 72.9808 21.7048 73.1149 22.0008Z" fill="#F08430"/>
<path d="M71.0854 22.3772C71.256 22.3538 71.3644 22.1164 71.3275 21.8468C71.2906 21.5773 71.1223 21.3777 70.9517 21.4011C70.7811 21.4244 70.6728 21.6619 70.7097 21.9314C70.7466 22.201 70.9148 22.4006 71.0854 22.3772Z" fill="#302D43"/>
<path d="M69.8975 21.6551C69.9185 21.656 69.9395 21.6517 69.9585 21.6426C69.9775 21.6335 69.994 21.6199 70.0065 21.6029C70.3492 21.1378 71.0015 20.9145 71.5572 21.069C71.5735 21.0736 71.5906 21.0749 71.6074 21.0729C71.6242 21.0709 71.6404 21.0656 71.6552 21.0573C71.67 21.049 71.6829 21.0379 71.6934 21.0246C71.7039 21.0113 71.7116 20.996 71.7162 20.9797C71.7208 20.9634 71.7221 20.9464 71.7201 20.9296C71.7181 20.9128 71.7128 20.8965 71.7045 20.8818C71.6962 20.867 71.6851 20.854 71.6718 20.8436C71.6585 20.8331 71.6432 20.8254 71.6269 20.8208C70.9594 20.6349 70.2092 20.8928 69.7991 21.4496C69.7851 21.4684 69.7764 21.4907 69.7742 21.5141C69.7719 21.5374 69.7761 21.561 69.7862 21.5821C69.7964 21.6033 69.8121 21.6212 69.8318 21.6341C69.8514 21.6469 69.8742 21.6541 69.8977 21.6549L69.8975 21.6551Z" fill="#302D43"/>
<path d="M73.7494 22.1275C73.9181 22.0931 74.0108 21.8491 73.9565 21.5825C73.9021 21.3159 73.7213 21.1277 73.5526 21.1621C73.3838 21.1965 73.2911 21.4405 73.3455 21.7071C73.3998 21.9737 73.5807 22.1619 73.7494 22.1275Z" fill="#302D43"/>
<path d="M74.6311 21.0522C74.6115 21.06 74.5903 21.0629 74.5693 21.0606C74.5484 21.0582 74.5283 21.0508 74.5109 21.0389C74.0336 20.7134 73.3442 20.7185 72.8709 21.0482C72.857 21.0579 72.8414 21.0647 72.8249 21.0684C72.8084 21.0721 72.7913 21.0724 72.7747 21.0695C72.758 21.0666 72.7421 21.0604 72.7278 21.0513C72.7136 21.0422 72.7012 21.0304 72.6915 21.0166C72.6818 21.0027 72.6749 20.9871 72.6713 20.9706C72.6676 20.9541 72.6672 20.937 72.6702 20.9203C72.6731 20.9037 72.6793 20.8878 72.6884 20.8735C72.6974 20.8592 72.7093 20.8469 72.7231 20.8372C73.2915 20.4408 74.0848 20.4359 74.6559 20.8258C74.6753 20.839 74.6907 20.8572 74.7005 20.8785C74.7103 20.8998 74.7141 20.9233 74.7116 20.9466C74.709 20.9698 74.7002 20.992 74.686 21.0106C74.6718 21.0293 74.6528 21.0435 74.6311 21.0522Z" fill="#302D43"/>
<path d="M71.1637 26.8414L69.6915 26.489L71.6473 28.3318L71.1637 26.8414Z" fill="#CF7A63"/>
<path d="M67.4228 24.0256C67.406 24.0325 67.3878 24.0353 67.3697 24.0338C67.3516 24.0322 67.3342 24.0263 67.3188 24.0166C67.3035 24.0069 67.2907 23.9936 67.2816 23.9779C67.2725 23.9622 67.2672 23.9446 67.2663 23.9264C67.215 22.8279 66.6358 22.6147 66.6114 22.6062C66.5844 22.5957 66.5624 22.5752 66.5501 22.5489C66.5377 22.5226 66.5359 22.4926 66.5451 22.4651C66.5542 22.4375 66.5735 22.4146 66.5991 22.4009C66.6247 22.3872 66.6546 22.3838 66.6826 22.3915C66.7131 22.4016 67.4333 22.6509 67.4925 23.9157C67.4934 23.9389 67.4873 23.9619 67.4748 23.9815C67.4624 24.0011 67.4442 24.0164 67.4228 24.0254V24.0256Z" fill="#F08430"/>
<path d="M125.552 156.704C121.257 154.856 119.064 150.08 117.864 145.561C115.22 135.601 115.577 124.865 118.878 115.104C121.93 117.662 124.073 121.468 125.288 125.261C126.503 129.054 126.994 133.034 127.479 136.987C128.298 143.65 128.769 150.812 125.552 156.704L125.552 156.704Z" fill="#60B9BF"/>
<path d="M129.187 158.724C126.915 156.249 126.387 152.674 126.106 149.326C125.726 144.81 125.611 140.207 126.684 135.804C127.789 131.273 130.12 127.114 132.941 123.4C135.762 119.686 139.074 116.378 142.374 113.083C144.054 129.357 138.679 145.399 129.187 158.724Z" fill="#8AD8DE"/>
<path d="M128.33 172.253L127.832 172.23C128.569 156.536 131.578 144.384 133.973 136.953C136.571 128.894 139.03 124.485 139.055 124.442L139.488 124.686C139.464 124.729 137.024 129.106 134.441 137.123C132.058 144.522 129.063 156.623 128.33 172.253ZM126.083 170.602L125.589 170.54C126.911 160.032 121.014 126.36 120.955 126.021L121.445 125.934C121.504 126.274 127.415 160.02 126.083 170.602Z" fill="#573957"/>
<path d="M133.697 164.017H121.2L122.694 200H132.203L133.697 164.017Z" fill="#FFA931"/>
</svg>
