<svg width="151" height="200" viewBox="0 0 151 200" fill="none" xmlns="http://www.w3.org/2000/svg">
<path d="M131.903 71.8596C131.903 71.8596 98.2788 101.468 93.159 98.6192C88.0395 95.7708 89.0584 76.8072 89.0584 76.8072L48.9557 71.9297C32.8692 106.394 11.028 180.185 11.028 180.185L16.8926 183.506C38.245 140.28 65.1525 105.126 65.1525 105.126C65.1525 105.126 78.3378 124.175 89.9687 122.409C101.6 120.643 135.138 74.9068 135.138 74.9068L131.903 71.8596Z" fill="#573957"/>
<path d="M89.396 88.8244C88.7278 82.9893 89.0583 76.8072 89.0583 76.8072L48.9556 71.9297C48.8162 72.228 48.6756 72.5364 48.5354 72.8406L89.3962 88.8242L89.396 88.8244Z" fill="#452D45"/>
<path d="M82.2398 14.077C81.5825 13.2027 81.1105 12.1444 81.14 11.0511C81.1695 9.95767 81.7787 8.84399 82.7867 8.41915C83.4802 8.12694 84.2842 8.17388 84.9669 7.85746C85.525 7.59873 85.948 7.12252 86.4494 6.76589C87.5417 5.98926 89.0337 5.82294 90.2793 6.31704C91.525 6.81115 92.492 7.94273 92.8101 9.24441C93.0231 10.1166 92.9928 11.117 93.5955 11.7825C94.0257 12.2573 94.6791 12.441 95.2604 12.7101C97.0677 13.5467 98.3372 15.4391 98.4259 17.4286C98.5273 19.7097 97.228 22.1147 98.2033 24.1791C98.7951 25.4318 100.1 26.209 100.791 27.4097C101.516 28.6694 101.468 30.2579 101.001 31.6341C100.533 33.0103 99.6888 34.2217 98.8551 35.4122C94.8547 33.0751 90.9452 30.7739 87.0562 28.2556C85.6751 27.3614 84.2126 26.3183 83.7509 24.7391C83.1198 22.5804 84.6015 20.3697 84.6196 18.1206C84.632 16.5766 83.1678 15.3114 82.2398 14.077Z" fill="#302D43"/>
<path d="M13.496 172.012L6.4082 193.617L0 196.62L10.5259 198.682L23.2335 178.745L13.496 172.012ZM130.161 81.8817L143.327 63.3431L150.337 62.3722L140.894 57.2859L122.853 72.5678L130.161 81.8817Z" fill="#FFA931"/>
<path d="M60.3171 111.708C63.3514 107.479 65.1522 105.126 65.1522 105.126L58.8428 95.5415L60.3171 111.708Z" fill="#452D45"/>
<path d="M50.0152 35.9666L47.0032 39.139C47.0032 39.139 45.7201 39.5445 43.4944 36.2337C41.2687 32.9232 24.8445 4.0144 24.7599 3.35903C24.6755 2.70366 24.042 0.0830349 23.6319 0.00282443C23.2218 -0.077386 23.1332 1.5784 22.5649 1.45903C21.8492 1.30872 20.3753 0.191035 19.3942 0.850403C18.8304 1.22935 18.8407 1.6843 18.9572 2.26324C19.0799 2.8723 18.3191 2.96703 18.3342 3.54724C18.3443 3.93545 18.8538 4.21461 18.7723 4.5944C18.7308 4.78808 18.5435 4.91924 18.4799 5.10682C18.4138 5.30198 18.4953 5.51777 18.6102 5.68871C18.7252 5.85966 18.8746 6.00808 18.9685 6.19166C19.1079 6.46387 19.1115 6.78387 19.1976 7.07735C19.3759 7.68471 19.8883 7.95482 20.3443 8.32745C20.8873 8.77124 21.4325 9.17376 21.8567 9.74345C28.886 19.1847 38.4645 50.0106 45.0921 51.9838C50.3228 53.5411 57.6535 47.0994 57.6535 47.0994C57.6535 47.0994 51.5371 41.1072 50.015 35.9664L50.0152 35.9666Z" fill="#FFCBB3"/>
<path d="M18.7289 13.557L18.8723 12.7052C18.8893 12.6048 19.2944 10.23 20.0939 8.2277C20.1205 8.16127 20.1724 8.10811 20.2382 8.07988C20.3039 8.05166 20.3782 8.05069 20.4447 8.07718C20.4776 8.09028 20.5077 8.10975 20.5331 8.13449C20.5585 8.15922 20.5787 8.18872 20.5927 8.2213C20.6067 8.25389 20.6141 8.28891 20.6146 8.32436C20.615 8.35982 20.6084 8.39501 20.5952 8.42791C20.1255 9.60475 19.7904 10.9448 19.5977 11.8266C23.2072 7.35949 22.1935 1.20581 22.1821 1.14076C22.1722 1.07128 22.1897 1.00064 22.2309 0.943835C22.2722 0.887032 22.3339 0.848534 22.4031 0.836509C22.4722 0.824485 22.5434 0.83988 22.6014 0.879428C22.6593 0.918977 22.6997 0.979566 22.7137 1.04834C22.7261 1.1195 23.9059 8.24518 19.332 12.938L18.7289 13.557Z" fill="#302D43"/>
<path d="M53.1455 50.2306C55.7268 48.7906 57.6537 47.0997 57.6537 47.0997C57.6537 47.0997 56.9242 46.3847 55.9066 45.2375L53.1455 50.2306Z" fill="#CF7A63"/>
<path d="M23.1512 20.9334C24.4586 24.4643 25.51 28.0847 26.2971 31.7667C25.5358 33.3205 24.2215 34.7216 22.7371 35.6111C23.3312 30.9679 23.3681 25.6092 23.1512 20.9334ZM18.4196 20.4185C15.3304 27.2515 13.8872 34.822 14.2462 42.3123C14.9449 42.5749 15.5672 42.9233 16.2659 43.1858C19.4192 36.2627 20.187 27.8176 18.4196 20.4185Z" fill="#F08430"/>
<path d="M19.1308 11.1538C17.792 18.7026 16.7249 26.2877 16.1706 33.9342C15.6163 41.5809 15.8611 49.3411 17.6617 56.7933C16.2318 58.8133 15.4624 61.0935 14.9889 63.5228C15.7912 63.5278 16.7022 63.1554 17.2851 62.6043C17.868 62.0531 18.3003 61.3645 18.7257 60.6843C19.803 62.1459 21.4537 63.2285 23.1832 63.7819C23.0988 61.8213 22.544 59.8081 21.5224 58.1325C23.2575 46.9847 24.1363 35.6074 23.5975 24.3384C23.3645 19.4643 22.235 14.9186 19.1308 11.1538Z" fill="#FFA931"/>
<path d="M19.3062 19.2573C19.5686 19.2573 19.7812 19.0446 19.7812 18.7823C19.7812 18.52 19.5686 18.3074 19.3062 18.3074C19.0439 18.3074 18.8313 18.52 18.8313 18.7823C18.8313 19.0446 19.0439 19.2573 19.3062 19.2573Z" fill="#302D43"/>
<path d="M22.0414 20.334C20.887 20.9759 19.6851 21.5285 18.4463 21.987C19.8231 22.0927 21.252 21.467 22.0414 20.334Z" fill="#F08430"/>
<path d="M96.8573 28.4951C94.3707 27.0591 88.0678 24.6342 88.0678 24.6342L79.1697 21.4825C74.8211 20.2867 70.1501 20.2715 66.8333 20.8991C63.5164 21.5267 48.4375 37.6283 48.4375 37.6283L57.6537 47.0995L48.9554 71.9296L88.5554 84.3872L95.7099 50.8306L99.1987 54.7791L109.851 48.2075C109.851 48.2075 99.344 29.9311 96.8575 28.4949L96.8573 28.4951Z" fill="#FFA931"/>
<path d="M81.6794 25.2713C83.7564 25.9166 88.4402 25.7869 90.6882 25.6791C89.1979 25.0694 88.0678 24.6345 88.0678 24.6345L79.1697 21.4827C78.5603 21.3162 77.945 21.1719 77.3251 21.05C77.7396 21.9212 79.2783 24.5254 81.6796 25.2715L81.6794 25.2713Z" fill="white"/>
<path d="M97.6469 40.945L95.7096 50.8308L97.4538 52.8047L97.6469 40.945ZM57.6537 47.0997L64.2892 30.0789L55.8829 45.2801L57.6537 47.0997Z" fill="#F08430"/>
<path d="M83.6147 10.5444C83.6147 10.5444 80.7336 16.484 80.7759 17.0646C80.8182 17.6453 83.0721 17.8267 83.0231 18.0773C82.974 18.3278 81.5852 21.6459 81.0846 21.704C80.5839 21.7621 78.2128 21.2394 78.2128 21.2394C78.2128 21.2394 79.8001 23.6377 81.7759 24.4413C83.7519 25.2446 89.4045 25.1602 89.4045 25.1602C89.4045 25.1602 85.5673 23.415 85.6241 22.5937C85.681 21.7724 86.2601 19.083 86.8237 18.3314C87.3873 17.5798 89.5721 15.4583 89.3195 14.8884C89.0669 14.3185 88.5776 14.691 88.1984 15.0331C87.8193 15.3752 86.9999 16.2375 86.9477 15.707C86.8955 15.1764 87.7521 13.5926 87.7521 13.5926C87.7521 13.5926 87.0801 13.3049 86.7056 12.295C86.3311 11.2851 86.0698 11.0257 86.0698 11.0257C86.0698 11.0257 84.2199 11.7038 83.6144 10.5446L83.6147 10.5444Z" fill="#FFCBB3"/>
<path d="M84.7672 18.311L82.775 17.9207C82.9333 17.9731 83.0337 18.0238 83.0232 18.0779C83.0074 18.159 82.8505 18.5617 82.6301 19.0697L84.7672 18.311Z" fill="#CF7A63"/>
<path d="M84.3148 13.3032C84.0643 13.4906 83.8864 13.7933 83.7338 14.0596C83.6455 14.2123 83.5657 14.3698 83.4946 14.5312C83.4218 14.6979 83.3241 14.8426 83.4392 15.0213C83.5081 15.128 83.6247 15.1969 83.7466 15.2331C83.8445 15.2621 83.9599 15.2691 84.0401 15.2057C84.0961 15.1615 84.1241 15.0914 84.1485 15.0245C84.2604 14.7187 84.351 14.4055 84.4197 14.0872C84.4677 13.8645 84.5588 13.6417 84.5639 13.4101C84.5675 13.2535 84.3719 13.2607 84.3148 13.3032Z" fill="#F08430"/>
<path d="M86.0759 13.9697C86.2171 13.6754 86.1927 13.3702 86.0214 13.2881C85.8501 13.2059 85.5968 13.3778 85.4556 13.672C85.3144 13.9663 85.3388 14.2715 85.5101 14.3536C85.6814 14.4358 85.9347 14.2639 86.0759 13.9697Z" fill="#302D43"/>
<path d="M85.4819 12.9128C85.5044 12.9249 85.5297 12.9307 85.5552 12.9294C85.8228 12.9144 86.3651 12.9873 86.9927 13.6387C87.0453 13.6919 87.1314 13.6944 87.1859 13.6422C87.212 13.6171 87.227 13.5826 87.2277 13.5463C87.2284 13.5101 87.2146 13.4751 87.1895 13.449C86.4868 12.7193 85.8541 12.6393 85.54 12.6566C85.5104 12.6584 85.4822 12.6697 85.4596 12.6889C85.4371 12.7082 85.4213 12.7342 85.4148 12.7631C85.4082 12.792 85.4112 12.8223 85.4233 12.8493C85.4354 12.8764 85.456 12.8988 85.4819 12.9132V12.9128Z" fill="#302D43"/>
<path d="M83.7177 12.9993C83.8459 12.6991 83.8082 12.3953 83.6335 12.3207C83.4588 12.2461 83.2132 12.4289 83.085 12.729C82.9568 13.0291 82.9945 13.333 83.1693 13.4076C83.344 13.4822 83.5895 13.2994 83.7177 12.9993Z" fill="#302D43"/>
<path d="M82.6993 11.9155C82.7231 11.9247 82.749 11.927 82.7741 11.9221C83.0372 11.8713 83.5844 11.8711 84.2934 12.4324C84.322 12.4546 84.3581 12.4648 84.394 12.4606C84.4299 12.4564 84.4628 12.4383 84.4854 12.4101C84.5079 12.3816 84.5182 12.3454 84.514 12.3094C84.5098 12.2735 84.4915 12.2406 84.4631 12.2181C83.6692 11.589 83.0313 11.5943 82.7225 11.6534C82.6933 11.6591 82.6668 11.6741 82.6469 11.6962C82.627 11.7183 82.6148 11.7462 82.6122 11.7758C82.6096 11.8054 82.6167 11.8351 82.6325 11.8603C82.6482 11.8855 82.6716 11.9049 82.6993 11.9155Z" fill="#302D43"/>
<path d="M87.9626 16.2102L87.9569 16.2091C87.9448 16.206 87.9334 16.2005 87.9234 16.193C87.9134 16.1854 87.9051 16.176 87.8988 16.1652C87.8925 16.1544 87.8884 16.1424 87.8867 16.13C87.885 16.1176 87.8858 16.105 87.8891 16.0929C88.1078 15.2544 88.9005 15.3384 88.9082 15.3395C88.9615 15.3384 88.9973 15.3925 88.9916 15.4449C88.9886 15.4699 88.9758 15.4927 88.9561 15.5084C88.9363 15.524 88.9112 15.5312 88.8861 15.5283C88.8605 15.5258 88.2493 15.4654 88.0733 16.1409C88.0671 16.1644 88.0522 16.1846 88.0316 16.1975C88.0111 16.2104 87.9864 16.2148 87.9626 16.2102Z" fill="#F08430"/>
<path d="M82.9913 15.9927C83.752 16.1858 84.5474 16.1979 85.3136 16.0278C85.1962 16.2897 84.9684 16.5038 84.7042 16.6156C84.44 16.7274 84.145 16.7546 83.8591 16.7274C83.6501 16.7074 83.4398 16.6577 83.2616 16.5466C83.0835 16.4354 83.0256 16.1998 82.9913 15.9927Z" fill="white"/>
<path d="M112.934 54.206C113.035 52.9258 108.143 45.2825 108.143 45.2825C108.143 45.2825 105.123 52.1311 98.1621 53.606C98.1621 53.606 101.983 57.9227 101.994 59.3273C101.999 59.9012 91.9327 75.8799 91.9327 75.8799L90.7369 74.1561L89.9617 77.2679C85.912 78.2843 83.5116 77.4071 83.1678 77.9833C82.9756 78.306 83.0299 78.7555 83.2933 79.0229C83.351 79.0812 83.4198 79.1252 83.4918 79.1635C83.4301 79.1993 83.3722 79.2413 83.319 79.2888C83.0546 79.5365 83.0061 79.9612 83.1455 80.2957C83.2849 80.6302 83.5811 80.8801 83.9078 81.0372C84.2341 81.1944 84.5933 81.2698 84.948 81.3439C84.624 81.3319 84.4165 81.7915 84.5436 82.0896C84.6708 82.3877 84.9836 82.5578 85.284 82.6789C85.8799 82.9184 86.5121 83.0548 87.1537 83.0822C86.9116 83.3458 87.4428 83.9334 87.7411 84.1309C88.0394 84.3283 89.1769 83.866 90.1122 83.6323C91.0476 83.3986 91.9527 82.894 92.4699 82.0805C94.1796 79.1507 112.07 65.134 112.934 54.2056V54.206Z" fill="#FFCBB3"/>
<path d="M103.221 62.1229C102.763 60.4717 101.649 58.3037 101.649 58.3037L101.649 58.3041C101.86 58.7132 101.992 59.0698 101.994 59.3275C101.995 59.421 101.725 59.9292 101.277 60.7054L103.221 62.1229Z" fill="#CF7A63"/>
<path d="M47.0604 157.374C47.0604 157.374 51.6573 153.509 54.896 155.807C58.1347 158.106 64.4032 200 64.4032 200H51.8663C51.8663 200 60.1198 159.359 47.0604 157.374Z" fill="#60B9BF"/>
<path d="M64.4031 200H67.4328C67.4328 200 74.1191 163.121 76.5221 161.972C78.925 160.822 81.5368 162.494 81.5368 162.494C81.5368 162.494 77.3579 157.061 73.4922 157.793C69.6267 158.524 59.2423 200 59.2423 200H64.4031Z" fill="#8AD8DE"/>
<path d="M70.3896 200H39.3292C39.3486 197.564 40.3842 194.84 41.9334 192.96C43.4827 191.08 45.8789 189.853 48.3126 189.958C50.7465 190.063 53.125 191.609 53.9833 193.888C54.9719 193.08 56.3839 192.123 57.6587 192.041C58.6185 191.979 59.5703 192.378 60.309 192.994C61.0479 193.609 61.593 194.428 62.0305 195.285C63.6385 194.975 65.3195 195.259 66.7174 196.112C68.1153 196.964 69.9292 198.429 70.3896 200Z" fill="#FFA931"/>
<path d="M112.392 200H83.905L81.7458 179.836H114.551L112.392 200ZM87.7532 166.777V175.171L90.0821 174.231V168.762H106.215V174.231L108.544 175.171V166.777H87.7532Z" fill="#4DAAB0"/>
<path d="M78.925 173.046H117.372V179.836H78.925V173.046Z" fill="#4DAAB0"/>
</svg>
