<svg width="168" height="200" viewBox="0 0 168 200" fill="none" xmlns="http://www.w3.org/2000/svg">
<path d="M62.3616 108.603H14.5113C8.9123 108.603 4.37341 113.142 4.37341 118.741V182.84C4.37341 188.439 8.9123 192.978 14.5113 192.978H62.3616C67.9606 192.978 72.4995 188.439 72.4995 182.84V118.741C72.4995 113.142 67.9606 108.603 62.3616 108.603Z" fill="#F08430"/>
<path d="M57.9882 108.603H10.1379C4.53889 108.603 0 113.142 0 118.741V182.84C0 188.439 4.53889 192.978 10.1379 192.978H57.9882C63.5872 192.978 68.1261 188.439 68.1261 182.84V118.741C68.1261 113.142 63.5872 108.603 57.9882 108.603Z" fill="#FFA931"/>
<path d="M15.4472 119.337C15.4472 118.869 15.0682 118.49 14.6008 118.49C14.1333 118.49 13.7543 118.869 13.7543 119.337V185.548C13.7543 186.015 14.1333 186.394 14.6008 186.394C15.0682 186.394 15.4472 186.015 15.4472 185.548V119.337Z" fill="#F08430"/>
<path d="M29.8798 119.337C29.8798 118.869 29.5008 118.49 29.0334 118.49C28.5659 118.49 28.187 118.869 28.187 119.337V185.548C28.187 186.015 28.5659 186.394 29.0334 186.394C29.5008 186.394 29.8798 186.015 29.8798 185.548V119.337Z" fill="#F08430"/>
<path d="M44.3127 119.337C44.3127 118.869 43.9337 118.49 43.4662 118.49C42.9988 118.49 42.6198 118.869 42.6198 119.337V185.548C42.6198 186.015 42.9988 186.394 43.4662 186.394C43.9337 186.394 44.3127 186.015 44.3127 185.548V119.337Z" fill="#F08430"/>
<path d="M58.7453 119.337C58.7453 118.869 58.3663 118.49 57.8988 118.49C57.4314 118.49 57.0524 118.869 57.0524 119.337V185.548C57.0524 186.015 57.4314 186.394 57.8988 186.394C58.3663 186.394 58.7453 186.015 58.7453 185.548V119.337Z" fill="#F08430"/>
<path d="M13.0293 192.978H18.296V197.367C18.296 198.82 17.116 200 15.6625 200C14.209 200 13.0291 198.82 13.0291 197.367L13.0293 192.978ZM49.1446 192.978H54.4114V197.367C54.4114 198.82 53.2314 200 51.7779 200C50.3244 200 49.1444 198.82 49.1444 197.367V192.978H49.1446Z" fill="#573957"/>
<path d="M6.25665 133.08L22.867 128.946L24.639 136.064L8.02844 140.199L6.25665 133.08Z" fill="#F5A96E"/>
<path d="M29.8797 169.812C34.019 169.812 37.3745 166.456 37.3745 162.317C37.3745 158.178 34.019 154.823 29.8797 154.823C25.7405 154.823 22.385 158.178 22.385 162.317C22.385 166.456 25.7405 169.812 29.8797 169.812Z" fill="white"/>
<path d="M73.7257 34.2208C73.7257 34.2208 77.2154 22.613 74.9049 20.4227C72.5943 18.2323 34.0337 21.43 28.3908 24.8159C22.7478 28.2018 11.0855 62.7641 12.7784 67.6789C14.4712 72.5936 26.6977 71.0888 28.0146 70.9005C29.3314 70.7123 66.628 69.4925 66.628 69.4925L73.7257 34.2208Z" fill="#F08430"/>
<path d="M28.391 24.8157C25.6832 26.4401 21.5906 35.242 18.2518 44.5024C25.503 47.5589 42.0868 51.0311 72.4501 40.5612L73.7259 34.2208C73.7259 34.2208 77.2156 22.613 74.9051 20.4227C72.5945 18.2323 34.0339 21.4298 28.391 24.8157Z" fill="#FFA931"/>
<path d="M98.4583 191.849V194.953L105.418 199.279H94.0379L94.8844 191.849H98.4583ZM40.5417 189.555L39.1853 192.346L43.5543 199.279L33.3185 194.306L37.327 187.993L40.5417 189.555Z" fill="#302D43"/>
<path d="M73.2529 120.246C67.2651 153.101 40.3666 190.971 40.3666 190.971L35.3506 189.717C35.3506 189.717 56.0062 129.274 50.1479 118.49C47.2523 113.16 31.087 112.721 26.071 106.702C21.055 100.683 28.8611 85.4782 28.8611 85.4782C28.8611 85.4782 70.3373 78.6126 72.7826 79.365C75.2279 80.1174 91.0283 97.1719 97.0476 109.461C103.067 121.75 100.057 193.229 100.057 193.229H93.7872C93.7872 193.229 87.6904 147.05 85.2601 134.29C84.2569 129.024 73.2529 120.246 73.2529 120.246Z" fill="#573957"/>
<path d="M72.7825 79.365C70.3372 78.6126 28.8608 85.4782 28.8608 85.4782C28.8608 85.4782 28.3436 86.4881 27.6621 88.0839C37.5135 86.1873 65.8086 80.7578 73.1572 79.5484C73.0135 79.4639 72.8827 79.3959 72.7823 79.365H72.7825ZM77.9 100.809C74.8391 95.6557 59.8693 87.6262 59.8693 87.6262C68.6379 93.4749 75.2372 100.414 75.7292 102.439C76.4497 105.404 73.2526 120.246 73.2526 120.246L75.6954 122.318C78.0438 104.076 79.3151 103.191 77.9 100.809V100.809Z" fill="#452D45"/>
<path d="M51.7152 26.5084C51.7152 26.5084 33.5634 28.7657 30.1777 33.7503C26.7918 38.7349 24.2524 55.664 24.2524 55.664L37.0434 56.7926L28.8611 85.4781C28.8611 85.4781 58.9573 88.3937 72.7825 79.3648L73.9571 58.1691L88.308 52.7899C88.308 52.7899 80.6829 32.5278 75.6042 30.0823C72.4518 28.5644 61.1204 26.3202 51.7154 26.5084H51.7152Z" fill="#4DAAB0"/>
<path d="M51.7152 26.5085C51.7152 26.5085 49.9838 26.7242 47.4937 27.168C48.3346 28.0567 51.5213 31.0891 56.355 31.6499C61.628 32.2617 67.575 29.6931 69.0948 28.2259C64.1832 27.2186 57.5758 26.3914 51.7152 26.5087V26.5085Z" fill="white"/>
<path d="M71.2754 28.7115L68.5577 28.1184C68.5577 28.1184 61.8916 55.7283 73.6455 68.794L73.7257 64.13C67.2815 55.3306 71.2754 28.7115 71.2754 28.7115ZM42.8207 28.1184L38.4234 29.2864C39.6152 33.6317 40.6175 45.5068 39.9904 49.7704C39.3634 54.034 36.6356 60.0165 36.6356 60.0165L35.7931 65.051C48.5348 54.7866 42.8207 28.1184 42.8207 28.1184Z" fill="#FFA931"/>
<path d="M49.223 9.29739L74.9051 5.72266C74.9051 5.72266 69.9573 9.43886 66.2933 10.3319C62.6293 11.225 51.0569 11.2725 49.223 9.29739Z" fill="#EC6800"/>
<path d="M64.4901 15.2664C65.1154 15.4908 65.8409 15.3045 66.3611 14.8912C66.8813 14.478 67.2143 13.866 67.404 13.2293C67.5937 12.5927 67.6522 11.9255 67.7097 11.2636C68.0764 11.1948 68.3577 10.9009 68.4699 10.5449C68.5819 10.1891 68.5625 9.8068 68.5421 9.43438L68.3895 6.65796C62.0745 7.41291 55.6053 8.29164 49.3036 9.1508C49.3112 9.73059 49.1781 10.3975 49.0585 10.9649C48.939 11.5323 48.8337 12.1135 48.9015 12.6895C48.9693 13.2655 49.2345 13.8436 49.7185 14.1632C49.62 15.0784 49.504 16.0297 49.6211 16.9428C49.7383 17.8559 50.0908 18.7689 50.7659 19.3944C51.5335 20.1053 52.6211 20.3641 53.6661 20.4129C55.3055 20.4867 56.9343 20.1146 58.379 19.3361C60.5872 18.1411 62.0425 15.8272 64.4901 15.2664Z" fill="#573957"/>
<path d="M48.5348 26.9878C48.5348 26.9878 54.1502 26.3619 54.4097 25.0173C55.4443 19.6564 51.7624 17.7383 51.3007 13.8588C51.1937 12.96 52.2796 12.636 53.1262 13.8588C53.9727 15.0815 54.631 17.2447 55.1952 17.0564C55.7594 16.8682 56.3238 11.6015 57.1704 12.0718C57.7857 12.4137 58.3287 12.3769 58.9988 12.1615C59.6689 11.9461 60.2327 11.4217 60.4961 10.7689C62.1091 11.4255 63.9752 11.4074 65.483 10.5354C65.483 10.5354 64.7885 20.8655 64.0363 21.712L61.6851 22.5586L61.5268 24.9682C61.4924 25.3935 61.6118 25.8169 61.8633 26.1615C62.1149 26.5061 62.4818 26.7489 62.8973 26.8457L67.4723 27.9114C67.4723 27.9114 58.5217 34.8969 48.5354 26.9878H48.5348Z" fill="#FFCBB3"/>
<path d="M61.6106 23.6872L61.6847 22.5583L58.0032 23.6872H61.6106Z" fill="#CF7A63"/>
<path d="M65.7861 0.888803C65.4925 0.565227 65.125 0.317452 64.715 0.166604C64.3049 0.0157572 63.8645 -0.0336869 63.4312 0.0224879C59.8091 0.486698 52.7434 1.84354 51.292 2.52564C49.4914 3.37217 49.223 9.29722 49.223 9.29722L70.5838 6.32333C70.4192 6.00333 67.3764 2.63807 65.7861 0.888592V0.888803Z" fill="#EC6800"/>
<path d="M49.0017 9.23422L76.263 5.53865L76.2434 5.44117C76.1596 5.02264 75.9183 4.65226 75.5693 4.40651C75.2204 4.16075 74.7903 4.05838 74.368 4.12054L49.223 7.83212L48.7352 8.87086C48.6489 9.05486 48.8005 9.26159 49.0017 9.23422Z" fill="#F5A96E"/>
<path d="M60.4194 14.499C60.164 15.0602 60.1436 15.7524 60.132 16.3579C60.1255 16.7053 60.1345 17.0539 60.1659 17.4C60.1983 17.7575 60.1665 18.1 60.5352 18.2998C60.7554 18.4192 61.0223 18.4276 61.2672 18.3746C61.464 18.3318 61.6701 18.2346 61.7484 18.0491C61.8032 17.9196 61.7853 17.772 61.764 17.6329C61.6675 16.9981 61.5271 16.3708 61.3438 15.7554C61.2156 15.3251 61.1619 14.8535 60.9512 14.448C60.8088 14.1741 60.4771 14.3712 60.4189 14.499H60.4194Z" fill="#F08430"/>
<path d="M58.4137 15.5972C58.7321 15.5972 58.9903 15.1536 58.9903 14.6065C58.9903 14.0593 58.7321 13.6157 58.4137 13.6157C58.0952 13.6157 57.837 14.0593 57.837 14.6065C57.837 15.1536 58.0952 15.5972 58.4137 15.5972Z" fill="#302D43"/>
<path d="M59.2432 12.998C59.2014 13.0069 59.158 13.0041 59.1177 12.9898C58.6948 12.8385 57.7882 12.6974 56.4693 13.4458C56.4163 13.4753 56.3538 13.4828 56.2954 13.4667C56.2369 13.4505 56.1872 13.412 56.1569 13.3595C56.1269 13.3066 56.1192 13.244 56.1354 13.1855C56.1516 13.1269 56.1904 13.0771 56.2432 13.0471C57.7202 12.2084 58.7754 12.381 59.272 12.558C59.3188 12.575 59.3588 12.6067 59.386 12.6484C59.4131 12.6901 59.4261 12.7394 59.4228 12.7891C59.4195 12.8387 59.4002 12.8859 59.3678 12.9237C59.3354 12.9614 59.2916 12.9876 59.243 12.9983L59.2432 12.998Z" fill="#302D43"/>
<path d="M63.4353 15.1319C63.7523 15.1022 63.9681 14.6366 63.9172 14.0918C63.8663 13.547 63.568 13.1294 63.2509 13.159C62.9338 13.1886 62.718 13.6543 62.7689 14.1991C62.8199 14.7439 63.1182 15.1615 63.4353 15.1319Z" fill="#302D43"/>
<path d="M61.6291 13.0414C61.6701 13.0422 61.7122 13.0319 61.7508 13.0094C62.1373 12.7803 63.0004 12.4696 64.4375 12.9538C64.4951 12.9727 64.5579 12.9682 64.6122 12.9412C64.6665 12.9142 64.708 12.8669 64.7278 12.8096C64.7471 12.752 64.7428 12.6891 64.7157 12.6346C64.6887 12.5802 64.6412 12.5387 64.5836 12.5193C62.9741 11.9766 61.971 12.3464 61.5169 12.6147C61.4743 12.6403 61.4412 12.679 61.4225 12.7251C61.4038 12.7711 61.4005 12.822 61.4131 12.8701C61.4258 12.9181 61.4536 12.9608 61.4926 12.9917C61.5315 13.0226 61.5794 13.04 61.6291 13.0414Z" fill="#302D43"/>
<path d="M53.5354 17.0846C53.4919 17.0846 53.4502 17.0675 53.4192 17.0371C53.3881 17.0067 53.3702 16.9654 53.3693 16.9219C53.3451 15.6952 52.284 15.5562 52.239 15.551C52.1952 15.5458 52.1552 15.5234 52.1279 15.4888C52.1006 15.4542 52.0881 15.4101 52.0933 15.3663C52.1043 15.2756 52.1811 15.2074 52.2779 15.2206C52.2916 15.2225 53.672 15.4023 53.7015 16.9152C53.7024 16.9592 53.6857 17.0018 53.6552 17.0336C53.6247 17.0653 53.5828 17.0837 53.5388 17.0846H53.5354Z" fill="#F08430"/>
<path d="M61.3796 19.4444C60.3192 19.4995 59.2601 19.3118 58.2832 18.8958C58.275 19.3198 58.6038 19.7263 58.9819 19.9185C59.36 20.1107 59.8118 20.1193 60.2236 20.0176C60.6354 19.916 61.0175 19.6648 61.3798 19.4444H61.3796Z" fill="white"/>
<path d="M73.7265 64.118L74.0305 58.7919L73.7257 56.2122L71.0524 38.7351L73.7257 64.1294L73.7265 64.118Z" fill="#4DAAB0"/>
<path d="M116.451 27.4444L129.917 16.0828L143.22 31.8491L129.753 43.2108L116.451 27.4444Z" fill="#4DAAB0"/>
<path d="M87.2663 50.2093C87.2663 50.2093 90.0878 57.3571 90.464 57.4512C90.8402 57.5453 117.047 37.188 118.269 35.9655C119.492 34.743 121.467 31.1689 121.937 30.9809C122.408 30.7929 121.937 33.9905 122.313 34.3668C122.69 34.743 126.922 39.8217 126.922 39.8217C126.922 39.8217 122.69 40.9503 121.185 41.7969C119.68 42.6434 89.8585 76.3684 83.4103 74.9448C76.1684 73.3459 73.7259 56.2126 73.7259 56.2126C73.7259 56.2126 80.8709 57.2634 87.2665 50.2097L87.2663 50.2093Z" fill="#FFCBB3"/>
<path d="M129.836 24.1365C126.797 24.1365 124.324 26.6089 124.324 29.6478C124.324 32.6868 126.797 35.1592 129.836 35.1592C132.875 35.1592 135.347 32.6868 135.347 29.6478C135.347 26.6089 132.875 24.1365 129.836 24.1365ZM134.861 29.6476C134.862 30.4997 134.644 31.3377 134.229 32.0817C133.905 31.1832 133.532 30.3956 133.133 29.7125C133.828 28.7449 134.146 27.8893 134.291 27.3312C134.665 28.0459 134.861 28.8407 134.861 29.6476ZM133.915 26.7238C133.874 27.015 133.679 28.0083 132.842 29.2392C131.92 27.8118 130.897 26.8784 130.041 26.2782C131.11 25.5998 132 25.3287 132.273 25.2567C132.922 25.6192 133.482 26.1202 133.915 26.7241L133.915 26.7238ZM132.534 29.6634C131.777 30.6417 130.609 31.7262 128.813 32.7091C127.735 31.9213 127.039 30.9611 126.587 30.0388C127.46 28.4062 128.578 27.3057 129.597 26.5763C130.543 27.2104 131.607 28.1817 132.534 29.6634ZM131.613 24.9531C131.122 25.1283 130.397 25.4434 129.589 25.9796C128.829 25.5093 128.159 25.247 127.701 25.1051C128.368 24.7883 129.097 24.6235 129.836 24.6226C130.462 24.6226 131.06 24.7428 131.613 24.9531ZM127.086 25.4466C127.342 25.5007 128.144 25.7036 129.146 26.2914C128.25 26.9601 127.207 27.9803 126.34 29.4824C125.821 28.1744 125.763 27.0398 125.758 26.7219C126.119 26.219 126.569 25.7869 127.086 25.4466ZM125.334 27.4287C125.452 28.3146 125.697 29.1788 126.062 29.9944C125.763 30.5803 125.511 31.1891 125.309 31.815C124.982 31.1393 124.811 30.3985 124.811 29.6478C124.811 28.8508 125.002 28.099 125.334 27.4287ZM125.638 32.4024C125.819 31.7647 126.052 31.1427 126.334 30.5426C126.787 31.3786 127.434 32.2257 128.356 32.951C127.85 33.2064 127.333 33.4388 126.806 33.6474C126.349 33.3017 125.954 32.8806 125.638 32.4024ZM127.292 33.9739C127.803 33.7624 128.305 33.5288 128.796 33.2737C129.495 33.7487 130.333 34.1535 131.337 34.4438C130.851 34.5961 130.345 34.6734 129.836 34.6731C128.907 34.6731 128.039 34.4152 127.292 33.9739ZM132.087 34.1346C130.96 33.8822 130.034 33.491 129.272 33.0167C130.929 32.0832 132.05 31.0697 132.811 30.1312C133.212 30.8424 133.581 31.6607 133.894 32.5988C133.422 33.2469 132.803 33.7734 132.087 34.1346Z" fill="white"/>
<path d="M89.372 55.313L85.4794 61.025L90.464 57.4511C90.3303 57.4176 89.8872 56.4915 89.372 55.313Z" fill="#CF7A63"/>
<path d="M71.9052 58.2001L66.6941 57.6255C66.1841 57.5693 65.725 57.9371 65.6688 58.4471L64.5789 68.3325C64.5226 68.8425 64.8905 69.3015 65.4005 69.3578L70.6116 69.9323C71.1217 69.9886 71.5807 69.6207 71.6369 69.1107L72.7269 59.2254C72.7831 58.7153 72.4153 58.2563 71.9052 58.2001Z" fill="#573957"/>
<path d="M24.6201 53.4162C24.6201 53.4162 21.6594 71.9663 21.682 75.9789C21.7009 79.3855 25.6499 82.7566 29.9203 81.7646C41.8714 78.9884 60.9089 69.0063 63.1659 68.2539C65.423 67.5015 70.0581 67.3569 70.3089 66.7299C70.3941 66.5169 70.4807 66.3903 70.4312 66.1663C70.6358 66.1472 70.8346 66.0716 71.0251 65.9947C71.2156 65.9179 71.3899 65.7747 71.4546 65.5798C71.5192 65.3848 71.4447 65.139 71.259 65.0507C71.5998 65.0259 71.8602 64.6314 71.7876 64.2975C71.7148 63.9634 71.3139 63.7444 70.9937 63.8638C71.1943 63.7042 71.1823 63.331 71.0266 63.1272C70.8708 62.9236 70.6021 62.8335 70.3457 62.828C70.0893 62.8225 69.8377 62.8897 69.5874 62.9453C68.4468 63.199 66.5076 63.2411 65.3579 63.031L65.4028 60.8634C65.1207 60.8164 64.0438 62.1406 63.5266 62.5169C63.0093 62.8931 35.5064 71.703 35.2904 68.7937C35.0744 65.8855 37.6078 54.7861 37.6078 54.7861C31.087 57.9211 24.6201 53.416 24.6201 53.416V53.4162Z" fill="#FFCBB3"/>
<path d="M71.4286 64.9314C71.4017 64.9363 68.6598 65.415 65.6093 65.2613C65.5524 65.2584 65.4849 65.3097 65.4817 65.3767C65.4785 65.4436 65.5301 65.5011 65.5971 65.5043C66.0148 65.525 66.4329 65.5353 66.8512 65.5352C69.1362 65.5352 71.0242 65.2445 71.399 65.1828C71.3632 65.1281 71.3192 65.0796 71.259 65.051C71.3543 65.0441 71.4421 65.0062 71.5194 64.9508C71.5064 64.9415 71.4916 64.935 71.4759 64.9317C71.4603 64.9284 71.4441 64.9284 71.4284 64.9316L71.4286 64.9314ZM70.4312 66.1664C70.5364 66.1553 70.64 66.1329 70.7404 66.0996C70.7141 66.0664 70.6775 66.0422 70.6362 66.046C70.6112 66.0489 68.0842 66.3586 65.8922 66.2329C65.86 66.2311 65.8284 66.2422 65.8044 66.2637C65.7803 66.2852 65.7658 66.3154 65.764 66.3476C65.7622 66.3799 65.7733 66.4115 65.7948 66.4355C65.8163 66.4596 65.8465 66.4741 65.8787 66.4759C66.248 66.4963 66.6265 66.5053 67.0015 66.5053C68.4891 66.5053 69.9129 66.3691 70.4442 66.3119C70.4461 66.2629 70.4416 66.214 70.431 66.1662L70.4312 66.1664ZM65.2522 64.5011C65.4684 64.5114 65.6892 64.5164 65.9147 64.5163C68.3301 64.5163 71.1613 63.9573 71.192 63.951C71.2457 63.9403 71.2754 63.8937 71.2809 63.8424C71.1849 63.826 71.0863 63.8295 70.9939 63.8639C71.0402 63.827 71.0724 63.7769 71.0969 63.7222C70.6819 63.8017 67.6036 64.3731 65.2644 64.2582C65.1872 64.262 65.14 64.3066 65.1369 64.3735C65.1335 64.4409 65.1853 64.498 65.2522 64.5011ZM35.2901 68.794C35.2554 68.3274 35.2922 67.6485 35.3775 66.8403L29.7074 68.794C34.692 70.2613 39.9183 69.0601 40.603 68.9407C37.5072 69.5055 35.3501 69.6003 35.2901 68.794Z" fill="#CF7A63"/>
<path d="M128.368 72.2349C128.693 72.2351 129.004 72.3642 129.234 72.5937C129.463 72.8233 129.592 73.1346 129.593 73.4593V199.279H127.144V73.4595C127.144 73.1348 127.273 72.8235 127.503 72.5939C127.732 72.3644 128.044 72.2351 128.368 72.2349Z" fill="#60B9BF"/>
<path d="M161.378 98.1752H126.015V79.3076H161.378L167.209 88.7413L161.378 98.1752ZM95.151 111.849H130.514V130.717H95.151L89.3198 121.283L95.151 111.849Z" fill="#8AD8DE"/>
</svg>
