<svg width="164" height="45" viewBox="0 0 164 45" fill="none" xmlns="http://www.w3.org/2000/svg">
<path d="M1.80688 21.0213C3.51448 16.4709 9.20678 13.058 11.4837 13.6268C13.7605 14.1956 13.1912 21.8341 11.4837 25.003C7.49912 32.3975 11.4837 35.8104 11.4837 38.6544C11.4837 44.9113 8.06834 44.9113 9.20674 39.7921C9.57717 38.1263 6.9299 36.3792 4.65299 34.6728C3.0111 33.4423 -0.60805 27.4568 1.80688 21.0213Z" fill="#60B9BF"/>
<path d="M17.7451 1.68181C11.3698 2.5919 8.06825 9.64514 9.2067 11.3516C10.3451 13.058 14.3297 11.3516 14.8989 10.7828C17.3472 8.33622 16.7593 6.29175 21.1603 5.66348C25.1449 5.09467 25.7142 0.544189 17.7451 1.68181Z" fill="#60B9BF"/>
<path d="M14.8989 21.0213C14.3297 14.7644 21.1605 6.23229 22.8681 7.93872C24.5757 9.64515 20.022 11.9204 21.1604 19.3149C22.2988 26.7094 14.3297 36.3792 12.6221 34.6728C10.9144 32.9663 15.4681 27.2782 14.8989 21.0213Z" fill="#F08430"/>
<path d="M47.3281 11.25C47.4219 11.25 47.4688 11.2031 47.4688 11.1094V10.1602C47.4688 10.0664 47.4219 10.0195 47.3281 10.0195H46.2559C46.1738 10.0195 46.1328 10.0664 46.1328 10.1602V11.1094C46.1328 11.2031 46.1738 11.25 46.2559 11.25H47.3281ZM47.3281 13.377C47.4219 13.377 47.4688 13.3301 47.4688 13.2363V12.2695C47.4688 12.1758 47.4219 12.1289 47.3281 12.1289H46.2559C46.1738 12.1289 46.1328 12.1758 46.1328 12.2695V13.2363C46.1328 13.3301 46.1738 13.377 46.2559 13.377H47.3281ZM42.0547 12.1289C41.9609 12.1289 41.9141 12.1758 41.9141 12.2695V13.2363C41.9141 13.3301 41.9609 13.377 42.0547 13.377H43.0391C43.1328 13.377 43.1797 13.3301 43.1797 13.2363V12.2695C43.1797 12.1758 43.1328 12.1289 43.0391 12.1289H42.0547ZM42.0547 10.0195C41.9609 10.0195 41.9141 10.0664 41.9141 10.1602V11.1094C41.9141 11.2031 41.9609 11.25 42.0547 11.25H43.0391C43.1328 11.25 43.1797 11.2031 43.1797 11.1094V10.1602C43.1797 10.0664 43.1328 10.0195 43.0391 10.0195H42.0547ZM45.3066 12.2695C45.3066 12.1758 45.2598 12.1289 45.166 12.1289H44.1641C44.0703 12.1289 44.0234 12.1758 44.0234 12.2695V13.2363C44.0234 13.3301 44.0703 13.377 44.1641 13.377H45.166C45.2598 13.377 45.3066 13.3301 45.3066 13.2363V12.2695ZM44.0234 11.1094C44.0234 11.2031 44.0703 11.25 44.1641 11.25H45.166C45.2598 11.25 45.3066 11.2031 45.3066 11.1094V10.1602C45.3066 10.0664 45.2598 10.0195 45.166 10.0195H44.1641C44.0703 10.0195 44.0234 10.0664 44.0234 10.1602V11.1094ZM47.4688 9.08789C47.75 9.08789 47.9902 9.19336 48.1895 9.4043C48.4004 9.60352 48.5059 9.84375 48.5059 10.125V13.2715C48.5059 13.5645 48.4004 13.8105 48.1895 14.0098C47.9902 14.209 47.75 14.3086 47.4688 14.3086H41.9316C41.6387 14.3086 41.3926 14.209 41.1934 14.0098C40.9941 13.8105 40.8945 13.5645 40.8945 13.2715V10.125C40.8945 9.84375 40.9941 9.60352 41.1934 9.4043C41.3926 9.19336 41.6387 9.08789 41.9316 9.08789H42.8809C42.9746 9.08789 43.0215 9.04688 43.0215 8.96484V7.96289C43.0215 7.82227 43.0684 7.70508 43.1621 7.61133C43.2559 7.50586 43.373 7.45312 43.5137 7.45312C43.6543 7.45312 43.7715 7.50586 43.8652 7.61133C43.9707 7.70508 44.0234 7.82227 44.0234 7.96289V8.96484C44.0234 9.04688 44.0703 9.08789 44.1641 9.08789H45.166C45.2598 9.08789 45.3066 9.04688 45.3066 8.96484V7.96289C45.3066 7.82227 45.3535 7.70508 45.4473 7.61133C45.5527 7.50586 45.6699 7.45312 45.7988 7.45312C45.9395 7.45312 46.0566 7.50586 46.1504 7.61133C46.2559 7.70508 46.3086 7.82227 46.3086 7.96289V8.96484C46.3086 9.04688 46.3555 9.08789 46.4492 9.08789H47.4688ZM48.6465 15.1875C48.7754 15.1875 48.8867 15.2402 48.9805 15.3457C49.0859 15.4395 49.1387 15.5566 49.1387 15.6973C49.1387 15.8262 49.0859 15.9434 48.9805 16.0488C48.8867 16.1426 48.7754 16.1895 48.6465 16.1895H40.8418C40.7129 16.1895 40.5957 16.1426 40.4902 16.0488C40.3965 15.9434 40.3496 15.8262 40.3496 15.6973C40.3496 15.5566 40.3965 15.4395 40.4902 15.3457C40.5957 15.2402 40.7129 15.1875 40.8418 15.1875H48.6465ZM42.459 17.9297C42.377 17.9297 42.3359 17.9707 42.3359 18.0527V19.3359C42.3359 19.4297 42.377 19.4766 42.459 19.4766H46.9062C46.9883 19.4766 47.0293 19.4297 47.0293 19.3359V18.0527C47.0293 17.9707 46.9883 17.9297 46.9062 17.9297H42.459ZM48.1895 19.3184C48.1895 19.6113 48.084 19.8574 47.873 20.0566C47.6738 20.2559 47.4336 20.3555 47.1523 20.3555H42.2656C41.9844 20.3555 41.7383 20.2559 41.5273 20.0566C41.3281 19.8574 41.2285 19.6113 41.2285 19.3184V18.0879C41.2285 17.7949 41.3281 17.5488 41.5273 17.3496C41.7383 17.1504 41.9844 17.0508 42.2656 17.0508H47.1523C47.4336 17.0508 47.6738 17.1504 47.873 17.3496C48.084 17.5488 48.1895 17.7949 48.1895 18.0879V19.3184ZM35.3574 9.08789C35.2637 9.08789 35.2168 9.13477 35.2168 9.22852V12.9199C35.2168 13.002 35.2637 13.043 35.3574 13.043H36.0254C36.1191 13.043 36.166 13.002 36.166 12.9199V11.3027C36.166 11.0098 36.2656 10.7637 36.4648 10.5645C36.6641 10.3652 36.9102 10.2656 37.2031 10.2656H38.0293C38.1113 10.2656 38.1523 10.2188 38.1523 10.125V9.22852C38.1523 9.13477 38.1113 9.08789 38.0293 9.08789H35.3574ZM38.0293 13.043C38.1113 13.043 38.1523 13.002 38.1523 12.9199V11.2324C38.1523 11.1504 38.1113 11.1094 38.0293 11.1094H37.1328C37.0508 11.1094 37.0098 11.1504 37.0098 11.2324V12.9199C37.0098 13.002 37.0508 13.043 37.1328 13.043H38.0293ZM38.0293 16.3125C38.0293 16.2305 37.9883 16.1895 37.9062 16.1895H35.4629C35.3691 16.1895 35.3223 16.2305 35.3223 16.3125V17.332C35.3223 17.4141 35.3691 17.4551 35.4629 17.4551H37.9062C37.9883 17.4551 38.0293 17.4141 38.0293 17.332V16.3125ZM35.3223 19.6172C35.3223 19.6992 35.3691 19.7402 35.4629 19.7402H37.9062C37.9883 19.7402 38.0293 19.6992 38.0293 19.6172V18.5273C38.0293 18.4453 37.9883 18.4043 37.9062 18.4043H35.4629C35.3691 18.4043 35.3223 18.4453 35.3223 18.5273V19.6172ZM40.2793 15.0996C40.2793 15.2402 40.2266 15.3633 40.1211 15.4688C40.0156 15.5742 39.8867 15.627 39.7344 15.627C39.5938 15.627 39.4707 15.5742 39.3652 15.4688C39.2715 15.3633 39.2246 15.2402 39.2246 15.0996V14.1328C39.2246 14.0508 39.1777 14.0098 39.084 14.0098H34.3203C34.2383 14.0098 34.1973 14.0508 34.1973 14.1328V15.082C34.1973 15.1641 34.2383 15.2051 34.3203 15.2051H38.1699C38.4512 15.2051 38.6914 15.3105 38.8906 15.5215C39.1016 15.7207 39.207 15.9609 39.207 16.2422V22.623C39.207 22.916 39.1719 23.1387 39.1016 23.291C39.0312 23.4551 38.9023 23.584 38.7148 23.6777C38.457 23.7949 38 23.8594 37.3438 23.8711C37.1914 23.8711 37.0508 23.8184 36.9219 23.7129C36.793 23.6191 36.7051 23.4902 36.6582 23.3262C36.6113 23.209 36.623 23.0977 36.6934 22.9922C36.7637 22.8867 36.8574 22.834 36.9746 22.834C37.1035 22.834 37.2207 22.834 37.3262 22.834C37.5605 22.834 37.7246 22.8281 37.8184 22.8164C37.9004 22.8164 37.9531 22.8047 37.9766 22.7812C38.0117 22.7578 38.0293 22.6992 38.0293 22.6055V20.8477C38.0293 20.7656 37.9883 20.7246 37.9062 20.7246H35.4629C35.3691 20.7246 35.3223 20.7656 35.3223 20.8477V23.3086C35.3223 23.4609 35.2695 23.5898 35.1641 23.6953C35.0586 23.8125 34.9238 23.8711 34.7598 23.8711C34.6074 23.8711 34.4727 23.8125 34.3555 23.6953C34.25 23.5898 34.1973 23.4609 34.1973 23.3086V15.7324C34.1973 15.6621 34.1562 15.627 34.0742 15.627C33.8281 15.627 33.6172 15.5391 33.4414 15.3633C33.2656 15.1758 33.1777 14.959 33.1777 14.7129V13.957C33.1777 13.7109 33.2656 13.5 33.4414 13.3242C33.6172 13.1367 33.8281 13.043 34.0742 13.043C34.1562 13.043 34.1973 13.0078 34.1973 12.9375V9.10547C34.1973 8.8125 34.2969 8.56641 34.4961 8.36719C34.6953 8.16797 34.9414 8.06836 35.2344 8.06836H38.1875C38.4688 8.06836 38.709 8.16797 38.9082 8.36719C39.1191 8.56641 39.2246 8.8125 39.2246 9.10547V12.9375C39.2246 13.0078 39.2598 13.043 39.3301 13.043C39.5996 13.043 39.8223 13.1367 39.998 13.3242C40.1855 13.5117 40.2793 13.7344 40.2793 13.9922V15.0996ZM46.4844 22.4121C46.4727 22.4473 46.4727 22.4766 46.4844 22.5C46.4961 22.5234 46.5195 22.5352 46.5547 22.5352H48.752C48.8926 22.5352 49.0098 22.582 49.1035 22.6758C49.209 22.7812 49.2617 22.9043 49.2617 23.0449C49.2617 23.1855 49.209 23.3027 49.1035 23.3965C49.0098 23.4902 48.8926 23.5371 48.752 23.5371H40.5254C40.3965 23.5371 40.2793 23.4902 40.1738 23.3965C40.0801 23.3027 40.0332 23.1855 40.0332 23.0449C40.0332 22.9043 40.0801 22.7812 40.1738 22.6758C40.2793 22.582 40.3965 22.5352 40.5254 22.5352H42.6348C42.6699 22.5352 42.6934 22.5234 42.7051 22.5C42.7285 22.4648 42.7402 22.4355 42.7402 22.4121C42.623 21.9902 42.4766 21.5801 42.3008 21.1816C42.2539 21.0527 42.2539 20.9297 42.3008 20.8125C42.3477 20.6836 42.4355 20.5957 42.5645 20.5488C42.6348 20.5371 42.6992 20.5312 42.7578 20.5312C42.8398 20.5312 42.916 20.543 42.9863 20.5664C43.127 20.625 43.2266 20.7188 43.2852 20.8477C43.5078 21.3281 43.6777 21.7852 43.7949 22.2188C43.8301 22.3711 43.7715 22.4707 43.6191 22.5176C43.6191 22.5293 43.6191 22.5352 43.6191 22.5352H45.5352C45.4414 22.5 45.418 22.4355 45.4648 22.3418C45.6641 21.9316 45.8633 21.4629 46.0625 20.9355C46.1094 20.7832 46.2031 20.666 46.3438 20.584C46.4375 20.5371 46.5312 20.5137 46.625 20.5137C46.6836 20.5137 46.7422 20.5195 46.8008 20.5312C46.9414 20.5781 47.041 20.6719 47.0996 20.8125C47.1582 20.9531 47.1582 21.0879 47.0996 21.2168C46.7832 21.8379 46.5781 22.2363 46.4844 22.4121ZM62.0403 8.05078C62.2512 7.6875 62.5559 7.50586 62.9544 7.50586C63.3528 7.50586 63.6692 7.68164 63.9036 8.0332C64.3958 8.74805 64.9641 9.42773 65.6087 10.0723C66.2649 10.7051 66.9329 11.2383 67.6126 11.6719C67.7649 11.7656 67.8587 11.9004 67.8938 12.0762C67.9055 12.123 67.9114 12.1699 67.9114 12.2168C67.9114 12.334 67.8762 12.4512 67.8059 12.5684C67.7122 12.7207 67.5774 12.8203 67.4016 12.8672C67.2376 12.9141 67.0794 12.8848 66.927 12.7793C66.177 12.2637 65.4563 11.6543 64.7649 10.9512C64.0852 10.2363 63.5169 9.52148 63.0598 8.80664C63.0481 8.7832 63.0247 8.77148 62.9895 8.77148C62.9661 8.77148 62.9485 8.7832 62.9368 8.80664C62.5266 9.5332 61.9817 10.2598 61.302 10.9863C60.6223 11.7129 59.9016 12.3457 59.1399 12.8848C58.9993 12.9785 58.847 13.002 58.6829 12.9551C58.5305 12.9082 58.4075 12.8145 58.3137 12.6738C58.2317 12.5215 58.2024 12.3633 58.2259 12.1992C58.261 12.0352 58.3489 11.9062 58.4895 11.8125C59.1927 11.3438 59.8548 10.7754 60.4759 10.1074C61.1087 9.43945 61.6302 8.75391 62.0403 8.05078ZM65.0286 11.7422C65.1692 11.7422 65.2923 11.7949 65.3977 11.9004C65.5032 11.9941 65.5559 12.1172 65.5559 12.2695C65.5559 12.4102 65.5032 12.5332 65.3977 12.6387C65.2923 12.7324 65.1692 12.7793 65.0286 12.7793H61.1614C61.0208 12.7793 60.8977 12.7324 60.7923 12.6387C60.6868 12.5332 60.6341 12.4102 60.6341 12.2695C60.6341 12.1172 60.6868 11.9941 60.7923 11.9004C60.8977 11.7949 61.0208 11.7422 61.1614 11.7422H65.0286ZM60.177 14.8359C60.0833 14.8359 60.0364 14.877 60.0364 14.959V16.9629C60.0364 17.0566 60.0833 17.1035 60.177 17.1035H61.5657C61.6595 17.1035 61.7063 17.0566 61.7063 16.9629V14.959C61.7063 14.877 61.6595 14.8359 61.5657 14.8359H60.177ZM60.1243 18.0352C59.843 18.0352 59.597 17.9355 59.386 17.7363C59.1868 17.5254 59.0872 17.2793 59.0872 16.998V14.959C59.0872 14.666 59.1868 14.4199 59.386 14.2207C59.597 14.0215 59.843 13.9219 60.1243 13.9219H61.6536C61.9348 13.9219 62.1751 14.0215 62.3743 14.2207C62.5852 14.4199 62.6907 14.666 62.6907 14.959V16.998C62.6907 17.2793 62.5852 17.5254 62.3743 17.7363C62.1751 17.9355 61.9348 18.0352 61.6536 18.0352H60.1243ZM66.1536 17.1035C66.2473 17.1035 66.2942 17.0566 66.2942 16.9629V14.959C66.2942 14.877 66.2473 14.8359 66.1536 14.8359H64.677C64.5833 14.8359 64.5364 14.877 64.5364 14.959V16.9629C64.5364 17.0566 64.5833 17.1035 64.677 17.1035H66.1536ZM66.2415 13.9219C66.5345 13.9219 66.7805 14.0215 66.9798 14.2207C67.179 14.4199 67.2786 14.666 67.2786 14.959V16.998C67.2786 17.2793 67.179 17.5254 66.9798 17.7363C66.7805 17.9355 66.5345 18.0352 66.2415 18.0352H64.6067C64.3255 18.0352 64.0794 17.9355 63.8684 17.7363C63.6692 17.5254 63.5696 17.2793 63.5696 16.998V14.959C63.5696 14.666 63.6692 14.4199 63.8684 14.2207C64.0794 14.0215 64.3255 13.9219 64.6067 13.9219H66.2415ZM52.2845 22.5176C52.2259 22.623 52.138 22.6875 52.0208 22.7109C51.9153 22.7461 51.8098 22.7344 51.7044 22.6758C51.5989 22.6172 51.5345 22.5293 51.511 22.4121C51.4993 22.377 51.4934 22.3359 51.4934 22.2891C51.4934 22.2188 51.5052 22.1543 51.5286 22.0957C51.8567 21.4043 52.0677 20.332 52.1614 18.8789C52.1614 18.7734 52.2024 18.6855 52.2845 18.6152C52.3782 18.5449 52.4778 18.5215 52.5833 18.5449C52.7005 18.5566 52.7942 18.6094 52.8645 18.7031C52.9348 18.7969 52.97 18.9023 52.97 19.0195C52.8528 20.6367 52.6243 21.8027 52.2845 22.5176ZM53.3743 19.1426C53.3626 19.0371 53.386 18.9492 53.4446 18.8789C53.5032 18.8086 53.5794 18.7676 53.6731 18.7559C53.7669 18.7324 53.8489 18.75 53.9192 18.8086C54.0012 18.8672 54.0481 18.9434 54.0598 19.0371C54.2005 19.9277 54.2766 20.7715 54.2884 21.5684C54.2884 21.6738 54.2532 21.7676 54.1829 21.8496C54.1126 21.9316 54.0247 21.9785 53.9192 21.9902C53.8255 22.0137 53.7376 21.9961 53.6555 21.9375C53.5852 21.8672 53.5501 21.7617 53.5501 21.6211C53.5501 20.8359 53.4915 20.0098 53.3743 19.1426ZM53.5149 14.6426C53.4329 14.6426 53.3919 14.6836 53.3919 14.7656V16.1719C53.3919 16.2656 53.4329 16.3125 53.5149 16.3125H54.8333C54.927 16.3125 54.9739 16.2656 54.9739 16.1719V14.7656C54.9739 14.6836 54.927 14.6426 54.8333 14.6426H53.5149ZM54.9739 9.38672C54.9739 9.29297 54.927 9.24609 54.8333 9.24609H53.5149C53.4329 9.24609 53.3919 9.29297 53.3919 9.38672V10.7754C53.3919 10.8691 53.4329 10.916 53.5149 10.916H54.8333C54.927 10.916 54.9739 10.8691 54.9739 10.7754V9.38672ZM54.8333 13.5879C54.927 13.5879 54.9739 13.5469 54.9739 13.4648V12.0762C54.9739 11.9941 54.927 11.9531 54.8333 11.9531H53.5149C53.4329 11.9531 53.3919 11.9941 53.3919 12.0762V13.4648C53.3919 13.5469 53.4329 13.5879 53.5149 13.5879H54.8333ZM56.0462 16.1719C56.0462 16.2656 56.093 16.3125 56.1868 16.3125H57.3645C57.6458 16.3125 57.886 16.4121 58.0852 16.6113C58.2727 16.8105 58.3665 17.0391 58.3665 17.2969C58.3665 18.7266 58.2786 20.2031 58.1028 21.7266C57.9973 22.582 57.8391 23.1328 57.6282 23.3789C57.429 23.6602 57.1184 23.8184 56.6966 23.8535C56.5208 23.8652 56.2571 23.8711 55.9055 23.8711C55.847 23.8711 55.7825 23.8711 55.7122 23.8711C55.5598 23.8711 55.4251 23.8184 55.3079 23.7129C55.1907 23.6074 55.1145 23.4785 55.0794 23.3262C55.0442 23.1973 55.0618 23.0859 55.1321 22.9922C55.2141 22.8984 55.3137 22.8516 55.4309 22.8516C55.6653 22.875 55.929 22.8867 56.222 22.8867C56.4446 22.8867 56.6028 22.8164 56.6966 22.6758C56.8723 22.4648 57.0071 21.75 57.1009 20.5312C57.1009 20.5195 57.095 20.5078 57.0833 20.4961C57.0716 20.4844 57.0598 20.4844 57.0481 20.4961C56.9192 20.543 56.7903 20.5371 56.6614 20.4785C56.5325 20.4199 56.4387 20.3262 56.3802 20.1973C56.2044 19.7051 55.97 19.1836 55.677 18.6328C55.6419 18.5625 55.636 18.4922 55.6595 18.4219C55.6946 18.3398 55.7473 18.2812 55.8177 18.2461C56.0169 18.1758 56.1692 18.2344 56.2747 18.4219C56.6262 19.0195 56.8958 19.582 57.0833 20.1094C57.095 20.1211 57.1067 20.127 57.1184 20.127C57.1302 20.127 57.136 20.1211 57.136 20.1094C57.1829 19.3711 57.2298 18.5039 57.2766 17.5078C57.2884 17.4141 57.2473 17.3672 57.1536 17.3672H53.3216C53.0403 17.3672 52.7942 17.2676 52.5833 17.0684C52.3841 16.8691 52.2845 16.623 52.2845 16.3301V9.19336C52.2845 8.90039 52.3841 8.6543 52.5833 8.45508C52.7942 8.25586 53.0403 8.15625 53.3216 8.15625H57.7337C57.886 8.15625 58.0149 8.20898 58.1204 8.31445C58.2259 8.41992 58.2786 8.54883 58.2786 8.70117C58.2786 8.85352 58.2259 8.98242 58.1204 9.08789C58.0149 9.19336 57.886 9.24609 57.7337 9.24609H56.1868C56.093 9.24609 56.0462 9.29297 56.0462 9.38672V10.7754C56.0462 10.8691 56.093 10.916 56.1868 10.916H57.4173C57.5579 10.916 57.6809 10.9688 57.7864 11.0742C57.8919 11.168 57.9446 11.291 57.9446 11.4434C57.9446 11.584 57.8919 11.707 57.7864 11.8125C57.6809 11.9062 57.5579 11.9531 57.4173 11.9531H56.1868C56.093 11.9531 56.0462 11.9941 56.0462 12.0762V13.4648C56.0462 13.5469 56.093 13.5879 56.1868 13.5879H57.4348C57.5755 13.5879 57.6985 13.6406 57.804 13.7461C57.9095 13.8516 57.9622 13.9746 57.9622 14.1152C57.9622 14.2559 57.9095 14.3789 57.804 14.4844C57.6985 14.5898 57.5755 14.6426 57.4348 14.6426H56.1868C56.093 14.6426 56.0462 14.6836 56.0462 14.7656V16.1719ZM55.7649 21.0059C55.7884 21.0996 55.7708 21.1875 55.7122 21.2695C55.6536 21.3516 55.5716 21.4043 55.4661 21.4277C55.3841 21.4395 55.302 21.4219 55.22 21.375C55.138 21.3164 55.0911 21.2402 55.0794 21.1465C54.9622 20.373 54.7805 19.623 54.5345 18.8965C54.5227 18.8613 54.5169 18.832 54.5169 18.8086C54.5169 18.7617 54.5286 18.7148 54.552 18.668C54.5989 18.5977 54.6634 18.5508 54.7454 18.5273C54.7805 18.5273 54.8157 18.5273 54.8509 18.5273C55.0032 18.5273 55.1145 18.6094 55.1848 18.7734C55.4661 19.5234 55.6595 20.2676 55.7649 21.0059ZM60.3528 19.0898C60.3762 18.9258 60.4524 18.7969 60.5813 18.7031C60.7102 18.5977 60.8509 18.5508 61.0032 18.5625C61.1555 18.5742 61.2786 18.6387 61.3723 18.7559C61.4778 18.873 61.513 19.0078 61.4778 19.1602C61.4075 19.5234 61.3255 19.8809 61.2317 20.2324C61.2083 20.3145 61.2259 20.3848 61.2845 20.4434C61.847 20.9473 62.3157 21.416 62.6907 21.8496C62.7962 21.9668 62.843 22.1016 62.8313 22.2539C62.8196 22.4062 62.761 22.541 62.6555 22.6582C62.5501 22.752 62.427 22.793 62.2864 22.7812C62.1458 22.7812 62.0286 22.7285 61.9348 22.623C61.6184 22.2246 61.2786 21.8438 60.9153 21.4805C60.8567 21.4219 60.804 21.4277 60.7571 21.498C60.3821 22.3066 59.8958 22.9922 59.2981 23.5547C59.1927 23.6484 59.0696 23.6953 58.929 23.6953C58.9173 23.6953 58.8997 23.6953 58.8762 23.6953C58.7239 23.6836 58.5833 23.6191 58.4544 23.502C58.3489 23.3965 58.2962 23.2734 58.2962 23.1328C58.2962 22.9922 58.3548 22.8691 58.472 22.7637C59.4095 21.9316 60.0364 20.707 60.3528 19.0898ZM64.7825 19.0898C64.8177 18.9258 64.8997 18.791 65.0286 18.6855C65.1458 18.5918 65.2805 18.5449 65.4329 18.5449C65.4446 18.5449 65.4563 18.5449 65.468 18.5449C65.6321 18.5566 65.761 18.627 65.8548 18.7559C65.9602 18.873 65.9954 19.0078 65.9602 19.1602C65.8899 19.5703 65.7903 19.9629 65.6614 20.3379C65.638 20.4199 65.6555 20.4961 65.7141 20.5664C66.5227 21.3633 67.1907 22.0898 67.718 22.7461C67.8001 22.8398 67.8411 22.9512 67.8411 23.0801C67.8411 23.2676 67.7708 23.4141 67.6302 23.5195C67.5012 23.6133 67.3606 23.6484 67.2083 23.625C67.0677 23.6133 66.9505 23.5488 66.8567 23.4316C66.4583 22.9043 65.9368 22.2949 65.2923 21.6035C65.2337 21.5449 65.1868 21.5508 65.1516 21.6211C64.7884 22.3477 64.3196 22.9746 63.7454 23.502C63.6399 23.5957 63.511 23.6426 63.3587 23.6426C63.347 23.6426 63.3352 23.6426 63.3235 23.6426C63.1595 23.6309 63.013 23.5664 62.8841 23.4492C62.7786 23.3555 62.7259 23.2324 62.7259 23.0801C62.7259 22.9395 62.7845 22.8164 62.9016 22.7109C63.8509 21.8672 64.4778 20.6602 64.7825 19.0898ZM82.7291 17.6484C82.7291 17.5547 82.6822 17.5078 82.5884 17.5078H74.2388C74.1451 17.5078 74.0982 17.5547 74.0982 17.6484V21.6738C74.0982 21.7559 74.1451 21.7969 74.2388 21.7969H82.5884C82.6822 21.7969 82.7291 21.7559 82.7291 21.6738V17.6484ZM73.9048 23.6602C73.7759 23.8008 73.6177 23.8711 73.4302 23.8711C73.2427 23.8711 73.0787 23.8008 72.938 23.6602C72.8091 23.5312 72.7447 23.373 72.7447 23.1855V17.2969C72.7447 17.0039 72.8443 16.7578 73.0435 16.5586C73.2545 16.3594 73.5005 16.2598 73.7818 16.2598H83.1158C83.397 16.2598 83.6373 16.3594 83.8365 16.5586C84.0474 16.7578 84.1529 17.0039 84.1529 17.2969V23.1152C84.1529 23.3145 84.0826 23.4844 83.942 23.625C83.8013 23.7656 83.6314 23.8359 83.4322 23.8359H83.397C83.2095 23.8359 83.0513 23.7656 82.9224 23.625C82.7935 23.4961 82.7291 23.3438 82.7291 23.168C82.7291 23.1094 82.6998 23.0801 82.6412 23.0801H74.1861C74.1275 23.0801 74.0982 23.1094 74.0982 23.168V23.1855C74.0982 23.373 74.0337 23.5312 73.9048 23.6602ZM81.1295 10.6875C81.0005 10.5703 80.9361 10.4297 80.9361 10.2656C80.9478 10.1016 81.024 9.97266 81.1646 9.87891C81.317 9.77344 81.4869 9.7207 81.6744 9.7207C81.8619 9.7207 82.0318 9.78516 82.1841 9.91406C83.8599 11.3086 85.1724 12.6445 86.1216 13.9219C86.2154 14.0508 86.2623 14.1914 86.2623 14.3438C86.2623 14.3906 86.2623 14.4375 86.2623 14.4844C86.2271 14.6836 86.1275 14.8418 85.9634 14.959C85.8462 15.0527 85.7115 15.0996 85.5591 15.0996C85.524 15.0996 85.483 15.0996 85.4361 15.0996C85.2486 15.0645 85.0962 14.9648 84.9791 14.8008C84.7681 14.4961 84.5045 14.1562 84.188 13.7812C84.1412 13.7109 84.0709 13.6816 83.9771 13.6934C82.5123 13.7754 78.3228 13.957 71.4087 14.2383C71.2212 14.25 71.0572 14.1973 70.9166 14.0801C70.7642 13.9395 70.688 13.7637 70.688 13.5527C70.688 13.4004 70.7466 13.2598 70.8638 13.1309C70.981 13.002 71.1334 12.9316 71.3209 12.9199C71.6021 12.9082 72.2349 12.8848 73.2193 12.8496C73.3013 12.8496 73.3658 12.8145 73.4127 12.7441C74.4087 11.2324 75.2759 9.67969 76.0142 8.08594C76.108 7.88672 76.2545 7.74609 76.4537 7.66406C76.5709 7.60547 76.688 7.57617 76.8052 7.57617C76.8873 7.57617 76.9752 7.59375 77.0689 7.62891C77.2681 7.69922 77.4029 7.82813 77.4732 8.01562C77.5084 8.09766 77.5259 8.17969 77.5259 8.26172C77.5259 8.36719 77.4966 8.47266 77.438 8.57812C76.6295 10.0781 75.8091 11.4434 74.9771 12.6738C74.9537 12.6973 74.9478 12.7207 74.9595 12.7441C74.9712 12.7676 74.9947 12.7793 75.0298 12.7793C76.7642 12.709 79.3716 12.5977 82.8521 12.4453C82.8755 12.4453 82.8873 12.4336 82.8873 12.4102C82.899 12.3867 82.899 12.3633 82.8873 12.3398C82.3013 11.7539 81.7154 11.2031 81.1295 10.6875ZM99.9373 7.82227C100.043 7.82227 100.131 7.86328 100.201 7.94531C100.283 8.01562 100.324 8.10938 100.324 8.22656C100.324 8.33203 100.283 8.41992 100.201 8.49023C100.131 8.56055 100.043 8.5957 99.9373 8.5957H97.617C97.5116 8.5957 97.4178 8.56055 97.3358 8.49023C97.2655 8.41992 97.2303 8.33203 97.2303 8.22656C97.2303 8.10938 97.2655 8.01562 97.3358 7.94531C97.4178 7.86328 97.5116 7.82227 97.617 7.82227H99.9373ZM100.957 9.73828C100.933 9.72656 100.922 9.73242 100.922 9.75586C100.922 9.83789 100.892 9.9082 100.834 9.9668C100.775 10.0254 100.705 10.0547 100.623 10.0547H97.0194C96.9022 10.0547 96.8026 10.0195 96.7205 9.94922C96.6385 9.86719 96.5975 9.76758 96.5975 9.65039C96.5975 9.5332 96.6385 9.43359 96.7205 9.35156C96.8026 9.26953 96.9022 9.22852 97.0194 9.22852H100.623C100.705 9.22852 100.775 9.25781 100.834 9.31641C100.892 9.375 100.922 9.45117 100.922 9.54492C100.922 9.54492 100.928 9.54492 100.939 9.54492L101.185 9.24609C101.232 9.17578 101.297 9.13477 101.379 9.12305C101.472 9.11133 101.549 9.13477 101.607 9.19336C101.631 9.20508 101.648 9.19922 101.66 9.17578C101.906 8.76562 102.14 8.32617 102.363 7.85742C102.422 7.74023 102.51 7.6582 102.627 7.61133C102.685 7.58789 102.738 7.57617 102.785 7.57617C102.855 7.57617 102.926 7.59375 102.996 7.62891C103.113 7.67578 103.189 7.76367 103.224 7.89258C103.26 8.00977 103.248 8.12695 103.189 8.24414C102.838 8.83008 102.551 9.28711 102.328 9.61523C102.281 9.68555 102.287 9.75 102.346 9.80859C102.592 10.0547 102.732 10.1895 102.767 10.2129C102.826 10.2832 102.879 10.2773 102.926 10.1953C103.172 9.83203 103.383 9.49805 103.558 9.19336C103.629 9.08789 103.728 9.01758 103.857 8.98242C103.986 8.94727 104.109 8.95898 104.226 9.01758C104.344 9.07617 104.414 9.16992 104.437 9.29883C104.461 9.42773 104.437 9.54492 104.367 9.65039C103.781 10.459 103.236 11.168 102.732 11.7773C102.721 11.8008 102.721 11.8242 102.732 11.8477C102.744 11.8711 102.762 11.8828 102.785 11.8828L104.033 11.8301C104.092 11.8301 104.109 11.8008 104.086 11.7422C104.027 11.6367 103.98 11.5488 103.945 11.4785C103.887 11.3965 103.869 11.3086 103.892 11.2148C103.928 11.1094 103.992 11.0391 104.086 11.0039C104.18 10.957 104.279 10.9512 104.385 10.9863C104.502 11.0098 104.59 11.0684 104.648 11.1621C104.883 11.5371 105.088 11.9355 105.264 12.3574C105.31 12.4746 105.31 12.5918 105.264 12.709C105.217 12.8145 105.14 12.8906 105.035 12.9375C104.93 12.9844 104.824 12.9844 104.719 12.9375C104.625 12.8906 104.56 12.8145 104.525 12.709C104.514 12.6738 104.49 12.6562 104.455 12.6562L103.664 12.709C103.57 12.7207 103.523 12.7676 103.523 12.8496V15.9082C103.523 16.0371 103.476 16.1484 103.383 16.2422C103.301 16.3359 103.195 16.3828 103.066 16.3828C102.937 16.3828 102.826 16.3359 102.732 16.2422C102.639 16.1484 102.592 16.0371 102.592 15.9082V12.9199C102.592 12.8262 102.551 12.7852 102.469 12.7969L101.326 12.8672C101.185 12.8672 101.062 12.8262 100.957 12.7441C100.863 12.6621 100.81 12.5566 100.799 12.4277C100.787 12.2988 100.822 12.1875 100.904 12.0938C100.998 11.9883 101.109 11.9355 101.238 11.9355L101.537 11.918C101.607 11.918 101.666 11.8945 101.713 11.8477C101.853 11.6836 102.017 11.4668 102.205 11.1973C102.264 11.127 102.264 11.0566 102.205 10.9863C101.853 10.5645 101.437 10.1484 100.957 9.73828ZM101.273 13.7812C101.308 13.6641 101.373 13.5703 101.467 13.5C101.572 13.4297 101.683 13.4121 101.801 13.4473C101.93 13.4707 102.029 13.5352 102.099 13.6406C102.17 13.7461 102.187 13.8574 102.152 13.9746C101.988 14.6543 101.812 15.2109 101.625 15.6445C101.578 15.7617 101.496 15.8379 101.379 15.873C101.262 15.9082 101.144 15.8965 101.027 15.8379C100.922 15.7793 100.846 15.6973 100.799 15.5918C100.764 15.4746 100.769 15.3633 100.816 15.2578C100.992 14.8711 101.144 14.3789 101.273 13.7812ZM97.5116 12.7617C97.4061 12.7617 97.3182 12.7266 97.2479 12.6562C97.1776 12.5859 97.1424 12.498 97.1424 12.3926C97.1424 12.2871 97.1776 12.1992 97.2479 12.1289C97.3182 12.0586 97.4061 12.0234 97.5116 12.0234H100.078C100.183 12.0234 100.271 12.0586 100.342 12.1289C100.412 12.1992 100.447 12.2871 100.447 12.3926C100.447 12.498 100.412 12.5859 100.342 12.6562C100.271 12.7266 100.183 12.7617 100.078 12.7617H97.5116ZM100.078 10.6699C100.183 10.6699 100.271 10.7109 100.342 10.793C100.412 10.8633 100.447 10.9512 100.447 11.0566C100.447 11.1621 100.412 11.25 100.342 11.3203C100.271 11.3906 100.183 11.4258 100.078 11.4258H97.5116C97.4178 11.4258 97.3299 11.3906 97.2479 11.3203C97.1776 11.25 97.1424 11.1621 97.1424 11.0566C97.1424 10.9512 97.1776 10.8633 97.2479 10.793C97.3299 10.7109 97.4178 10.6699 97.5116 10.6699H100.078ZM98.1092 14.1328C98.0155 14.1328 97.9686 14.1738 97.9686 14.2559V15.2051C97.9686 15.2871 98.0155 15.3281 98.1092 15.3281H99.4276C99.5096 15.3281 99.5506 15.2871 99.5506 15.2051V14.2559C99.5506 14.1738 99.5096 14.1328 99.4276 14.1328H98.1092ZM98.1268 16.0664C97.8338 16.0664 97.5877 15.9668 97.3885 15.7676C97.1893 15.5684 97.0897 15.3223 97.0897 15.0293V14.4492C97.0897 14.1562 97.1893 13.9102 97.3885 13.7109C97.5877 13.5117 97.8338 13.4121 98.1268 13.4121H99.4276C99.7205 13.4121 99.9666 13.5117 100.166 13.7109C100.365 13.9102 100.465 14.1562 100.465 14.4492V15.0293C100.465 15.3223 100.365 15.5684 100.166 15.7676C99.9666 15.9668 99.7205 16.0664 99.4276 16.0664H98.1268ZM92.6073 12.4277C92.5955 12.2988 92.6307 12.1875 92.7127 12.0938C92.7948 11.9883 92.9002 11.9355 93.0291 11.9355L93.3983 11.918C93.4686 11.918 93.5272 11.8887 93.5741 11.8301C93.6561 11.7246 93.8202 11.502 94.0662 11.1621C94.1131 11.0918 94.1073 11.0215 94.0487 10.9512C93.7791 10.6465 93.4452 10.3242 93.0467 9.98438C92.953 9.91406 92.8944 9.82031 92.8709 9.70312C92.8592 9.57422 92.8885 9.46289 92.9588 9.36914L93.0291 9.28125C93.076 9.21094 93.1405 9.16992 93.2225 9.1582C93.3045 9.13477 93.3807 9.14648 93.451 9.19336C93.4745 9.20508 93.492 9.19922 93.5037 9.17578C93.7498 8.73047 93.9725 8.28516 94.1717 7.83984C94.2303 7.72266 94.3182 7.64062 94.4354 7.59375C94.494 7.57031 94.5526 7.55859 94.6112 7.55859C94.6698 7.55859 94.7342 7.57617 94.8045 7.61133C94.9217 7.6582 94.9979 7.74609 95.033 7.875C95.0799 7.99219 95.0682 8.10938 94.9979 8.22656C94.658 8.83594 94.3885 9.29883 94.1893 9.61523C94.1424 9.68555 94.1483 9.75 94.2069 9.80859C94.3709 9.94922 94.494 10.0605 94.576 10.1426C94.6463 10.2129 94.7049 10.207 94.7518 10.125C94.9159 9.85547 95.0799 9.57422 95.244 9.28125C95.3026 9.16406 95.3963 9.08789 95.5252 9.05273C95.6541 9.01758 95.7772 9.03516 95.8944 9.10547C96.0116 9.16406 96.0819 9.25781 96.1053 9.38672C96.1405 9.50391 96.1229 9.61523 96.0526 9.7207C95.5135 10.5293 95.033 11.2148 94.6112 11.7773C94.5995 11.8008 94.5995 11.8242 94.6112 11.8477C94.6229 11.8711 94.6405 11.877 94.6639 11.8652L95.6659 11.8125C95.7127 11.8125 95.7245 11.7891 95.701 11.7422C95.6659 11.6602 95.6366 11.584 95.6131 11.5137C95.5662 11.4199 95.5604 11.332 95.5955 11.25C95.6307 11.1562 95.6893 11.0918 95.7713 11.0566C95.8651 11.0215 95.9588 11.0215 96.0526 11.0566C96.1463 11.0918 96.2166 11.1504 96.2635 11.2324C96.451 11.5957 96.6092 11.9941 96.7381 12.4277C96.7733 12.5332 96.7674 12.6387 96.7205 12.7441C96.6737 12.8379 96.5975 12.9082 96.492 12.9551C96.3983 12.9902 96.3045 12.9844 96.2108 12.9375C96.1287 12.8906 96.076 12.8203 96.0526 12.7266C96.0526 12.7148 96.0467 12.709 96.035 12.709C96.035 12.6738 96.0174 12.6562 95.9823 12.6562L95.3495 12.6914C95.2557 12.7031 95.2088 12.75 95.2088 12.832V15.9082C95.2088 16.0371 95.162 16.1484 95.0682 16.2422C94.9862 16.3359 94.8807 16.3828 94.7518 16.3828C94.6229 16.3828 94.5116 16.3359 94.4178 16.2422C94.3241 16.1484 94.2772 16.0371 94.2772 15.9082V12.9023C94.2772 12.8086 94.2362 12.7676 94.1541 12.7793C93.9784 12.7793 93.6385 12.8027 93.1346 12.8496C92.994 12.8613 92.8709 12.8262 92.7655 12.7441C92.6717 12.6621 92.619 12.5566 92.6073 12.4277ZM96.6854 14.9238C96.7088 15.0293 96.6854 15.1348 96.6151 15.2402C96.5565 15.334 96.4686 15.3926 96.3514 15.416C96.2577 15.4395 96.1639 15.4219 96.0702 15.3633C95.9764 15.3047 95.9237 15.2227 95.912 15.1172C95.8416 14.707 95.7596 14.3145 95.6659 13.9395C95.6307 13.834 95.6366 13.7402 95.6834 13.6582C95.742 13.5645 95.8241 13.5059 95.9295 13.4824C96.035 13.459 96.1346 13.4766 96.2284 13.5352C96.3221 13.582 96.3807 13.6582 96.4041 13.7637C96.5213 14.1738 96.6151 14.5605 96.6854 14.9238ZM92.1151 9.12305C92.2557 9.24023 92.326 9.39258 92.326 9.58008C92.3377 9.76758 92.285 9.92578 92.1678 10.0547C92.0623 10.1836 91.9217 10.2539 91.7459 10.2656C91.5819 10.2656 91.4412 10.207 91.3241 10.0898C90.9022 9.69141 90.3807 9.28711 89.7596 8.87695C89.6424 8.7832 89.5721 8.66016 89.5487 8.50781C89.5252 8.35547 89.5662 8.2207 89.6717 8.10352C89.7772 7.97461 89.912 7.89844 90.076 7.875C90.1229 7.86328 90.1639 7.85742 90.1991 7.85742C90.328 7.85742 90.4452 7.89258 90.5506 7.96289C91.16 8.34961 91.6815 8.73633 92.1151 9.12305ZM91.7811 13.7812C91.9217 13.8867 91.9979 14.0332 92.0096 14.2207C92.0213 14.4082 91.9686 14.5723 91.8514 14.7129C91.7459 14.8418 91.6053 14.9121 91.4295 14.9238C91.2655 14.9355 91.1131 14.8828 90.9725 14.7656C90.5272 14.3906 89.9998 14.0098 89.3905 13.623C89.2616 13.541 89.1795 13.4238 89.1444 13.2715C89.1444 13.2363 89.1444 13.207 89.1444 13.1836C89.1444 13.0664 89.1795 12.9609 89.2498 12.8672C89.367 12.7383 89.5077 12.6562 89.6717 12.6211C89.7186 12.6094 89.7655 12.6035 89.8123 12.6035C89.9295 12.6035 90.0409 12.6328 90.1463 12.6914C90.7674 13.0547 91.3123 13.418 91.7811 13.7812ZM90.6912 23.0098C90.6209 23.1738 90.4979 23.2852 90.3221 23.3438C90.1463 23.4141 89.9823 23.4023 89.8299 23.3086C89.6541 23.2031 89.537 23.0566 89.4784 22.8691C89.4549 22.7871 89.4432 22.7051 89.4432 22.623C89.4432 22.5176 89.4666 22.4121 89.5135 22.3066C90.158 20.8652 90.744 19.377 91.2713 17.8418C91.3182 17.6895 91.4178 17.5898 91.5702 17.543C91.7225 17.4844 91.8631 17.4961 91.992 17.5781C92.1444 17.6836 92.2498 17.8242 92.3084 18C92.3787 18.1758 92.3846 18.3516 92.326 18.5273C91.7987 20.1328 91.2537 21.627 90.6912 23.0098ZM93.0116 13.7812C93.0467 13.6641 93.117 13.5703 93.2225 13.5C93.2928 13.4414 93.369 13.4121 93.451 13.4121C93.4862 13.4121 93.5213 13.418 93.5565 13.4297C93.6737 13.4531 93.7674 13.5176 93.8377 13.623C93.908 13.7285 93.9256 13.8398 93.8905 13.957C93.7381 14.6133 93.5565 15.1934 93.3455 15.6973C93.2987 15.8145 93.2108 15.8906 93.0819 15.9258C92.9647 15.9609 92.8534 15.9492 92.7479 15.8906C92.6307 15.8438 92.5545 15.7676 92.5194 15.6621C92.4959 15.6035 92.4842 15.5508 92.4842 15.5039C92.4842 15.4453 92.4959 15.3867 92.5194 15.3281C92.7186 14.9062 92.8827 14.3906 93.0116 13.7812ZM95.2088 20.1445C95.2088 20.1797 95.2147 20.209 95.2264 20.2324C95.2498 20.2559 95.2791 20.2676 95.3143 20.2676H103.488C103.769 20.2676 103.998 20.373 104.174 20.584C104.303 20.7363 104.367 20.9004 104.367 21.0762C104.367 21.1465 104.355 21.2168 104.332 21.2871C104.027 22.459 103.67 23.2031 103.26 23.5195C102.931 23.7422 102.48 23.8535 101.906 23.8535C101.754 23.8535 101.584 23.8535 101.396 23.8535C100.928 23.8535 100.359 23.8359 99.6912 23.8008C99.3748 23.7891 99.1522 23.6074 99.0233 23.2559C98.9881 23.1387 98.9998 23.0332 99.0584 22.9395C99.117 22.8457 99.2049 22.7988 99.3221 22.7988C100.107 22.8574 100.851 22.8867 101.555 22.8867C101.918 22.8867 102.17 22.8398 102.31 22.7461C102.592 22.5703 102.832 22.0957 103.031 21.3223C103.043 21.2871 103.037 21.2578 103.014 21.2344C102.99 21.1992 102.961 21.1816 102.926 21.1816H94.9803C94.9334 21.1816 94.9041 21.2051 94.8924 21.252C94.8455 21.3926 94.7577 21.5039 94.6287 21.5859C94.5116 21.6562 94.3827 21.6797 94.242 21.6562L94.1366 21.6387C93.9725 21.6152 93.8553 21.5332 93.785 21.3926C93.7264 21.3105 93.6971 21.2227 93.6971 21.1289C93.6971 21.082 93.7088 21.0293 93.7323 20.9707C93.8612 20.5605 94.0018 20.0742 94.1541 19.5117C94.2362 19.2188 94.3944 18.9785 94.6287 18.791C94.8748 18.6035 95.1502 18.5098 95.4549 18.5098H102.381C102.463 18.5098 102.504 18.4629 102.504 18.3691V17.7012C102.504 17.6074 102.463 17.5605 102.381 17.5605H94.1717C94.0545 17.5605 93.9491 17.5195 93.8553 17.4375C93.7733 17.3555 93.7323 17.2559 93.7323 17.1387C93.7323 17.0215 93.7733 16.9219 93.8553 16.8398C93.9491 16.7461 94.0545 16.6992 94.1717 16.6992H102.715C102.996 16.6992 103.236 16.8047 103.435 17.0156C103.646 17.2148 103.752 17.4551 103.752 17.7363V18.334C103.752 18.6152 103.646 18.8613 103.435 19.0723C103.236 19.2715 102.996 19.3711 102.715 19.3711H95.5604C95.4784 19.3711 95.4256 19.4121 95.4022 19.4941L95.2088 20.1445ZM104.103 13.9219C104.08 13.875 104.068 13.834 104.068 13.7988C104.068 13.7402 104.08 13.6816 104.103 13.623C104.15 13.5293 104.226 13.4648 104.332 13.4297C104.379 13.418 104.426 13.4121 104.472 13.4121C104.531 13.4121 104.59 13.4297 104.648 13.4648C104.754 13.5117 104.83 13.5879 104.877 13.6934C105.088 14.2324 105.258 14.7422 105.387 15.2227C105.398 15.2695 105.404 15.3105 105.404 15.3457C105.404 15.416 105.387 15.4863 105.351 15.5566C105.281 15.6621 105.193 15.7324 105.088 15.7676C105.041 15.7676 105 15.7676 104.965 15.7676C104.894 15.7676 104.83 15.75 104.771 15.7148C104.678 15.6562 104.613 15.5684 104.578 15.4512C104.472 14.9941 104.314 14.4844 104.103 13.9219ZM113.067 12.498C113.067 12.4043 113.026 12.3574 112.944 12.3574H110.835C110.741 12.3574 110.683 12.4043 110.659 12.498C110.296 14.1035 109.95 15.5566 109.622 16.8574C109.61 16.9512 109.64 17.0156 109.71 17.0508C110.39 17.4492 111.011 17.8477 111.573 18.2461C111.644 18.293 111.696 18.2812 111.732 18.2109C112.388 16.6172 112.833 14.7129 113.067 12.498ZM113.419 11.1445C113.56 11.1094 113.7 11.1035 113.841 11.127L114.034 11.1797C114.14 11.2031 114.228 11.2617 114.298 11.3555C114.368 11.4492 114.398 11.5547 114.386 11.6719C114.151 14.6367 113.624 17.0801 112.804 19.002C112.769 19.0723 112.786 19.1367 112.857 19.1953C113.431 19.6523 113.929 20.0977 114.351 20.5312C114.491 20.6719 114.562 20.8477 114.562 21.0586C114.562 21.2461 114.509 21.4102 114.403 21.5508C114.298 21.6914 114.157 21.7676 113.982 21.7793C113.806 21.7793 113.665 21.7148 113.56 21.5859C113.196 21.1992 112.763 20.7949 112.259 20.373C112.189 20.3145 112.13 20.3262 112.083 20.4082C111.345 21.6855 110.407 22.7285 109.271 23.5371C109.118 23.6426 108.948 23.6719 108.761 23.625C108.585 23.5898 108.439 23.4961 108.321 23.3438C108.216 23.2031 108.175 23.0449 108.198 22.8691C108.234 22.7051 108.321 22.5762 108.462 22.4824C109.493 21.8027 110.36 20.8359 111.064 19.582C111.11 19.5117 111.099 19.4473 111.028 19.3887C110.501 19.002 109.939 18.6211 109.341 18.2461C109.294 18.2109 109.265 18.2227 109.253 18.2812L109.235 18.3516C109.189 18.5039 109.089 18.6152 108.937 18.6855C108.796 18.7441 108.655 18.7383 108.515 18.668C108.351 18.5859 108.234 18.4629 108.163 18.2988C108.093 18.123 108.081 17.9473 108.128 17.7715C108.526 16.2949 108.954 14.5371 109.411 12.498C109.423 12.4043 109.388 12.3574 109.306 12.3574H108.339C108.175 12.3574 108.028 12.2988 107.9 12.1816C107.782 12.0645 107.724 11.9238 107.724 11.7598C107.724 11.584 107.782 11.4375 107.9 11.3203C108.028 11.2031 108.175 11.1445 108.339 11.1445H109.552C109.646 11.1445 109.698 11.1035 109.71 11.0215C109.933 10.0371 110.132 9.05859 110.308 8.08594C110.343 7.91016 110.431 7.76953 110.571 7.66406C110.7 7.57031 110.835 7.52344 110.976 7.52344C111.011 7.52344 111.04 7.52344 111.064 7.52344C111.239 7.54688 111.374 7.62891 111.468 7.76953C111.573 7.91016 111.609 8.0625 111.573 8.22656C111.409 9.08203 111.216 10.0078 110.993 11.0039C110.97 11.0977 111.005 11.1445 111.099 11.1445H113.366C113.39 11.1445 113.407 11.1445 113.419 11.1445ZM123.544 14.6602C123.708 14.6602 123.849 14.7188 123.966 14.8359C124.095 14.9531 124.159 15.0996 124.159 15.2754C124.159 15.4395 124.095 15.5859 123.966 15.7148C123.849 15.832 123.708 15.8906 123.544 15.8906H120.011C119.917 15.8906 119.87 15.9375 119.87 16.0312V22.1836C119.87 22.5938 119.812 22.9043 119.694 23.1152C119.589 23.3262 119.396 23.4844 119.114 23.5898C118.728 23.7305 117.989 23.8125 116.9 23.8359C116.9 23.8359 116.894 23.8359 116.882 23.8359C116.694 23.8359 116.519 23.7715 116.355 23.6426C116.191 23.5254 116.073 23.3672 116.003 23.168C115.944 23.0156 115.956 22.875 116.038 22.7461C116.12 22.6172 116.237 22.5527 116.39 22.5527C116.823 22.5645 117.187 22.5703 117.48 22.5703C117.773 22.5703 117.995 22.5645 118.148 22.5527C118.3 22.541 118.405 22.5117 118.464 22.4648C118.523 22.4062 118.552 22.3125 118.552 22.1836V16.0312C118.552 15.9375 118.505 15.8906 118.411 15.8906H114.948C114.784 15.8906 114.638 15.832 114.509 15.7148C114.392 15.5859 114.333 15.4395 114.333 15.2754C114.333 15.0996 114.392 14.9531 114.509 14.8359C114.638 14.7188 114.784 14.6602 114.948 14.6602H118.411C118.505 14.6602 118.552 14.6133 118.552 14.5195V12.7441C118.552 12.6035 118.599 12.4863 118.692 12.3926C118.786 12.2988 118.898 12.252 119.026 12.252C119.062 12.252 119.097 12.2402 119.132 12.2168C119.952 11.5605 120.767 10.7227 121.575 9.70312C121.587 9.67969 121.587 9.65625 121.575 9.63281C121.564 9.60938 121.546 9.59766 121.523 9.59766H115.546C115.37 9.59766 115.224 9.53906 115.107 9.42188C114.989 9.29297 114.931 9.14648 114.931 8.98242C114.931 8.81836 114.989 8.67773 115.107 8.56055C115.224 8.43164 115.37 8.36719 115.546 8.36719H122.595C122.618 8.36719 122.642 8.36719 122.665 8.36719C122.712 8.34375 122.765 8.33203 122.823 8.33203C122.917 8.33203 123.011 8.36719 123.105 8.4375L123.333 8.5957C123.462 8.68945 123.538 8.8125 123.562 8.96484C123.585 9.11719 123.55 9.25195 123.456 9.36914C122.413 10.7637 121.253 11.9648 119.976 12.9727C119.905 13.0195 119.87 13.0898 119.87 13.1836V14.5195C119.87 14.6133 119.917 14.6602 120.011 14.6602H123.544ZM138.344 11.5137C138.356 11.4902 138.35 11.4668 138.327 11.4434C138.315 11.4082 138.291 11.3906 138.256 11.3906H130.838C130.803 11.3906 130.774 11.4023 130.75 11.4258C130.739 11.4492 130.739 11.4785 130.75 11.5137C131.629 13.8926 132.871 15.9141 134.477 17.5781C134.536 17.6367 134.594 17.6367 134.653 17.5781C136.223 15.9492 137.454 13.9277 138.344 11.5137ZM142.528 10.2656C142.657 10.3945 142.721 10.5527 142.721 10.7402C142.721 10.916 142.657 11.0684 142.528 11.1973C142.399 11.3262 142.241 11.3906 142.053 11.3906H140.084C139.991 11.3906 139.926 11.4316 139.891 11.5137C138.883 14.3027 137.477 16.6348 135.672 18.5098C135.614 18.5684 135.62 18.627 135.69 18.6855C137.518 20.1855 139.657 21.2812 142.106 21.9727C142.282 22.0195 142.393 22.1309 142.44 22.3066C142.498 22.4707 142.475 22.6289 142.37 22.7812C142.217 22.9805 142.036 23.1211 141.825 23.2031C141.696 23.2617 141.567 23.291 141.438 23.291C141.344 23.291 141.256 23.2793 141.174 23.2559C138.62 22.4941 136.434 21.3105 134.618 19.7051C134.547 19.6465 134.477 19.6465 134.407 19.7051C132.672 21.1582 130.516 22.3359 127.938 23.2383C127.844 23.2734 127.75 23.291 127.657 23.291C127.551 23.291 127.44 23.2676 127.323 23.2207C127.123 23.127 126.959 22.9863 126.83 22.7988C126.737 22.6582 126.713 22.5 126.76 22.3242C126.807 22.1484 126.918 22.0312 127.094 21.9727C129.59 21.1758 131.694 20.0918 133.405 18.7207C133.475 18.6621 133.481 18.6035 133.422 18.5449C131.653 16.623 130.27 14.2793 129.274 11.5137C129.239 11.4316 129.174 11.3906 129.08 11.3906H127.217C127.041 11.3906 126.889 11.3262 126.76 11.1973C126.631 11.0684 126.567 10.916 126.567 10.7402C126.567 10.5527 126.631 10.3945 126.76 10.2656C126.889 10.1367 127.041 10.0723 127.217 10.0723H133.756C133.85 10.0723 133.897 10.0312 133.897 9.94922V7.69922C133.897 7.52344 133.961 7.37109 134.09 7.24219C134.231 7.10156 134.389 7.03125 134.565 7.03125C134.752 7.03125 134.911 7.10156 135.039 7.24219C135.18 7.37109 135.25 7.52344 135.25 7.69922V9.94922C135.25 10.0312 135.291 10.0723 135.373 10.0723H142.053C142.241 10.0723 142.399 10.1367 142.528 10.2656ZM149.716 8.33203C149.799 8.16797 149.927 8.04492 150.103 7.96289C150.279 7.88086 150.455 7.875 150.631 7.94531C150.806 8.00391 150.929 8.11523 151 8.2793C151.07 8.44336 151.07 8.60742 151 8.77148C150.519 9.80273 149.968 10.8105 149.347 11.7949C149.3 11.8652 149.277 11.9414 149.277 12.0234V23.1504C149.277 23.3379 149.207 23.4961 149.066 23.625C148.937 23.7656 148.779 23.8359 148.591 23.8359C148.404 23.8359 148.246 23.7656 148.117 23.625C147.988 23.4961 147.924 23.3379 147.924 23.1504V13.9219C147.924 13.8984 147.912 13.8867 147.888 13.8867C147.865 13.875 147.847 13.875 147.836 13.8867C147.285 14.5898 146.722 15.2227 146.148 15.7852C146.007 15.9258 145.838 15.9785 145.638 15.9434C145.451 15.9082 145.304 15.8027 145.199 15.627C145.105 15.4746 145.058 15.3164 145.058 15.1523C145.058 15.1055 145.064 15.0586 145.076 15.0117C145.099 14.7891 145.193 14.6016 145.357 14.4492C146.213 13.6641 147.015 12.7383 147.765 11.6719C148.527 10.6055 149.177 9.49219 149.716 8.33203ZM155.605 22.3594H159.121C159.554 22.3594 159.853 22.1895 160.017 21.8496C160.181 21.5098 160.293 20.8242 160.351 19.793C160.363 19.6406 160.439 19.5293 160.58 19.459C160.72 19.377 160.861 19.3711 161.002 19.4414C161.201 19.5234 161.359 19.6523 161.476 19.8281C161.57 19.9688 161.617 20.1211 161.617 20.2852C161.617 21.3984 161.388 22.2773 160.931 22.9219C160.603 23.3789 160.029 23.6074 159.209 23.6074H155.517C154.568 23.6074 153.924 23.4316 153.584 23.0801C153.244 22.7402 153.074 22.084 153.074 21.1113V8.54297C153.074 8.35547 153.138 8.19727 153.267 8.06836C153.396 7.92773 153.554 7.85742 153.742 7.85742C153.929 7.85742 154.088 7.92773 154.216 8.06836C154.345 8.19727 154.41 8.35547 154.41 8.54297V14.4316C154.41 14.4551 154.422 14.4785 154.445 14.502C154.48 14.5137 154.509 14.5137 154.533 14.502C156.349 13.4707 157.914 12.4102 159.226 11.3203C159.367 11.2031 159.525 11.1445 159.701 11.1445C159.724 11.1445 159.748 11.1445 159.771 11.1445C159.982 11.168 160.152 11.2559 160.281 11.4082C160.386 11.5488 160.439 11.7012 160.439 11.8652C160.439 12.1113 160.345 12.3047 160.158 12.4453C158.881 13.3945 157.006 14.5312 154.533 15.8555C154.451 15.8906 154.41 15.9551 154.41 16.0488V21.1289C154.41 21.6328 154.486 21.9668 154.638 22.1309C154.791 22.2832 155.113 22.3594 155.605 22.3594Z" fill="#424242"/>
<path d="M36.3926 37.6143C35.5547 37.6143 34.8662 37.3096 34.3271 36.7002C33.7881 36.085 33.5186 35.2529 33.5186 34.2041C33.5186 33.1611 33.791 32.3291 34.3359 31.708C34.8867 31.0869 35.5898 30.7764 36.4453 30.7764C37.0254 30.7764 37.5439 30.9668 38.001 31.3477C38.083 31.418 38.124 31.5088 38.124 31.6201C38.124 31.7139 38.0918 31.7959 38.0273 31.8662C37.9688 31.9365 37.8926 31.9746 37.7988 31.9805C37.7051 31.9863 37.623 31.957 37.5527 31.8926C37.2246 31.6348 36.8584 31.5059 36.4541 31.5059C35.8271 31.5059 35.3232 31.7461 34.9424 32.2266C34.5674 32.707 34.3799 33.3574 34.3799 34.1777C34.3799 35.0098 34.5645 35.6689 34.9336 36.1553C35.3027 36.6416 35.8008 36.8848 36.4277 36.8848C36.9023 36.8848 37.3301 36.7207 37.7109 36.3926C37.7812 36.3281 37.8633 36.2988 37.957 36.3047C38.0508 36.3047 38.127 36.3398 38.1855 36.4102C38.25 36.4805 38.2822 36.5654 38.2822 36.665C38.2822 36.7705 38.2471 36.8555 38.1768 36.9199C37.6787 37.3828 37.084 37.6143 36.3926 37.6143ZM44.5594 37.6143C44.2078 37.6143 43.8943 37.5645 43.6189 37.4648C43.3436 37.3652 43.0945 37.21 42.8719 36.999C42.6551 36.7822 42.4852 36.4863 42.3621 36.1113C42.2449 35.7363 42.1863 35.291 42.1863 34.7754V31.3213C42.1863 31.2041 42.2273 31.1045 42.3094 31.0225C42.3914 30.9404 42.491 30.8994 42.6082 30.8994C42.7254 30.8994 42.825 30.9404 42.907 31.0225C42.9891 31.1045 43.0301 31.2041 43.0301 31.3213V34.8018C43.0301 36.1904 43.5398 36.8848 44.5594 36.8848C45.6082 36.8848 46.1326 36.1904 46.1326 34.8018V31.3037C46.1326 31.1924 46.1707 31.0986 46.2469 31.0225C46.3289 30.9404 46.4227 30.8994 46.5281 30.8994C46.6395 30.8994 46.7332 30.9404 46.8094 31.0225C46.8914 31.0986 46.9324 31.1924 46.9324 31.3037V34.7754C46.9324 35.291 46.8709 35.7363 46.7479 36.1113C46.6307 36.4863 46.4637 36.7822 46.2469 36.999C46.0301 37.21 45.7811 37.3652 45.4998 37.4648C45.2244 37.5645 44.9109 37.6143 44.5594 37.6143ZM51.9176 37.5C51.777 37.5 51.6539 37.4502 51.5484 37.3506C51.4488 37.2451 51.399 37.1221 51.399 36.9814V31.3213C51.399 31.2041 51.44 31.1045 51.5221 31.0225C51.6041 30.9404 51.7037 30.8994 51.8209 30.8994C51.9381 30.8994 52.0377 30.9404 52.1197 31.0225C52.2018 31.1045 52.2428 31.2041 52.2428 31.3213V36.7266C52.2428 36.7676 52.2633 36.7881 52.3043 36.7881H54.7652C54.8648 36.7881 54.9469 36.8232 55.0113 36.8936C55.0816 36.9639 55.1168 37.0488 55.1168 37.1484C55.1168 37.2422 55.0816 37.3242 55.0113 37.3945C54.9469 37.4648 54.8648 37.5 54.7652 37.5H51.9176ZM59.9877 37.377C59.9057 37.459 59.8061 37.5 59.6889 37.5C59.5775 37.5 59.4809 37.459 59.3988 37.377C59.3168 37.2949 59.2758 37.1953 59.2758 37.0781V31.6729C59.2758 31.626 59.2553 31.6025 59.2143 31.6025H57.6322C57.5326 31.6025 57.4477 31.5703 57.3773 31.5059C57.3129 31.4355 57.2807 31.3535 57.2807 31.2598C57.2807 31.1602 57.3129 31.0752 57.3773 31.0049C57.4477 30.9346 57.5326 30.8994 57.6322 30.8994H61.7631C61.8568 30.8994 61.9389 30.9346 62.0092 31.0049C62.0795 31.0752 62.1146 31.1602 62.1146 31.2598C62.1146 31.3535 62.0795 31.4355 62.0092 31.5059C61.9389 31.5703 61.8568 31.6025 61.7631 31.6025H60.1811C60.1342 31.6025 60.1107 31.626 60.1107 31.6729V37.0781C60.1107 37.1953 60.0697 37.2949 59.9877 37.377ZM68.3303 37.6143C67.9787 37.6143 67.6652 37.5645 67.3898 37.4648C67.1145 37.3652 66.8654 37.21 66.6428 36.999C66.426 36.7822 66.2561 36.4863 66.133 36.1113C66.0158 35.7363 65.9572 35.291 65.9572 34.7754V31.3213C65.9572 31.2041 65.9982 31.1045 66.0803 31.0225C66.1623 30.9404 66.2619 30.8994 66.3791 30.8994C66.4963 30.8994 66.5959 30.9404 66.6779 31.0225C66.76 31.1045 66.801 31.2041 66.801 31.3213V34.8018C66.801 36.1904 67.3107 36.8848 68.3303 36.8848C69.3791 36.8848 69.9035 36.1904 69.9035 34.8018V31.3037C69.9035 31.1924 69.9416 31.0986 70.0178 31.0225C70.0998 30.9404 70.1936 30.8994 70.299 30.8994C70.4104 30.8994 70.5041 30.9404 70.5803 31.0225C70.6623 31.0986 70.7033 31.1924 70.7033 31.3037V34.7754C70.7033 35.291 70.6418 35.7363 70.5187 36.1113C70.4016 36.4863 70.2346 36.7822 70.0178 36.999C69.801 37.21 69.552 37.3652 69.2707 37.4648C68.9953 37.5645 68.6818 37.6143 68.3303 37.6143ZM76.0752 31.5762C76.0342 31.5762 76.0137 31.5996 76.0137 31.6465V33.958C76.0137 34.0049 76.0342 34.0283 76.0752 34.0283H77.1211C78.1875 34.0283 78.7207 33.6035 78.7207 32.7539C78.7207 32.332 78.5859 32.0303 78.3164 31.8486C78.0527 31.667 77.6543 31.5762 77.1211 31.5762H76.0752ZM79.5029 37.0957C79.5322 37.1367 79.5469 37.1807 79.5469 37.2275C79.5469 37.2744 79.5352 37.3213 79.5117 37.3682C79.459 37.4561 79.3799 37.5 79.2744 37.5C79.1279 37.5 78.9902 37.4648 78.8613 37.3945C78.7383 37.3184 78.6387 37.2158 78.5625 37.0869L77.2354 34.7578C77.2119 34.7227 77.1768 34.7051 77.1299 34.7051H76.0752C76.0342 34.7051 76.0137 34.7256 76.0137 34.7666V37.0781C76.0137 37.1953 75.9727 37.2949 75.8906 37.377C75.8086 37.459 75.709 37.5 75.5918 37.5C75.4746 37.5 75.375 37.459 75.293 37.377C75.2109 37.2949 75.1699 37.1953 75.1699 37.0781V31.418C75.1699 31.2773 75.2197 31.1572 75.3193 31.0576C75.4248 30.9521 75.5479 30.8994 75.6885 30.8994H77.2441C78.7793 30.8994 79.5469 31.5176 79.5469 32.7539C79.5469 33.2402 79.4209 33.6387 79.1689 33.9492C78.917 34.2598 78.5654 34.4736 78.1143 34.5908C78.0732 34.6025 78.0645 34.6289 78.0879 34.6699L79.5029 37.0957ZM84.1014 37.5C83.9607 37.5 83.8377 37.4502 83.7322 37.3506C83.6326 37.2451 83.5828 37.1221 83.5828 36.9814V31.418C83.5828 31.2773 83.6326 31.1572 83.7322 31.0576C83.8377 30.9521 83.9607 30.8994 84.1014 30.8994H87.0457C87.1395 30.8994 87.2215 30.9346 87.2918 31.0049C87.3621 31.0752 87.3973 31.1602 87.3973 31.2598C87.3973 31.3535 87.3621 31.4355 87.2918 31.5059C87.2215 31.5703 87.1395 31.6025 87.0457 31.6025H84.4881C84.4471 31.6025 84.4266 31.626 84.4266 31.6729V33.6064C84.4266 33.6533 84.4471 33.6768 84.4881 33.6768H86.5711C86.6707 33.6768 86.7527 33.7119 86.8172 33.7822C86.8875 33.8467 86.9227 33.9287 86.9227 34.0283C86.9227 34.1279 86.8875 34.2129 86.8172 34.2832C86.7527 34.3535 86.6707 34.3887 86.5711 34.3887H84.4881C84.4471 34.3887 84.4266 34.4092 84.4266 34.4502V36.7266C84.4266 36.7676 84.4471 36.7881 84.4881 36.7881H87.1336C87.2332 36.7881 87.3182 36.8232 87.3885 36.8936C87.4588 36.9639 87.4939 37.0488 87.4939 37.1484C87.4939 37.2422 87.4588 37.3242 87.3885 37.3945C87.3182 37.4648 87.2332 37.5 87.1336 37.5H84.1014ZM97.0072 37.377C96.9252 37.459 96.8256 37.5 96.7084 37.5C96.5912 37.5 96.4916 37.459 96.4096 37.377C96.3275 37.2949 96.2865 37.1953 96.2865 37.0781V31.3213C96.2865 31.2041 96.3275 31.1045 96.4096 31.0225C96.4916 30.9404 96.5912 30.8994 96.7084 30.8994C96.8256 30.8994 96.9252 30.9404 97.0072 31.0225C97.0893 31.1045 97.1303 31.2041 97.1303 31.3213V37.0781C97.1303 37.1953 97.0893 37.2949 97.0072 37.377ZM102.3 37.3857C102.224 37.4619 102.13 37.5 102.019 37.5C101.913 37.5 101.82 37.4619 101.738 37.3857C101.661 37.3096 101.623 37.2158 101.623 37.1045V31.3389C101.623 31.2158 101.664 31.1133 101.746 31.0312C101.834 30.9434 101.94 30.8994 102.063 30.8994C102.192 30.8994 102.315 30.9346 102.432 31.0049C102.549 31.0693 102.64 31.1602 102.704 31.2773L104.893 35.0566L105.587 36.4014C105.593 36.4131 105.602 36.4189 105.613 36.4189C105.631 36.4189 105.64 36.4131 105.64 36.4014C105.57 35.3525 105.534 34.6641 105.534 34.3359V31.2949C105.534 31.1895 105.572 31.0986 105.649 31.0225C105.725 30.9404 105.819 30.8994 105.93 30.8994C106.041 30.8994 106.135 30.9404 106.211 31.0225C106.287 31.0986 106.325 31.1895 106.325 31.2949V37.0693C106.325 37.1924 106.281 37.2949 106.194 37.377C106.112 37.459 106.012 37.5 105.895 37.5C105.766 37.5 105.643 37.4678 105.526 37.4033C105.414 37.333 105.323 37.2422 105.253 37.1309L103.065 33.334L102.362 31.9893C102.356 31.9775 102.347 31.9717 102.335 31.9717C102.323 31.9717 102.318 31.9775 102.318 31.9893C102.323 32.1006 102.335 32.3086 102.353 32.6133C102.376 32.918 102.394 33.1816 102.405 33.4043C102.417 33.6211 102.423 33.832 102.423 34.0371V37.1045C102.423 37.2158 102.382 37.3096 102.3 37.3857ZM117.623 37.377C117.541 37.459 117.441 37.5 117.324 37.5C117.213 37.5 117.116 37.459 117.034 37.377C116.952 37.2949 116.911 37.1953 116.911 37.0781V31.6729C116.911 31.626 116.89 31.6025 116.849 31.6025H115.267C115.168 31.6025 115.083 31.5703 115.012 31.5059C114.948 31.4355 114.916 31.3535 114.916 31.2598C114.916 31.1602 114.948 31.0752 115.012 31.0049C115.083 30.9346 115.168 30.8994 115.267 30.8994H119.398C119.492 30.8994 119.574 30.9346 119.644 31.0049C119.715 31.0752 119.75 31.1602 119.75 31.2598C119.75 31.3535 119.715 31.4355 119.644 31.5059C119.574 31.5703 119.492 31.6025 119.398 31.6025H117.816C117.769 31.6025 117.746 31.626 117.746 31.6729V37.0781C117.746 37.1953 117.705 37.2949 117.623 37.377ZM124.102 34.7578C124.096 34.7695 124.096 34.7842 124.102 34.8018C124.114 34.8135 124.129 34.8193 124.146 34.8193H126.009C126.027 34.8193 126.042 34.8135 126.053 34.8018C126.065 34.7842 126.068 34.7695 126.062 34.7578L125.763 33.8086C125.582 33.2578 125.362 32.5195 125.104 31.5938C125.098 31.582 125.089 31.5762 125.078 31.5762C125.066 31.5762 125.06 31.582 125.06 31.5938C124.896 32.2031 124.676 32.9414 124.401 33.8086L124.102 34.7578ZM127.354 37.5C127.225 37.5 127.108 37.4619 127.003 37.3857C126.897 37.3037 126.824 37.2012 126.783 37.0781L126.308 35.5488C126.291 35.5078 126.261 35.4873 126.22 35.4873H123.944C123.897 35.4873 123.868 35.5078 123.856 35.5488L123.364 37.0957C123.323 37.2188 123.253 37.3184 123.153 37.3945C123.053 37.4648 122.939 37.5 122.81 37.5C122.705 37.5 122.623 37.459 122.564 37.377C122.529 37.3184 122.511 37.2598 122.511 37.2012C122.511 37.166 122.517 37.1309 122.529 37.0957L124.48 31.3389C124.527 31.21 124.606 31.1045 124.717 31.0225C124.829 30.9404 124.952 30.8994 125.087 30.8994C125.227 30.8994 125.353 30.9404 125.464 31.0225C125.582 31.1045 125.661 31.21 125.702 31.3389L127.653 37.0781C127.665 37.1191 127.671 37.1572 127.671 37.1924C127.671 37.251 127.653 37.3096 127.618 37.3682C127.553 37.4561 127.465 37.5 127.354 37.5ZM132.137 37.377C132.055 37.459 131.955 37.5 131.838 37.5C131.721 37.5 131.621 37.459 131.539 37.377C131.457 37.2949 131.416 37.1953 131.416 37.0781V31.3213C131.416 31.2041 131.457 31.1045 131.539 31.0225C131.621 30.9404 131.721 30.8994 131.838 30.8994C131.955 30.8994 132.055 30.9404 132.137 31.0225C132.219 31.1045 132.26 31.2041 132.26 31.3213V37.0781C132.26 37.1953 132.219 37.2949 132.137 37.377ZM138.37 37.3682C138.253 37.4561 138.121 37.5 137.975 37.5C137.834 37.5 137.708 37.4561 137.597 37.3682C137.486 37.2744 137.415 37.1572 137.386 37.0166L136.173 31.3213C136.167 31.2979 136.164 31.2715 136.164 31.2422C136.164 31.166 136.191 31.0957 136.243 31.0312C136.314 30.9434 136.404 30.8994 136.516 30.8994C136.639 30.8994 136.747 30.9404 136.841 31.0225C136.941 31.1045 137.002 31.207 137.026 31.3301L137.641 34.4941C137.682 34.7285 137.743 35.083 137.825 35.5576C137.913 36.0264 137.978 36.3779 138.019 36.6123C138.025 36.624 138.033 36.6299 138.045 36.6299C138.057 36.6299 138.063 36.624 138.063 36.6123C138.168 36.1377 138.326 35.4316 138.537 34.4941L139.355 31.2686C139.384 31.1631 139.443 31.0752 139.53 31.0049C139.618 30.9346 139.718 30.8994 139.829 30.8994C139.941 30.8994 140.04 30.9346 140.128 31.0049C140.216 31.0752 140.272 31.1631 140.295 31.2686L141.13 34.4941C141.253 35.0273 141.408 35.7305 141.596 36.6035C141.596 36.6211 141.602 36.6299 141.613 36.6299C141.631 36.6299 141.643 36.6211 141.649 36.6035C141.772 35.8945 141.895 35.1914 142.018 34.4941L142.642 31.2949C142.659 31.1836 142.712 31.0898 142.8 31.0137C142.894 30.9375 142.999 30.8994 143.116 30.8994C143.222 30.8994 143.307 30.9404 143.371 31.0225C143.418 31.0811 143.442 31.1484 143.442 31.2246C143.442 31.248 143.439 31.2715 143.433 31.2949L142.246 37.0078C142.217 37.1543 142.147 37.2744 142.035 37.3682C141.924 37.4561 141.795 37.5 141.649 37.5C141.502 37.5 141.37 37.4561 141.253 37.3682C141.136 37.2744 141.06 37.1572 141.025 37.0166L140.146 33.5186C140.116 33.3779 140.011 32.8828 139.829 32.0332C139.829 32.0215 139.821 32.0156 139.803 32.0156C139.791 32.0156 139.785 32.0215 139.785 32.0332C139.756 32.1738 139.703 32.4111 139.627 32.7451C139.551 33.0732 139.495 33.3311 139.46 33.5186L138.59 37.0166C138.561 37.1572 138.488 37.2744 138.37 37.3682ZM148.198 34.7578C148.192 34.7695 148.192 34.7842 148.198 34.8018C148.21 34.8135 148.225 34.8193 148.242 34.8193H150.105C150.123 34.8193 150.138 34.8135 150.149 34.8018C150.161 34.7842 150.164 34.7695 150.158 34.7578L149.859 33.8086C149.678 33.2578 149.458 32.5195 149.2 31.5938C149.194 31.582 149.186 31.5762 149.174 31.5762C149.162 31.5762 149.156 31.582 149.156 31.5938C148.992 32.2031 148.772 32.9414 148.497 33.8086L148.198 34.7578ZM151.45 37.5C151.321 37.5 151.204 37.4619 151.099 37.3857C150.993 37.3037 150.92 37.2012 150.879 37.0781L150.404 35.5488C150.387 35.5078 150.357 35.4873 150.316 35.4873H148.04C147.993 35.4873 147.964 35.5078 147.952 35.5488L147.46 37.0957C147.419 37.2188 147.349 37.3184 147.249 37.3945C147.149 37.4648 147.035 37.5 146.906 37.5C146.801 37.5 146.719 37.459 146.66 37.377C146.625 37.3184 146.607 37.2598 146.607 37.2012C146.607 37.166 146.613 37.1309 146.625 37.0957L148.576 31.3389C148.623 31.21 148.702 31.1045 148.813 31.0225C148.925 30.9404 149.048 30.8994 149.183 30.8994C149.323 30.8994 149.449 30.9404 149.561 31.0225C149.678 31.1045 149.757 31.21 149.798 31.3389L151.749 37.0781C151.761 37.1191 151.767 37.1572 151.767 37.1924C151.767 37.251 151.749 37.3096 151.714 37.3682C151.649 37.4561 151.562 37.5 151.45 37.5ZM156.189 37.3857C156.113 37.4619 156.019 37.5 155.908 37.5C155.803 37.5 155.709 37.4619 155.627 37.3857C155.551 37.3096 155.512 37.2158 155.512 37.1045V31.3389C155.512 31.2158 155.554 31.1133 155.636 31.0312C155.723 30.9434 155.829 30.8994 155.952 30.8994C156.081 30.8994 156.204 30.9346 156.321 31.0049C156.438 31.0693 156.529 31.1602 156.594 31.2773L158.782 35.0566L159.476 36.4014C159.482 36.4131 159.491 36.4189 159.503 36.4189C159.52 36.4189 159.529 36.4131 159.529 36.4014C159.459 35.3525 159.424 34.6641 159.424 34.3359V31.2949C159.424 31.1895 159.462 31.0986 159.538 31.0225C159.614 30.9404 159.708 30.8994 159.819 30.8994C159.93 30.8994 160.024 30.9404 160.1 31.0225C160.177 31.0986 160.215 31.1895 160.215 31.2949V37.0693C160.215 37.1924 160.171 37.2949 160.083 37.377C160.001 37.459 159.901 37.5 159.784 37.5C159.655 37.5 159.532 37.4678 159.415 37.4033C159.304 37.333 159.213 37.2422 159.142 37.1309L156.954 33.334L156.251 31.9893C156.245 31.9775 156.236 31.9717 156.224 31.9717C156.213 31.9717 156.207 31.9775 156.207 31.9893C156.213 32.1006 156.224 32.3086 156.242 32.6133C156.265 32.918 156.283 33.1816 156.295 33.4043C156.306 33.6211 156.312 33.832 156.312 34.0371V37.1045C156.312 37.2158 156.271 37.3096 156.189 37.3857Z" fill="#424242"/>
</svg>
